<mxfile host="Electron" agent="Mozilla/5.0 (Macintosh; Intel Mac OS X 10_15_7) AppleWebKit/537.36 (KHTML, like Gecko) draw.io/24.7.8 Chrome/128.0.6613.36 Electron/32.0.1 Safari/537.36" version="24.7.8">
  <diagram name="Page-1" id="uyRON6Edz5f79Mit8d-J">
    <mxGraphModel dx="2452" dy="2744" grid="0" gridSize="10" guides="1" tooltips="1" connect="1" arrows="1" fold="1" page="0" pageScale="1" pageWidth="850" pageHeight="1100" math="1" shadow="0">
      <root>
        <mxCell id="0" />
        <mxCell id="1" parent="0" />
        <mxCell id="B1v1-cyqUUZS_gUo7Q4Y-594" value="" style="endArrow=classic;html=1;rounded=0;strokeWidth=3;strokeColor=#CC0000;" edge="1" parent="1">
          <mxGeometry width="50" height="50" relative="1" as="geometry">
            <mxPoint x="3148" y="685.5" as="sourcePoint" />
            <mxPoint x="3180.75" y="592.5" as="targetPoint" />
          </mxGeometry>
        </mxCell>
        <mxCell id="B1v1-cyqUUZS_gUo7Q4Y-596" value="" style="endArrow=classic;html=1;rounded=0;strokeWidth=3;strokeColor=#CC0000;" edge="1" parent="1">
          <mxGeometry width="50" height="50" relative="1" as="geometry">
            <mxPoint x="3144" y="753.5" as="sourcePoint" />
            <mxPoint x="3194" y="612.5" as="targetPoint" />
          </mxGeometry>
        </mxCell>
        <mxCell id="B1v1-cyqUUZS_gUo7Q4Y-597" value="" style="endArrow=classic;html=1;rounded=0;strokeWidth=3;strokeColor=#CC0000;" edge="1" parent="1">
          <mxGeometry width="50" height="50" relative="1" as="geometry">
            <mxPoint x="3141.75" y="815.5" as="sourcePoint" />
            <mxPoint x="3209" y="627.5" as="targetPoint" />
          </mxGeometry>
        </mxCell>
        <mxCell id="B1v1-cyqUUZS_gUo7Q4Y-494" value="" style="endArrow=classic;html=1;rounded=0;strokeWidth=3;entryX=0;entryY=0.25;entryDx=0;entryDy=0;" edge="1" parent="1" target="B1v1-cyqUUZS_gUo7Q4Y-459">
          <mxGeometry width="50" height="50" relative="1" as="geometry">
            <mxPoint x="2958" y="135" as="sourcePoint" />
            <mxPoint x="3169.25" y="139" as="targetPoint" />
          </mxGeometry>
        </mxCell>
        <mxCell id="B1v1-cyqUUZS_gUo7Q4Y-483" value="" style="shape=document;whiteSpace=wrap;html=1;boundedLbl=1;rotation=-180;size=0.17511520737327224;fillColor=#99CCFF;opacity=40;" vertex="1" parent="1">
          <mxGeometry x="3782" y="267.25" width="120" height="33" as="geometry" />
        </mxCell>
        <mxCell id="B1v1-cyqUUZS_gUo7Q4Y-476" value="" style="shape=document;whiteSpace=wrap;html=1;boundedLbl=1;rotation=-180;size=0.17511520737327224;fillColor=#99CCFF;opacity=40;" vertex="1" parent="1">
          <mxGeometry x="3185" y="225.75" width="120" height="75.5" as="geometry" />
        </mxCell>
        <mxCell id="B1v1-cyqUUZS_gUo7Q4Y-477" value="&lt;b&gt;&lt;font style=&quot;font-size: 20px;&quot;&gt;thousands of items&lt;/font&gt;&lt;/b&gt;" style="rounded=0;whiteSpace=wrap;html=1;fillColor=none;" vertex="1" parent="1">
          <mxGeometry x="3185" y="112" width="120" height="189.25" as="geometry" />
        </mxCell>
        <mxCell id="B1v1-cyqUUZS_gUo7Q4Y-322" value="" style="shape=flexArrow;endArrow=classic;startArrow=classic;html=1;rounded=0;entryX=0;entryY=0.5;entryDx=0;entryDy=0;exitX=1;exitY=0.5;exitDx=0;exitDy=0;fillColor=#f8cecc;strokeColor=none;" edge="1" source="B1v1-cyqUUZS_gUo7Q4Y-362" target="B1v1-cyqUUZS_gUo7Q4Y-325" parent="1">
          <mxGeometry width="100" height="100" relative="1" as="geometry">
            <mxPoint x="2986" y="-286" as="sourcePoint" />
            <mxPoint x="3383" y="-283" as="targetPoint" />
          </mxGeometry>
        </mxCell>
        <mxCell id="B1v1-cyqUUZS_gUo7Q4Y-323" value="" style="rounded=1;whiteSpace=wrap;html=1;arcSize=4;dashed=1;strokeColor=#3333FF;" vertex="1" parent="1">
          <mxGeometry x="3128.25" y="-373" width="210" height="177" as="geometry" />
        </mxCell>
        <mxCell id="B1v1-cyqUUZS_gUo7Q4Y-453" style="edgeStyle=orthogonalEdgeStyle;rounded=0;orthogonalLoop=1;jettySize=auto;html=1;entryX=0;entryY=0.25;entryDx=0;entryDy=0;dashed=1;exitX=0;exitY=0.75;exitDx=0;exitDy=0;" edge="1" parent="1" source="B1v1-cyqUUZS_gUo7Q4Y-447" target="B1v1-cyqUUZS_gUo7Q4Y-330">
          <mxGeometry relative="1" as="geometry">
            <Array as="points">
              <mxPoint x="3083" y="-823" />
              <mxPoint x="3083" y="-344" />
            </Array>
          </mxGeometry>
        </mxCell>
        <mxCell id="B1v1-cyqUUZS_gUo7Q4Y-308" value="" style="shape=flexArrow;endArrow=classic;startArrow=classic;html=1;rounded=0;entryX=0;entryY=0.5;entryDx=0;entryDy=0;exitX=1;exitY=0.5;exitDx=0;exitDy=0;fillColor=#f8cecc;strokeColor=none;" edge="1" parent="1" source="B1v1-cyqUUZS_gUo7Q4Y-276" target="B1v1-cyqUUZS_gUo7Q4Y-241">
          <mxGeometry width="100" height="100" relative="1" as="geometry">
            <mxPoint x="1907" y="-286" as="sourcePoint" />
            <mxPoint x="2304" y="-283" as="targetPoint" />
          </mxGeometry>
        </mxCell>
        <mxCell id="B1v1-cyqUUZS_gUo7Q4Y-242" value="" style="rounded=1;whiteSpace=wrap;html=1;arcSize=4;dashed=1;strokeColor=#3333FF;" vertex="1" parent="1">
          <mxGeometry x="2049.25" y="-373" width="210" height="177" as="geometry" />
        </mxCell>
        <mxCell id="B1v1-cyqUUZS_gUo7Q4Y-314" style="edgeStyle=orthogonalEdgeStyle;rounded=0;orthogonalLoop=1;jettySize=auto;html=1;entryX=0;entryY=0.25;entryDx=0;entryDy=0;exitX=0;exitY=0.75;exitDx=0;exitDy=0;dashed=1;" edge="1" parent="1" source="B1v1-cyqUUZS_gUo7Q4Y-307" target="B1v1-cyqUUZS_gUo7Q4Y-246">
          <mxGeometry relative="1" as="geometry">
            <Array as="points">
              <mxPoint x="2005" y="-719" />
              <mxPoint x="2005" y="-344" />
            </Array>
          </mxGeometry>
        </mxCell>
        <mxCell id="B1v1-cyqUUZS_gUo7Q4Y-203" value="" style="rounded=1;whiteSpace=wrap;html=1;arcSize=4;dashed=1;strokeColor=#FF3333;" vertex="1" parent="1">
          <mxGeometry x="283" y="-373" width="210" height="177" as="geometry" />
        </mxCell>
        <mxCell id="B1v1-cyqUUZS_gUo7Q4Y-202" value="" style="rounded=1;whiteSpace=wrap;html=1;arcSize=4;dashed=1;strokeColor=#3333FF;" vertex="1" parent="1">
          <mxGeometry x="-84" y="-373" width="210" height="177" as="geometry" />
        </mxCell>
        <mxCell id="B1v1-cyqUUZS_gUo7Q4Y-125" value="" style="rounded=1;whiteSpace=wrap;html=1;arcSize=4;dashed=1;strokeColor=#808080;" vertex="1" parent="1">
          <mxGeometry x="913" y="300" width="242" height="210" as="geometry" />
        </mxCell>
        <mxCell id="B1v1-cyqUUZS_gUo7Q4Y-82" value="" style="rounded=1;whiteSpace=wrap;html=1;arcSize=4;dashed=1;strokeColor=#808080;" vertex="1" parent="1">
          <mxGeometry x="-70.5" y="303" width="959" height="207" as="geometry" />
        </mxCell>
        <mxCell id="3v-tV2K4t0TfQgvWX8gL-1" value="" style="whiteSpace=wrap;html=1;aspect=fixed;fillColor=#E6E6E6;fillStyle=solid;" parent="1" vertex="1">
          <mxGeometry x="-62" y="374" width="37" height="37" as="geometry" />
        </mxCell>
        <mxCell id="3v-tV2K4t0TfQgvWX8gL-2" value="" style="whiteSpace=wrap;html=1;aspect=fixed;fillColor=#E6E6E6;fillStyle=solid;" parent="1" vertex="1">
          <mxGeometry x="-62" y="411" width="37" height="37" as="geometry" />
        </mxCell>
        <mxCell id="3v-tV2K4t0TfQgvWX8gL-3" value="" style="whiteSpace=wrap;html=1;aspect=fixed;fillColor=#E6E6E6;fillStyle=solid;" parent="1" vertex="1">
          <mxGeometry x="-62" y="448" width="37" height="37" as="geometry" />
        </mxCell>
        <mxCell id="3v-tV2K4t0TfQgvWX8gL-5" value="" style="whiteSpace=wrap;html=1;aspect=fixed;fillColor=#E6E6E6;fillStyle=solid;" parent="1" vertex="1">
          <mxGeometry x="-25" y="374" width="37" height="37" as="geometry" />
        </mxCell>
        <mxCell id="3v-tV2K4t0TfQgvWX8gL-6" value="" style="whiteSpace=wrap;html=1;aspect=fixed;fillColor=#E6E6E6;fillStyle=solid;" parent="1" vertex="1">
          <mxGeometry x="-25" y="411" width="37" height="37" as="geometry" />
        </mxCell>
        <mxCell id="3v-tV2K4t0TfQgvWX8gL-7" value="" style="whiteSpace=wrap;html=1;aspect=fixed;fillColor=#E6E6E6;fillStyle=solid;" parent="1" vertex="1">
          <mxGeometry x="-25" y="448" width="37" height="37" as="geometry" />
        </mxCell>
        <mxCell id="3v-tV2K4t0TfQgvWX8gL-9" value="" style="whiteSpace=wrap;html=1;aspect=fixed;fillColor=#B3B3B3;fillStyle=solid;" parent="1" vertex="1">
          <mxGeometry x="12" y="374" width="37" height="37" as="geometry" />
        </mxCell>
        <mxCell id="3v-tV2K4t0TfQgvWX8gL-10" value="" style="whiteSpace=wrap;html=1;aspect=fixed;fillColor=#B3B3B3;fillStyle=solid;" parent="1" vertex="1">
          <mxGeometry x="12" y="411" width="37" height="37" as="geometry" />
        </mxCell>
        <mxCell id="3v-tV2K4t0TfQgvWX8gL-11" value="" style="whiteSpace=wrap;html=1;aspect=fixed;fillColor=#B3B3B3;fillStyle=solid;" parent="1" vertex="1">
          <mxGeometry x="12" y="448" width="37" height="37" as="geometry" />
        </mxCell>
        <mxCell id="3v-tV2K4t0TfQgvWX8gL-13" value="" style="whiteSpace=wrap;html=1;aspect=fixed;fillColor=#E6E6E6;fillStyle=solid;" parent="1" vertex="1">
          <mxGeometry x="49" y="374" width="37" height="37" as="geometry" />
        </mxCell>
        <mxCell id="3v-tV2K4t0TfQgvWX8gL-14" value="" style="whiteSpace=wrap;html=1;aspect=fixed;fillColor=#E6E6E6;fillStyle=solid;" parent="1" vertex="1">
          <mxGeometry x="49" y="411" width="37" height="37" as="geometry" />
        </mxCell>
        <mxCell id="3v-tV2K4t0TfQgvWX8gL-15" value="" style="whiteSpace=wrap;html=1;aspect=fixed;fillColor=#E6E6E6;fillStyle=solid;" parent="1" vertex="1">
          <mxGeometry x="49" y="448" width="37" height="37" as="geometry" />
        </mxCell>
        <mxCell id="3v-tV2K4t0TfQgvWX8gL-17" value="" style="whiteSpace=wrap;html=1;aspect=fixed;fillColor=#E6E6E6;fillStyle=solid;" parent="1" vertex="1">
          <mxGeometry x="86" y="374" width="37" height="37" as="geometry" />
        </mxCell>
        <mxCell id="B1v1-cyqUUZS_gUo7Q4Y-110" style="edgeStyle=orthogonalEdgeStyle;rounded=0;orthogonalLoop=1;jettySize=auto;html=1;entryX=0;entryY=0.5;entryDx=0;entryDy=0;" edge="1" parent="1" source="3v-tV2K4t0TfQgvWX8gL-18" target="3v-tV2K4t0TfQgvWX8gL-41">
          <mxGeometry relative="1" as="geometry" />
        </mxCell>
        <mxCell id="3v-tV2K4t0TfQgvWX8gL-18" value="" style="whiteSpace=wrap;html=1;aspect=fixed;fillColor=#E6E6E6;fillStyle=solid;" parent="1" vertex="1">
          <mxGeometry x="86" y="411" width="37" height="37" as="geometry" />
        </mxCell>
        <mxCell id="3v-tV2K4t0TfQgvWX8gL-19" value="" style="whiteSpace=wrap;html=1;aspect=fixed;fillColor=#E6E6E6;fillStyle=solid;" parent="1" vertex="1">
          <mxGeometry x="86" y="448" width="37" height="37" as="geometry" />
        </mxCell>
        <mxCell id="3v-tV2K4t0TfQgvWX8gL-33" value="" style="whiteSpace=wrap;html=1;aspect=fixed;fillStyle=solid;" parent="1" vertex="1">
          <mxGeometry x="416" y="562" width="37" height="37" as="geometry" />
        </mxCell>
        <mxCell id="3v-tV2K4t0TfQgvWX8gL-34" value="" style="whiteSpace=wrap;html=1;aspect=fixed;fillStyle=solid;" parent="1" vertex="1">
          <mxGeometry x="453" y="562" width="37" height="37" as="geometry" />
        </mxCell>
        <mxCell id="B1v1-cyqUUZS_gUo7Q4Y-69" style="edgeStyle=orthogonalEdgeStyle;rounded=0;orthogonalLoop=1;jettySize=auto;html=1;entryX=0.5;entryY=1;entryDx=0;entryDy=0;" edge="1" parent="1" source="3v-tV2K4t0TfQgvWX8gL-35" target="3v-tV2K4t0TfQgvWX8gL-92">
          <mxGeometry relative="1" as="geometry">
            <mxPoint x="251" y="534" as="targetPoint" />
            <Array as="points">
              <mxPoint x="509" y="542" />
              <mxPoint x="165" y="542" />
            </Array>
          </mxGeometry>
        </mxCell>
        <mxCell id="B1v1-cyqUUZS_gUo7Q4Y-112" style="edgeStyle=orthogonalEdgeStyle;rounded=0;orthogonalLoop=1;jettySize=auto;html=1;entryX=0;entryY=1;entryDx=0;entryDy=0;" edge="1" parent="1" source="3v-tV2K4t0TfQgvWX8gL-35" target="B1v1-cyqUUZS_gUo7Q4Y-75">
          <mxGeometry relative="1" as="geometry" />
        </mxCell>
        <mxCell id="B1v1-cyqUUZS_gUo7Q4Y-124" style="edgeStyle=orthogonalEdgeStyle;rounded=0;orthogonalLoop=1;jettySize=auto;html=1;entryX=0;entryY=1;entryDx=0;entryDy=0;" edge="1" parent="1" source="3v-tV2K4t0TfQgvWX8gL-35" target="B1v1-cyqUUZS_gUo7Q4Y-79">
          <mxGeometry relative="1" as="geometry">
            <Array as="points">
              <mxPoint x="509" y="542" />
              <mxPoint x="843" y="542" />
            </Array>
          </mxGeometry>
        </mxCell>
        <mxCell id="3v-tV2K4t0TfQgvWX8gL-35" value="&lt;font style=&quot;font-size: 16px;&quot;&gt;&lt;b&gt;i&lt;/b&gt;&lt;/font&gt;" style="whiteSpace=wrap;html=1;aspect=fixed;fillStyle=solid;fillColor=#B3B3B3;" parent="1" vertex="1">
          <mxGeometry x="490" y="562" width="37" height="37" as="geometry" />
        </mxCell>
        <mxCell id="3v-tV2K4t0TfQgvWX8gL-36" value="" style="whiteSpace=wrap;html=1;aspect=fixed;fillStyle=solid;" parent="1" vertex="1">
          <mxGeometry x="527" y="562" width="37" height="37" as="geometry" />
        </mxCell>
        <mxCell id="3v-tV2K4t0TfQgvWX8gL-37" value="" style="whiteSpace=wrap;html=1;aspect=fixed;fillStyle=solid;" parent="1" vertex="1">
          <mxGeometry x="564" y="562" width="37" height="37" as="geometry" />
        </mxCell>
        <mxCell id="3v-tV2K4t0TfQgvWX8gL-41" value="&lt;b&gt;&lt;font style=&quot;font-size: 20px;&quot;&gt;X&lt;/font&gt;&lt;/b&gt;" style="ellipse;whiteSpace=wrap;html=1;aspect=fixed;" parent="1" vertex="1">
          <mxGeometry x="153" y="419.5" width="20" height="20" as="geometry" />
        </mxCell>
        <mxCell id="3v-tV2K4t0TfQgvWX8gL-43" value="" style="whiteSpace=wrap;html=1;aspect=fixed;fillColor=#E6E6E6;fillStyle=solid;" parent="1" vertex="1">
          <mxGeometry x="242.5" y="354.25" width="37" height="37" as="geometry" />
        </mxCell>
        <mxCell id="3v-tV2K4t0TfQgvWX8gL-44" value="" style="whiteSpace=wrap;html=1;aspect=fixed;fillColor=#E6E6E6;fillStyle=solid;" parent="1" vertex="1">
          <mxGeometry x="242.5" y="391.25" width="37" height="37" as="geometry" />
        </mxCell>
        <mxCell id="3v-tV2K4t0TfQgvWX8gL-46" value="" style="whiteSpace=wrap;html=1;aspect=fixed;fillColor=#E6E6E6;fillStyle=solid;" parent="1" vertex="1">
          <mxGeometry x="279.5" y="354.25" width="37" height="37" as="geometry" />
        </mxCell>
        <mxCell id="3v-tV2K4t0TfQgvWX8gL-47" value="" style="whiteSpace=wrap;html=1;aspect=fixed;fillColor=#E6E6E6;fillStyle=solid;" parent="1" vertex="1">
          <mxGeometry x="279.5" y="391.25" width="37" height="37" as="geometry" />
        </mxCell>
        <mxCell id="3v-tV2K4t0TfQgvWX8gL-49" value="" style="whiteSpace=wrap;html=1;aspect=fixed;fillColor=#B3B3B3;fillStyle=solid;" parent="1" vertex="1">
          <mxGeometry x="316.5" y="354.25" width="37" height="37" as="geometry" />
        </mxCell>
        <mxCell id="3v-tV2K4t0TfQgvWX8gL-50" value="" style="whiteSpace=wrap;html=1;aspect=fixed;fillColor=#B3B3B3;fillStyle=solid;" parent="1" vertex="1">
          <mxGeometry x="316.5" y="391.25" width="37" height="37" as="geometry" />
        </mxCell>
        <mxCell id="3v-tV2K4t0TfQgvWX8gL-52" value="" style="whiteSpace=wrap;html=1;aspect=fixed;fillColor=#E6E6E6;fillStyle=solid;" parent="1" vertex="1">
          <mxGeometry x="353.5" y="354.25" width="37" height="37" as="geometry" />
        </mxCell>
        <mxCell id="3v-tV2K4t0TfQgvWX8gL-53" value="" style="whiteSpace=wrap;html=1;aspect=fixed;fillColor=#E6E6E6;fillStyle=solid;" parent="1" vertex="1">
          <mxGeometry x="353.5" y="391.25" width="37" height="37" as="geometry" />
        </mxCell>
        <mxCell id="3v-tV2K4t0TfQgvWX8gL-55" value="" style="whiteSpace=wrap;html=1;aspect=fixed;fillColor=#E6E6E6;fillStyle=solid;" parent="1" vertex="1">
          <mxGeometry x="390.5" y="354.25" width="37" height="37" as="geometry" />
        </mxCell>
        <mxCell id="B1v1-cyqUUZS_gUo7Q4Y-113" style="edgeStyle=orthogonalEdgeStyle;rounded=0;orthogonalLoop=1;jettySize=auto;html=1;entryX=0;entryY=0.5;entryDx=0;entryDy=0;exitX=1;exitY=1;exitDx=0;exitDy=0;" edge="1" parent="1" source="3v-tV2K4t0TfQgvWX8gL-56" target="B1v1-cyqUUZS_gUo7Q4Y-73">
          <mxGeometry relative="1" as="geometry">
            <Array as="points">
              <mxPoint x="446" y="428" />
              <mxPoint x="446" y="428" />
            </Array>
          </mxGeometry>
        </mxCell>
        <mxCell id="3v-tV2K4t0TfQgvWX8gL-56" value="" style="whiteSpace=wrap;html=1;aspect=fixed;fillColor=#E6E6E6;fillStyle=solid;" parent="1" vertex="1">
          <mxGeometry x="390.5" y="391.25" width="37" height="37" as="geometry" />
        </mxCell>
        <mxCell id="3v-tV2K4t0TfQgvWX8gL-82" value="" style="shape=crossbar;whiteSpace=wrap;html=1;rounded=1;strokeWidth=1;" parent="1" vertex="1">
          <mxGeometry x="418" y="606" width="185" height="8" as="geometry" />
        </mxCell>
        <mxCell id="3v-tV2K4t0TfQgvWX8gL-91" value="" style="whiteSpace=wrap;html=1;aspect=fixed;fillColor=#B3B3B3;fillStyle=solid;" parent="1" vertex="1">
          <mxGeometry x="109.5" y="312" width="37" height="37" as="geometry" />
        </mxCell>
        <mxCell id="3v-tV2K4t0TfQgvWX8gL-92" value="" style="whiteSpace=wrap;html=1;aspect=fixed;fillColor=#B3B3B3;fillStyle=solid;" parent="1" vertex="1">
          <mxGeometry x="146.5" y="312" width="37" height="37" as="geometry" />
        </mxCell>
        <mxCell id="3v-tV2K4t0TfQgvWX8gL-93" value="" style="whiteSpace=wrap;html=1;aspect=fixed;fillColor=#B3B3B3;fillStyle=solid;" parent="1" vertex="1">
          <mxGeometry x="183.5" y="312" width="37" height="37" as="geometry" />
        </mxCell>
        <mxCell id="3v-tV2K4t0TfQgvWX8gL-94" value="" style="whiteSpace=wrap;html=1;aspect=fixed;fillColor=#B3B3B3;fillStyle=solid;" parent="1" vertex="1">
          <mxGeometry x="435.5" y="312" width="37" height="37" as="geometry" />
        </mxCell>
        <mxCell id="3v-tV2K4t0TfQgvWX8gL-95" value="" style="whiteSpace=wrap;html=1;aspect=fixed;fillColor=#B3B3B3;fillStyle=solid;" parent="1" vertex="1">
          <mxGeometry x="472.5" y="312" width="37" height="37" as="geometry" />
        </mxCell>
        <mxCell id="3v-tV2K4t0TfQgvWX8gL-98" value="&lt;font style=&quot;font-size: 16px;&quot; face=&quot;Verdana&quot;&gt;$$N(\text{user})$$&lt;/font&gt;" style="text;html=1;align=center;verticalAlign=middle;whiteSpace=wrap;rounded=0;fontSize=16;" parent="1" vertex="1">
          <mxGeometry x="477" y="616" width="63" height="17" as="geometry" />
        </mxCell>
        <mxCell id="3v-tV2K4t0TfQgvWX8gL-107" value="" style="whiteSpace=wrap;html=1;aspect=fixed;fillColor=#B3B3B3;fillStyle=solid;" parent="1" vertex="1">
          <mxGeometry x="923" y="312" width="37" height="37" as="geometry" />
        </mxCell>
        <mxCell id="3v-tV2K4t0TfQgvWX8gL-108" value="" style="whiteSpace=wrap;html=1;aspect=fixed;fillColor=#B3B3B3;fillStyle=solid;" parent="1" vertex="1">
          <mxGeometry x="960" y="312" width="37" height="37" as="geometry" />
        </mxCell>
        <mxCell id="3v-tV2K4t0TfQgvWX8gL-109" value="" style="whiteSpace=wrap;html=1;aspect=fixed;fillColor=#B3B3B3;fillStyle=solid;" parent="1" vertex="1">
          <mxGeometry x="997" y="312" width="37" height="37" as="geometry" />
        </mxCell>
        <mxCell id="3v-tV2K4t0TfQgvWX8gL-110" value="" style="whiteSpace=wrap;html=1;aspect=fixed;fillColor=#B3B3B3;fillStyle=solid;" parent="1" vertex="1">
          <mxGeometry x="1034" y="312" width="37" height="37" as="geometry" />
        </mxCell>
        <mxCell id="3v-tV2K4t0TfQgvWX8gL-111" value="" style="whiteSpace=wrap;html=1;aspect=fixed;fillColor=#B3B3B3;fillStyle=solid;" parent="1" vertex="1">
          <mxGeometry x="1071" y="312" width="37" height="37" as="geometry" />
        </mxCell>
        <mxCell id="3v-tV2K4t0TfQgvWX8gL-112" value="" style="whiteSpace=wrap;html=1;aspect=fixed;fillColor=#B3B3B3;fillStyle=solid;" parent="1" vertex="1">
          <mxGeometry x="1108" y="312" width="37" height="37" as="geometry" />
        </mxCell>
        <mxCell id="3v-tV2K4t0TfQgvWX8gL-113" value="" style="whiteSpace=wrap;html=1;aspect=fixed;fillColor=#B3B3B3;fillStyle=solid;" parent="1" vertex="1">
          <mxGeometry x="353.5" y="174" width="37" height="37" as="geometry" />
        </mxCell>
        <mxCell id="3v-tV2K4t0TfQgvWX8gL-114" value="" style="whiteSpace=wrap;html=1;aspect=fixed;fillColor=#B3B3B3;fillStyle=solid;" parent="1" vertex="1">
          <mxGeometry x="390.5" y="174" width="37" height="37" as="geometry" />
        </mxCell>
        <mxCell id="3v-tV2K4t0TfQgvWX8gL-115" value="" style="whiteSpace=wrap;html=1;aspect=fixed;fillColor=#B3B3B3;fillStyle=solid;" parent="1" vertex="1">
          <mxGeometry x="427.5" y="174" width="37" height="37" as="geometry" />
        </mxCell>
        <mxCell id="3v-tV2K4t0TfQgvWX8gL-116" value="" style="whiteSpace=wrap;html=1;aspect=fixed;fillColor=#B3B3B3;fillStyle=solid;" parent="1" vertex="1">
          <mxGeometry x="464.5" y="174" width="37" height="37" as="geometry" />
        </mxCell>
        <mxCell id="3v-tV2K4t0TfQgvWX8gL-117" value="" style="whiteSpace=wrap;html=1;aspect=fixed;fillColor=#B3B3B3;fillStyle=solid;" parent="1" vertex="1">
          <mxGeometry x="501.5" y="174" width="37" height="37" as="geometry" />
        </mxCell>
        <mxCell id="3v-tV2K4t0TfQgvWX8gL-119" value="" style="whiteSpace=wrap;html=1;aspect=fixed;fillColor=#B3B3B3;fillStyle=solid;" parent="1" vertex="1">
          <mxGeometry x="538.5" y="174" width="37" height="37" as="geometry" />
        </mxCell>
        <mxCell id="3v-tV2K4t0TfQgvWX8gL-120" value="" style="whiteSpace=wrap;html=1;aspect=fixed;fillColor=#B3B3B3;fillStyle=solid;" parent="1" vertex="1">
          <mxGeometry x="575.5" y="174" width="37" height="37" as="geometry" />
        </mxCell>
        <mxCell id="3v-tV2K4t0TfQgvWX8gL-121" value="" style="whiteSpace=wrap;html=1;aspect=fixed;fillColor=#B3B3B3;fillStyle=solid;" parent="1" vertex="1">
          <mxGeometry x="612.5" y="174" width="37" height="37" as="geometry" />
        </mxCell>
        <mxCell id="3v-tV2K4t0TfQgvWX8gL-122" value="" style="whiteSpace=wrap;html=1;aspect=fixed;fillColor=#B3B3B3;fillStyle=solid;" parent="1" vertex="1">
          <mxGeometry x="649.5" y="174" width="37" height="37" as="geometry" />
        </mxCell>
        <mxCell id="3v-tV2K4t0TfQgvWX8gL-123" value="" style="whiteSpace=wrap;html=1;aspect=fixed;fillColor=#B3B3B3;fillStyle=solid;" parent="1" vertex="1">
          <mxGeometry x="686.5" y="174" width="37" height="37" as="geometry" />
        </mxCell>
        <mxCell id="3v-tV2K4t0TfQgvWX8gL-127" value="" style="endArrow=classic;html=1;rounded=0;" parent="1" edge="1">
          <mxGeometry width="50" height="50" relative="1" as="geometry">
            <mxPoint x="630.5" y="78" as="sourcePoint" />
            <mxPoint x="631" y="49" as="targetPoint" />
          </mxGeometry>
        </mxCell>
        <mxCell id="3v-tV2K4t0TfQgvWX8gL-128" value="&lt;b&gt;&lt;font style=&quot;font-size: 16px;&quot; face=&quot;Verdana&quot;&gt;Neural Network&lt;/font&gt;&lt;/b&gt;" style="rounded=0;whiteSpace=wrap;html=1;" parent="1" vertex="1">
          <mxGeometry x="528" y="87" width="206" height="43" as="geometry" />
        </mxCell>
        <mxCell id="3v-tV2K4t0TfQgvWX8gL-129" value="" style="endArrow=classic;html=1;rounded=0;exitX=0.5;exitY=0;exitDx=0;exitDy=0;" parent="1" edge="1" source="3v-tV2K4t0TfQgvWX8gL-92">
          <mxGeometry width="50" height="50" relative="1" as="geometry">
            <mxPoint x="262" y="295" as="sourcePoint" />
            <mxPoint x="607" y="247" as="targetPoint" />
          </mxGeometry>
        </mxCell>
        <mxCell id="3v-tV2K4t0TfQgvWX8gL-130" value="" style="endArrow=classic;html=1;rounded=0;exitX=0;exitY=0;exitDx=0;exitDy=0;" parent="1" edge="1" source="B1v1-cyqUUZS_gUo7Q4Y-75">
          <mxGeometry width="50" height="50" relative="1" as="geometry">
            <mxPoint x="630.5" y="280" as="sourcePoint" />
            <mxPoint x="631" y="248" as="targetPoint" />
          </mxGeometry>
        </mxCell>
        <mxCell id="3v-tV2K4t0TfQgvWX8gL-131" value="" style="endArrow=classic;html=1;rounded=0;exitX=0;exitY=0;exitDx=0;exitDy=0;" parent="1" edge="1" source="3v-tV2K4t0TfQgvWX8gL-110">
          <mxGeometry width="50" height="50" relative="1" as="geometry">
            <mxPoint x="988" y="293" as="sourcePoint" />
            <mxPoint x="661" y="246" as="targetPoint" />
          </mxGeometry>
        </mxCell>
        <mxCell id="3v-tV2K4t0TfQgvWX8gL-81" value="&lt;span style=&quot;font-size: 16px;&quot;&gt;&lt;font face=&quot;Verdana&quot; style=&quot;font-size: 16px;&quot;&gt;concatenate&lt;/font&gt;&lt;/span&gt;" style="text;html=1;align=center;verticalAlign=middle;whiteSpace=wrap;rounded=0;fontStyle=1;fillColor=default;fontSize=16;" parent="1" vertex="1">
          <mxGeometry x="561" y="214" width="140" height="26" as="geometry" />
        </mxCell>
        <mxCell id="3v-tV2K4t0TfQgvWX8gL-132" value="" style="whiteSpace=wrap;html=1;aspect=fixed;fillColor=#B3B3B3;fillStyle=solid;" parent="1" vertex="1">
          <mxGeometry x="538.5" y="6" width="37" height="37" as="geometry" />
        </mxCell>
        <mxCell id="3v-tV2K4t0TfQgvWX8gL-133" value="" style="whiteSpace=wrap;html=1;aspect=fixed;fillColor=#B3B3B3;fillStyle=solid;" parent="1" vertex="1">
          <mxGeometry x="575.5" y="6" width="37" height="37" as="geometry" />
        </mxCell>
        <mxCell id="3v-tV2K4t0TfQgvWX8gL-134" value="" style="whiteSpace=wrap;html=1;aspect=fixed;fillColor=#B3B3B3;fillStyle=solid;" parent="1" vertex="1">
          <mxGeometry x="612.5" y="6" width="37" height="37" as="geometry" />
        </mxCell>
        <mxCell id="3v-tV2K4t0TfQgvWX8gL-135" value="" style="whiteSpace=wrap;html=1;aspect=fixed;fillColor=#B3B3B3;fillStyle=solid;" parent="1" vertex="1">
          <mxGeometry x="649.5" y="6" width="37" height="37" as="geometry" />
        </mxCell>
        <mxCell id="3v-tV2K4t0TfQgvWX8gL-136" value="" style="whiteSpace=wrap;html=1;aspect=fixed;fillColor=#B3B3B3;fillStyle=solid;" parent="1" vertex="1">
          <mxGeometry x="686.5" y="6" width="37" height="37" as="geometry" />
        </mxCell>
        <mxCell id="3v-tV2K4t0TfQgvWX8gL-137" value="" style="endArrow=classic;html=1;rounded=0;" parent="1" edge="1">
          <mxGeometry width="50" height="50" relative="1" as="geometry">
            <mxPoint x="630.5" y="166" as="sourcePoint" />
            <mxPoint x="631" y="137" as="targetPoint" />
          </mxGeometry>
        </mxCell>
        <mxCell id="B1v1-cyqUUZS_gUo7Q4Y-18" value="" style="whiteSpace=wrap;html=1;aspect=fixed;fillColor=#E6E6E6;fillStyle=solid;" vertex="1" parent="1">
          <mxGeometry x="242.5" y="427.75" width="37" height="37" as="geometry" />
        </mxCell>
        <mxCell id="B1v1-cyqUUZS_gUo7Q4Y-19" value="" style="whiteSpace=wrap;html=1;aspect=fixed;fillColor=#E6E6E6;fillStyle=solid;" vertex="1" parent="1">
          <mxGeometry x="242.5" y="464.75" width="37" height="37" as="geometry" />
        </mxCell>
        <mxCell id="B1v1-cyqUUZS_gUo7Q4Y-20" value="" style="whiteSpace=wrap;html=1;aspect=fixed;fillColor=#E6E6E6;fillStyle=solid;" vertex="1" parent="1">
          <mxGeometry x="279.5" y="427.75" width="37" height="37" as="geometry" />
        </mxCell>
        <mxCell id="B1v1-cyqUUZS_gUo7Q4Y-21" value="" style="whiteSpace=wrap;html=1;aspect=fixed;fillColor=#E6E6E6;fillStyle=solid;" vertex="1" parent="1">
          <mxGeometry x="279.5" y="464.75" width="37" height="37" as="geometry" />
        </mxCell>
        <mxCell id="B1v1-cyqUUZS_gUo7Q4Y-22" value="" style="whiteSpace=wrap;html=1;aspect=fixed;fillColor=#B3B3B3;fillStyle=solid;" vertex="1" parent="1">
          <mxGeometry x="316.5" y="427.75" width="37" height="37" as="geometry" />
        </mxCell>
        <mxCell id="B1v1-cyqUUZS_gUo7Q4Y-23" value="" style="whiteSpace=wrap;html=1;aspect=fixed;fillColor=#B3B3B3;fillStyle=solid;" vertex="1" parent="1">
          <mxGeometry x="316.5" y="464.75" width="37" height="37" as="geometry" />
        </mxCell>
        <mxCell id="B1v1-cyqUUZS_gUo7Q4Y-24" value="" style="whiteSpace=wrap;html=1;aspect=fixed;fillColor=#E6E6E6;fillStyle=solid;" vertex="1" parent="1">
          <mxGeometry x="353.5" y="427.75" width="37" height="37" as="geometry" />
        </mxCell>
        <mxCell id="B1v1-cyqUUZS_gUo7Q4Y-25" value="" style="whiteSpace=wrap;html=1;aspect=fixed;fillColor=#E6E6E6;fillStyle=solid;" vertex="1" parent="1">
          <mxGeometry x="353.5" y="464.75" width="37" height="37" as="geometry" />
        </mxCell>
        <mxCell id="B1v1-cyqUUZS_gUo7Q4Y-26" value="" style="whiteSpace=wrap;html=1;aspect=fixed;fillColor=#E6E6E6;fillStyle=solid;" vertex="1" parent="1">
          <mxGeometry x="390.5" y="427.75" width="37" height="37" as="geometry" />
        </mxCell>
        <mxCell id="B1v1-cyqUUZS_gUo7Q4Y-27" value="" style="whiteSpace=wrap;html=1;aspect=fixed;fillColor=#E6E6E6;fillStyle=solid;" vertex="1" parent="1">
          <mxGeometry x="390.5" y="464.75" width="37" height="37" as="geometry" />
        </mxCell>
        <mxCell id="B1v1-cyqUUZS_gUo7Q4Y-37" value="" style="whiteSpace=wrap;html=1;aspect=fixed;fillColor=#E6E6E6;fillStyle=solid;" vertex="1" parent="1">
          <mxGeometry x="557" y="379.38" width="37" height="37" as="geometry" />
        </mxCell>
        <mxCell id="B1v1-cyqUUZS_gUo7Q4Y-38" value="" style="whiteSpace=wrap;html=1;aspect=fixed;fillColor=#E6E6E6;fillStyle=solid;" vertex="1" parent="1">
          <mxGeometry x="557" y="416.38" width="37" height="37" as="geometry" />
        </mxCell>
        <mxCell id="B1v1-cyqUUZS_gUo7Q4Y-39" value="" style="whiteSpace=wrap;html=1;aspect=fixed;fillColor=#E6E6E6;fillStyle=solid;" vertex="1" parent="1">
          <mxGeometry x="594" y="379.38" width="37" height="37" as="geometry" />
        </mxCell>
        <mxCell id="B1v1-cyqUUZS_gUo7Q4Y-40" value="" style="whiteSpace=wrap;html=1;aspect=fixed;fillColor=#E6E6E6;fillStyle=solid;" vertex="1" parent="1">
          <mxGeometry x="594" y="416.38" width="37" height="37" as="geometry" />
        </mxCell>
        <mxCell id="B1v1-cyqUUZS_gUo7Q4Y-41" value="" style="whiteSpace=wrap;html=1;aspect=fixed;fillColor=#B3B3B3;fillStyle=solid;" vertex="1" parent="1">
          <mxGeometry x="631" y="379.38" width="37" height="37" as="geometry" />
        </mxCell>
        <mxCell id="B1v1-cyqUUZS_gUo7Q4Y-42" value="" style="whiteSpace=wrap;html=1;aspect=fixed;fillColor=#B3B3B3;fillStyle=solid;" vertex="1" parent="1">
          <mxGeometry x="631" y="416.38" width="37" height="37" as="geometry" />
        </mxCell>
        <mxCell id="B1v1-cyqUUZS_gUo7Q4Y-43" value="" style="whiteSpace=wrap;html=1;aspect=fixed;fillColor=#E6E6E6;fillStyle=solid;" vertex="1" parent="1">
          <mxGeometry x="668" y="379.38" width="37" height="37" as="geometry" />
        </mxCell>
        <mxCell id="B1v1-cyqUUZS_gUo7Q4Y-44" value="" style="whiteSpace=wrap;html=1;aspect=fixed;fillColor=#E6E6E6;fillStyle=solid;" vertex="1" parent="1">
          <mxGeometry x="668" y="416.38" width="37" height="37" as="geometry" />
        </mxCell>
        <mxCell id="B1v1-cyqUUZS_gUo7Q4Y-45" value="" style="whiteSpace=wrap;html=1;aspect=fixed;fillColor=#E6E6E6;fillStyle=solid;" vertex="1" parent="1">
          <mxGeometry x="705" y="379.38" width="37" height="37" as="geometry" />
        </mxCell>
        <mxCell id="B1v1-cyqUUZS_gUo7Q4Y-46" value="" style="whiteSpace=wrap;html=1;aspect=fixed;fillColor=#E6E6E6;fillStyle=solid;" vertex="1" parent="1">
          <mxGeometry x="705" y="416.38" width="37" height="37" as="geometry" />
        </mxCell>
        <mxCell id="B1v1-cyqUUZS_gUo7Q4Y-58" value="" style="whiteSpace=wrap;html=1;aspect=fixed;fillColor=#000000;fillStyle=cross-hatch;" vertex="1" parent="1">
          <mxGeometry x="557" y="379.38" width="37" height="37" as="geometry" />
        </mxCell>
        <mxCell id="B1v1-cyqUUZS_gUo7Q4Y-59" value="" style="whiteSpace=wrap;html=1;aspect=fixed;fillColor=#000000;fillStyle=cross-hatch;" vertex="1" parent="1">
          <mxGeometry x="594" y="416.38" width="37" height="37" as="geometry" />
        </mxCell>
        <mxCell id="B1v1-cyqUUZS_gUo7Q4Y-60" value="" style="whiteSpace=wrap;html=1;aspect=fixed;fillColor=#000000;fillStyle=cross-hatch;" vertex="1" parent="1">
          <mxGeometry x="631" y="416.38" width="37" height="37" as="geometry" />
        </mxCell>
        <mxCell id="B1v1-cyqUUZS_gUo7Q4Y-61" value="" style="whiteSpace=wrap;html=1;aspect=fixed;fillColor=#000000;fillStyle=cross-hatch;" vertex="1" parent="1">
          <mxGeometry x="668" y="379.38" width="37" height="37" as="geometry" />
        </mxCell>
        <mxCell id="B1v1-cyqUUZS_gUo7Q4Y-122" style="rounded=0;orthogonalLoop=1;jettySize=auto;html=1;entryX=0;entryY=0.5;entryDx=0;entryDy=0;exitX=1;exitY=0;exitDx=0;exitDy=0;" edge="1" parent="1" source="B1v1-cyqUUZS_gUo7Q4Y-62" target="B1v1-cyqUUZS_gUo7Q4Y-74">
          <mxGeometry relative="1" as="geometry" />
        </mxCell>
        <mxCell id="B1v1-cyqUUZS_gUo7Q4Y-62" value="" style="whiteSpace=wrap;html=1;aspect=fixed;fillColor=#000000;fillStyle=cross-hatch;" vertex="1" parent="1">
          <mxGeometry x="705" y="416.38" width="37" height="37" as="geometry" />
        </mxCell>
        <mxCell id="B1v1-cyqUUZS_gUo7Q4Y-57" value="&lt;b&gt;&lt;font face=&quot;Verdana&quot;&gt;Embedding Matric&lt;/font&gt;&lt;/b&gt;&lt;div&gt;&lt;b&gt;&lt;font face=&quot;Verdana&quot;&gt;(one-hot)&lt;/font&gt;&lt;/b&gt;&lt;/div&gt;" style="text;html=1;align=center;verticalAlign=middle;whiteSpace=wrap;rounded=0;rotation=0;fillColor=#E6E6E6;" vertex="1" parent="1">
          <mxGeometry x="587" y="401" width="134" height="34" as="geometry" />
        </mxCell>
        <mxCell id="B1v1-cyqUUZS_gUo7Q4Y-73" value="&lt;b&gt;&lt;font style=&quot;font-size: 20px;&quot;&gt;X&lt;/font&gt;&lt;/b&gt;" style="ellipse;whiteSpace=wrap;html=1;aspect=fixed;" vertex="1" parent="1">
          <mxGeometry x="498.5" y="418" width="20" height="20" as="geometry" />
        </mxCell>
        <mxCell id="B1v1-cyqUUZS_gUo7Q4Y-74" value="&lt;b&gt;&lt;font style=&quot;font-size: 20px;&quot;&gt;X&lt;/font&gt;&lt;/b&gt;" style="ellipse;whiteSpace=wrap;html=1;aspect=fixed;" vertex="1" parent="1">
          <mxGeometry x="832" y="406" width="20" height="20" as="geometry" />
        </mxCell>
        <mxCell id="B1v1-cyqUUZS_gUo7Q4Y-75" value="" style="whiteSpace=wrap;html=1;aspect=fixed;fillColor=#B3B3B3;fillStyle=solid;" vertex="1" parent="1">
          <mxGeometry x="509.5" y="312" width="37" height="37" as="geometry" />
        </mxCell>
        <mxCell id="B1v1-cyqUUZS_gUo7Q4Y-76" value="" style="whiteSpace=wrap;html=1;aspect=fixed;fillColor=#B3B3B3;fillStyle=solid;" vertex="1" parent="1">
          <mxGeometry x="546.5" y="312" width="37" height="37" as="geometry" />
        </mxCell>
        <mxCell id="B1v1-cyqUUZS_gUo7Q4Y-78" value="" style="whiteSpace=wrap;html=1;aspect=fixed;fillColor=#B3B3B3;fillStyle=solid;" vertex="1" parent="1">
          <mxGeometry x="805.5" y="312" width="37" height="37" as="geometry" />
        </mxCell>
        <mxCell id="B1v1-cyqUUZS_gUo7Q4Y-79" value="" style="whiteSpace=wrap;html=1;aspect=fixed;fillColor=#B3B3B3;fillStyle=solid;" vertex="1" parent="1">
          <mxGeometry x="842.5" y="312" width="37" height="37" as="geometry" />
        </mxCell>
        <mxCell id="B1v1-cyqUUZS_gUo7Q4Y-81" value="" style="endArrow=classic;html=1;rounded=0;exitX=1;exitY=0;exitDx=0;exitDy=0;" edge="1" parent="1" source="B1v1-cyqUUZS_gUo7Q4Y-78">
          <mxGeometry width="50" height="50" relative="1" as="geometry">
            <mxPoint x="520" y="314" as="sourcePoint" />
            <mxPoint x="641" y="249" as="targetPoint" />
          </mxGeometry>
        </mxCell>
        <mxCell id="B1v1-cyqUUZS_gUo7Q4Y-84" value="&lt;font color=&quot;#808080&quot; style=&quot;font-size: 18px;&quot; face=&quot;Verdana&quot;&gt;&lt;i&gt;discrete features&lt;/i&gt;&lt;/font&gt;" style="text;html=1;align=center;verticalAlign=middle;whiteSpace=wrap;rounded=0;fontStyle=0;fillColor=none;" vertex="1" parent="1">
          <mxGeometry x="-67" y="512" width="157" height="26" as="geometry" />
        </mxCell>
        <mxCell id="B1v1-cyqUUZS_gUo7Q4Y-89" style="edgeStyle=orthogonalEdgeStyle;rounded=0;orthogonalLoop=1;jettySize=auto;html=1;entryX=0;entryY=1;entryDx=0;entryDy=0;" edge="1" parent="1" source="B1v1-cyqUUZS_gUo7Q4Y-88" target="3v-tV2K4t0TfQgvWX8gL-110">
          <mxGeometry relative="1" as="geometry" />
        </mxCell>
        <mxCell id="B1v1-cyqUUZS_gUo7Q4Y-88" value="&lt;b&gt;&lt;font style=&quot;font-size: 16px;&quot; face=&quot;Verdana&quot;&gt;Normalization, etc.&lt;/font&gt;&lt;/b&gt;" style="rounded=0;whiteSpace=wrap;html=1;" vertex="1" parent="1">
          <mxGeometry x="931" y="411" width="206" height="43" as="geometry" />
        </mxCell>
        <mxCell id="B1v1-cyqUUZS_gUo7Q4Y-90" value="" style="whiteSpace=wrap;html=1;aspect=fixed;fillColor=#B3B3B3;fillStyle=solid;" vertex="1" parent="1">
          <mxGeometry x="923" y="562" width="37" height="37" as="geometry" />
        </mxCell>
        <mxCell id="B1v1-cyqUUZS_gUo7Q4Y-91" value="" style="whiteSpace=wrap;html=1;aspect=fixed;fillColor=#B3B3B3;fillStyle=solid;" vertex="1" parent="1">
          <mxGeometry x="960" y="562" width="37" height="37" as="geometry" />
        </mxCell>
        <mxCell id="B1v1-cyqUUZS_gUo7Q4Y-96" style="edgeStyle=orthogonalEdgeStyle;rounded=0;orthogonalLoop=1;jettySize=auto;html=1;entryX=0.5;entryY=1;entryDx=0;entryDy=0;exitX=1;exitY=0;exitDx=0;exitDy=0;" edge="1" parent="1" source="B1v1-cyqUUZS_gUo7Q4Y-92" target="B1v1-cyqUUZS_gUo7Q4Y-88">
          <mxGeometry relative="1" as="geometry" />
        </mxCell>
        <mxCell id="B1v1-cyqUUZS_gUo7Q4Y-92" value="" style="whiteSpace=wrap;html=1;aspect=fixed;fillColor=#B3B3B3;fillStyle=solid;" vertex="1" parent="1">
          <mxGeometry x="997" y="562" width="37" height="37" as="geometry" />
        </mxCell>
        <mxCell id="B1v1-cyqUUZS_gUo7Q4Y-93" value="" style="whiteSpace=wrap;html=1;aspect=fixed;fillColor=#B3B3B3;fillStyle=solid;" vertex="1" parent="1">
          <mxGeometry x="1034" y="562" width="37" height="37" as="geometry" />
        </mxCell>
        <mxCell id="B1v1-cyqUUZS_gUo7Q4Y-94" value="" style="whiteSpace=wrap;html=1;aspect=fixed;fillColor=#B3B3B3;fillStyle=solid;" vertex="1" parent="1">
          <mxGeometry x="1071" y="562" width="37" height="37" as="geometry" />
        </mxCell>
        <mxCell id="B1v1-cyqUUZS_gUo7Q4Y-95" value="" style="whiteSpace=wrap;html=1;aspect=fixed;fillColor=#B3B3B3;fillStyle=solid;" vertex="1" parent="1">
          <mxGeometry x="1108" y="562" width="37" height="37" as="geometry" />
        </mxCell>
        <mxCell id="B1v1-cyqUUZS_gUo7Q4Y-97" value="&lt;font color=&quot;#808080&quot; style=&quot;font-size: 18px;&quot; face=&quot;Verdana&quot;&gt;&lt;i&gt;continuous features&lt;/i&gt;&lt;/font&gt;" style="text;html=1;align=center;verticalAlign=middle;whiteSpace=wrap;rounded=0;fontStyle=0;fillColor=none;" vertex="1" parent="1">
          <mxGeometry x="914" y="507" width="186" height="26" as="geometry" />
        </mxCell>
        <mxCell id="B1v1-cyqUUZS_gUo7Q4Y-99" value="" style="whiteSpace=wrap;html=1;aspect=fixed;fillColor=#B3B3B3;fillStyle=solid;" vertex="1" parent="1">
          <mxGeometry x="723.5" y="174" width="37" height="37" as="geometry" />
        </mxCell>
        <mxCell id="B1v1-cyqUUZS_gUo7Q4Y-100" value="" style="whiteSpace=wrap;html=1;aspect=fixed;fillColor=#B3B3B3;fillStyle=solid;" vertex="1" parent="1">
          <mxGeometry x="760.5" y="174" width="37" height="37" as="geometry" />
        </mxCell>
        <mxCell id="B1v1-cyqUUZS_gUo7Q4Y-101" value="" style="whiteSpace=wrap;html=1;aspect=fixed;fillColor=#B3B3B3;fillStyle=solid;" vertex="1" parent="1">
          <mxGeometry x="797.5" y="174" width="37" height="37" as="geometry" />
        </mxCell>
        <mxCell id="B1v1-cyqUUZS_gUo7Q4Y-102" value="" style="whiteSpace=wrap;html=1;aspect=fixed;fillColor=#B3B3B3;fillStyle=solid;" vertex="1" parent="1">
          <mxGeometry x="834.5" y="174" width="37" height="37" as="geometry" />
        </mxCell>
        <mxCell id="B1v1-cyqUUZS_gUo7Q4Y-103" value="" style="whiteSpace=wrap;html=1;aspect=fixed;fillColor=#B3B3B3;fillStyle=solid;" vertex="1" parent="1">
          <mxGeometry x="871.5" y="174" width="37" height="37" as="geometry" />
        </mxCell>
        <mxCell id="B1v1-cyqUUZS_gUo7Q4Y-104" value="" style="endArrow=classic;html=1;rounded=0;strokeColor=#CC0000;strokeWidth=4;exitX=1;exitY=0.5;exitDx=0;exitDy=0;entryX=0;entryY=0.5;entryDx=0;entryDy=0;" edge="1" parent="1" source="B1v1-cyqUUZS_gUo7Q4Y-105" target="3v-tV2K4t0TfQgvWX8gL-91">
          <mxGeometry width="50" height="50" relative="1" as="geometry">
            <mxPoint x="108" y="271" as="sourcePoint" />
            <mxPoint x="142" y="275" as="targetPoint" />
          </mxGeometry>
        </mxCell>
        <mxCell id="B1v1-cyqUUZS_gUo7Q4Y-105" value="&lt;font color=&quot;#cc0000&quot; face=&quot;Verdana&quot; style=&quot;font-size: 13px;&quot;&gt;embedding of user_id of user i&lt;/font&gt;" style="text;html=1;align=center;verticalAlign=middle;whiteSpace=wrap;rounded=0;fontStyle=1;fillColor=none;" vertex="1" parent="1">
          <mxGeometry x="-64" y="314" width="131" height="33" as="geometry" />
        </mxCell>
        <mxCell id="B1v1-cyqUUZS_gUo7Q4Y-106" value="&lt;font color=&quot;#cc0000&quot; face=&quot;Verdana&quot; style=&quot;font-size: 13px;&quot;&gt;embedding of feature_1 of user i&lt;/font&gt;" style="text;html=1;align=center;verticalAlign=middle;whiteSpace=wrap;rounded=0;fontStyle=1;fillColor=default;" vertex="1" parent="1">
          <mxGeometry x="257" y="314" width="143" height="33" as="geometry" />
        </mxCell>
        <mxCell id="B1v1-cyqUUZS_gUo7Q4Y-109" value="&lt;font color=&quot;#cc0000&quot; face=&quot;Verdana&quot; style=&quot;font-size: 13px;&quot;&gt;embedding of feature_3 of user i&lt;/font&gt;" style="text;html=1;align=center;verticalAlign=middle;whiteSpace=wrap;rounded=0;fontStyle=1;fillColor=default;" vertex="1" parent="1">
          <mxGeometry x="1006" y="220" width="149" height="48" as="geometry" />
        </mxCell>
        <mxCell id="B1v1-cyqUUZS_gUo7Q4Y-115" value="" style="endArrow=classic;html=1;rounded=0;strokeColor=#CC0000;strokeWidth=4;exitX=1;exitY=0.5;exitDx=0;exitDy=0;entryX=0;entryY=0.5;entryDx=0;entryDy=0;" edge="1" parent="1" source="B1v1-cyqUUZS_gUo7Q4Y-106" target="3v-tV2K4t0TfQgvWX8gL-94">
          <mxGeometry width="50" height="50" relative="1" as="geometry">
            <mxPoint x="426" y="271" as="sourcePoint" />
            <mxPoint x="435" y="332" as="targetPoint" />
          </mxGeometry>
        </mxCell>
        <mxCell id="B1v1-cyqUUZS_gUo7Q4Y-116" value="&lt;font color=&quot;#cc0000&quot; face=&quot;Verdana&quot; style=&quot;font-size: 13px;&quot;&gt;embedding of feature_2 of user i&lt;/font&gt;" style="text;html=1;align=center;verticalAlign=middle;whiteSpace=wrap;rounded=0;fontStyle=1;fillColor=default;" vertex="1" parent="1">
          <mxGeometry x="629" y="314" width="145" height="33" as="geometry" />
        </mxCell>
        <mxCell id="B1v1-cyqUUZS_gUo7Q4Y-117" value="" style="endArrow=classic;html=1;rounded=0;strokeColor=#CC0000;strokeWidth=4;exitX=1;exitY=0.5;exitDx=0;exitDy=0;entryX=0;entryY=0.5;entryDx=0;entryDy=0;" edge="1" parent="1" source="B1v1-cyqUUZS_gUo7Q4Y-116" target="B1v1-cyqUUZS_gUo7Q4Y-78">
          <mxGeometry width="50" height="50" relative="1" as="geometry">
            <mxPoint x="428" y="340" as="sourcePoint" />
            <mxPoint x="483" y="341" as="targetPoint" />
          </mxGeometry>
        </mxCell>
        <mxCell id="B1v1-cyqUUZS_gUo7Q4Y-128" value="" style="endArrow=classic;html=1;rounded=0;strokeColor=#CC0000;strokeWidth=4;exitX=0.5;exitY=1;exitDx=0;exitDy=0;entryX=0;entryY=0;entryDx=0;entryDy=0;" edge="1" parent="1" source="B1v1-cyqUUZS_gUo7Q4Y-109" target="3v-tV2K4t0TfQgvWX8gL-110">
          <mxGeometry width="50" height="50" relative="1" as="geometry">
            <mxPoint x="784" y="341" as="sourcePoint" />
            <mxPoint x="816" y="341" as="targetPoint" />
          </mxGeometry>
        </mxCell>
        <mxCell id="B1v1-cyqUUZS_gUo7Q4Y-129" value="&lt;font color=&quot;#cc0000&quot; face=&quot;Verdana&quot; style=&quot;font-size: 13px;&quot;&gt;representation of user i&lt;/font&gt;" style="text;html=1;align=center;verticalAlign=middle;whiteSpace=wrap;rounded=0;fontStyle=1;fillColor=none;" vertex="1" parent="1">
          <mxGeometry x="538.5" y="-14" width="183" height="16" as="geometry" />
        </mxCell>
        <mxCell id="B1v1-cyqUUZS_gUo7Q4Y-132" value="&lt;div style=&quot;font-size: 22px;&quot;&gt;$$W_{u3}$$&lt;/div&gt;" style="text;html=1;align=center;verticalAlign=middle;whiteSpace=wrap;rounded=0;fontSize=22;" vertex="1" parent="1">
          <mxGeometry x="580" y="454.75" width="139" height="30.25" as="geometry" />
        </mxCell>
        <mxCell id="B1v1-cyqUUZS_gUo7Q4Y-134" value="" style="group" vertex="1" connectable="0" parent="1">
          <mxGeometry x="248" y="407" width="178.5" height="45.25" as="geometry" />
        </mxCell>
        <mxCell id="3v-tV2K4t0TfQgvWX8gL-89" value="&lt;div style=&quot;&quot;&gt;&lt;font style=&quot;font-size: 22px;&quot;&gt;$$W_{u2}$$&lt;/font&gt;&lt;/div&gt;" style="text;html=1;align=center;verticalAlign=middle;whiteSpace=wrap;rounded=0;fontSize=16;fillColor=#E6E6E6;" parent="B1v1-cyqUUZS_gUo7Q4Y-134" vertex="1">
          <mxGeometry y="13.25" width="178.5" height="32" as="geometry" />
        </mxCell>
        <mxCell id="B1v1-cyqUUZS_gUo7Q4Y-36" value="&lt;b&gt;&lt;font face=&quot;Verdana&quot;&gt;Embedding Matric&lt;/font&gt;&lt;/b&gt;" style="text;html=1;align=center;verticalAlign=middle;whiteSpace=wrap;rounded=0;rotation=0;fillColor=#E6E6E6;" vertex="1" parent="B1v1-cyqUUZS_gUo7Q4Y-134">
          <mxGeometry x="24.5" width="134" height="17" as="geometry" />
        </mxCell>
        <mxCell id="B1v1-cyqUUZS_gUo7Q4Y-135" value="" style="group" vertex="1" connectable="0" parent="1">
          <mxGeometry x="-39" y="406" width="134" height="66" as="geometry" />
        </mxCell>
        <mxCell id="3v-tV2K4t0TfQgvWX8gL-77" value="&lt;b&gt;&lt;font face=&quot;Verdana&quot;&gt;Embedding Matric&lt;/font&gt;&lt;/b&gt;" style="text;html=1;align=center;verticalAlign=middle;whiteSpace=wrap;rounded=0;rotation=0;fillColor=#E6E6E6;" parent="B1v1-cyqUUZS_gUo7Q4Y-135" vertex="1">
          <mxGeometry width="134" height="17" as="geometry" />
        </mxCell>
        <mxCell id="3v-tV2K4t0TfQgvWX8gL-87" value="&lt;div style=&quot;font-size: 22px;&quot;&gt;$$W_{u1}$$&lt;/div&gt;" style="text;html=1;align=center;verticalAlign=middle;whiteSpace=wrap;rounded=0;fontSize=22;fillColor=#E6E6E6;" parent="B1v1-cyqUUZS_gUo7Q4Y-135" vertex="1">
          <mxGeometry x="30" y="16" width="80" height="33" as="geometry" />
        </mxCell>
        <mxCell id="B1v1-cyqUUZS_gUo7Q4Y-138" value="&lt;div style=&quot;font-size: 22px;&quot;&gt;$$u^{(i)}$$&lt;/div&gt;" style="text;html=1;align=center;verticalAlign=middle;whiteSpace=wrap;rounded=0;fontSize=22;" vertex="1" parent="1">
          <mxGeometry x="742" y="14.75" width="32" height="19.5" as="geometry" />
        </mxCell>
        <mxCell id="B1v1-cyqUUZS_gUo7Q4Y-147" style="edgeStyle=orthogonalEdgeStyle;rounded=0;orthogonalLoop=1;jettySize=auto;html=1;entryX=0.5;entryY=1;entryDx=0;entryDy=0;" edge="1" parent="1" source="B1v1-cyqUUZS_gUo7Q4Y-139" target="B1v1-cyqUUZS_gUo7Q4Y-140">
          <mxGeometry relative="1" as="geometry" />
        </mxCell>
        <mxCell id="B1v1-cyqUUZS_gUo7Q4Y-139" value="&lt;font style=&quot;font-size: 22px;&quot;&gt;&lt;b&gt;Feature Transformation&lt;/b&gt;&lt;/font&gt;" style="rounded=0;whiteSpace=wrap;html=1;fillStyle=hatch;fillColor=#3333FF;" vertex="1" parent="1">
          <mxGeometry x="-71" y="-272" width="183.5" height="60" as="geometry" />
        </mxCell>
        <mxCell id="B1v1-cyqUUZS_gUo7Q4Y-180" style="edgeStyle=orthogonalEdgeStyle;rounded=0;orthogonalLoop=1;jettySize=auto;html=1;entryX=0.5;entryY=1;entryDx=0;entryDy=0;" edge="1" parent="1" source="B1v1-cyqUUZS_gUo7Q4Y-140" target="B1v1-cyqUUZS_gUo7Q4Y-161">
          <mxGeometry relative="1" as="geometry" />
        </mxCell>
        <mxCell id="B1v1-cyqUUZS_gUo7Q4Y-140" value="&lt;font style=&quot;font-size: 22px;&quot;&gt;&lt;b&gt;Neural Network&lt;/b&gt;&lt;/font&gt;" style="rounded=0;whiteSpace=wrap;html=1;fillStyle=hatch;fillColor=#3333FF;" vertex="1" parent="1">
          <mxGeometry x="-71" y="-359" width="183.5" height="60" as="geometry" />
        </mxCell>
        <mxCell id="B1v1-cyqUUZS_gUo7Q4Y-141" value="&lt;font style=&quot;font-size: 19px;&quot;&gt;User ID&lt;/font&gt;" style="rounded=0;whiteSpace=wrap;html=1;fontSize=19;fontStyle=1" vertex="1" parent="1">
          <mxGeometry x="-146.25" y="-162" width="97" height="57" as="geometry" />
        </mxCell>
        <mxCell id="B1v1-cyqUUZS_gUo7Q4Y-143" value="&lt;span style=&quot;font-size: 19px;&quot;&gt;Discreate Features&lt;/span&gt;" style="rounded=0;whiteSpace=wrap;html=1;fontSize=19;fontStyle=1" vertex="1" parent="1">
          <mxGeometry x="-37.5" y="-162" width="97" height="57" as="geometry" />
        </mxCell>
        <mxCell id="B1v1-cyqUUZS_gUo7Q4Y-145" value="&lt;font style=&quot;font-size: 19px;&quot;&gt;Continuous Features&lt;/font&gt;" style="rounded=0;whiteSpace=wrap;html=1;fontSize=19;fontStyle=1" vertex="1" parent="1">
          <mxGeometry x="71.75" y="-162" width="116" height="57" as="geometry" />
        </mxCell>
        <mxCell id="B1v1-cyqUUZS_gUo7Q4Y-149" style="edgeStyle=orthogonalEdgeStyle;rounded=0;orthogonalLoop=1;jettySize=auto;html=1;entryX=0.5;entryY=1;entryDx=0;entryDy=0;" edge="1" parent="1" source="B1v1-cyqUUZS_gUo7Q4Y-148" target="B1v1-cyqUUZS_gUo7Q4Y-139">
          <mxGeometry relative="1" as="geometry" />
        </mxCell>
        <mxCell id="B1v1-cyqUUZS_gUo7Q4Y-148" value="" style="shape=curlyBracket;whiteSpace=wrap;html=1;rounded=1;labelPosition=left;verticalLabelPosition=middle;align=right;verticalAlign=middle;rotation=90;" vertex="1" parent="1">
          <mxGeometry x="10.25" y="-344" width="20" height="334" as="geometry" />
        </mxCell>
        <mxCell id="B1v1-cyqUUZS_gUo7Q4Y-156" value="" style="whiteSpace=wrap;html=1;aspect=fixed;fillColor=#CCE5FF;fillStyle=solid;" vertex="1" parent="1">
          <mxGeometry x="-72.5" y="-443" width="37" height="37" as="geometry" />
        </mxCell>
        <mxCell id="B1v1-cyqUUZS_gUo7Q4Y-157" value="" style="whiteSpace=wrap;html=1;aspect=fixed;fillColor=#CCE5FF;fillStyle=solid;" vertex="1" parent="1">
          <mxGeometry x="-35.5" y="-443" width="37" height="37" as="geometry" />
        </mxCell>
        <mxCell id="B1v1-cyqUUZS_gUo7Q4Y-158" value="" style="whiteSpace=wrap;html=1;aspect=fixed;fillColor=#CCE5FF;fillStyle=solid;" vertex="1" parent="1">
          <mxGeometry x="1.5" y="-443" width="37" height="37" as="geometry" />
        </mxCell>
        <mxCell id="B1v1-cyqUUZS_gUo7Q4Y-159" value="" style="whiteSpace=wrap;html=1;aspect=fixed;fillColor=#CCE5FF;fillStyle=solid;" vertex="1" parent="1">
          <mxGeometry x="38.5" y="-443" width="37" height="37" as="geometry" />
        </mxCell>
        <mxCell id="B1v1-cyqUUZS_gUo7Q4Y-160" value="" style="whiteSpace=wrap;html=1;aspect=fixed;fillColor=#CCE5FF;fillStyle=solid;" vertex="1" parent="1">
          <mxGeometry x="75.5" y="-443" width="37" height="37" as="geometry" />
        </mxCell>
        <mxCell id="B1v1-cyqUUZS_gUo7Q4Y-161" value="&lt;font style=&quot;font-size: 13px;&quot; face=&quot;Verdana&quot;&gt;representation of user i&lt;/font&gt;" style="text;html=1;align=center;verticalAlign=middle;whiteSpace=wrap;rounded=0;fontStyle=1;fillColor=none;fontColor=#3333FF;" vertex="1" parent="1">
          <mxGeometry x="-70.5" y="-407" width="183" height="19" as="geometry" />
        </mxCell>
        <mxCell id="B1v1-cyqUUZS_gUo7Q4Y-162" value="&lt;div style=&quot;font-size: 22px;&quot;&gt;$$u^{(k)}$$&lt;/div&gt;" style="text;html=1;align=center;verticalAlign=middle;whiteSpace=wrap;rounded=0;fontSize=22;" vertex="1" parent="1">
          <mxGeometry x="-116.25" y="-434.25" width="32" height="19.5" as="geometry" />
        </mxCell>
        <mxCell id="B1v1-cyqUUZS_gUo7Q4Y-181" style="edgeStyle=orthogonalEdgeStyle;rounded=0;orthogonalLoop=1;jettySize=auto;html=1;entryX=0.5;entryY=1;entryDx=0;entryDy=0;" edge="1" source="B1v1-cyqUUZS_gUo7Q4Y-182" target="B1v1-cyqUUZS_gUo7Q4Y-184" parent="1">
          <mxGeometry relative="1" as="geometry" />
        </mxCell>
        <mxCell id="B1v1-cyqUUZS_gUo7Q4Y-182" value="&lt;font style=&quot;font-size: 22px;&quot;&gt;&lt;b&gt;Feature Transformation&lt;/b&gt;&lt;/font&gt;" style="rounded=0;whiteSpace=wrap;html=1;fillStyle=hatch;fillColor=#FF3333;" vertex="1" parent="1">
          <mxGeometry x="296.25" y="-272" width="183.5" height="60" as="geometry" />
        </mxCell>
        <mxCell id="B1v1-cyqUUZS_gUo7Q4Y-183" style="edgeStyle=orthogonalEdgeStyle;rounded=0;orthogonalLoop=1;jettySize=auto;html=1;entryX=0.5;entryY=1;entryDx=0;entryDy=0;" edge="1" source="B1v1-cyqUUZS_gUo7Q4Y-184" target="B1v1-cyqUUZS_gUo7Q4Y-195" parent="1">
          <mxGeometry relative="1" as="geometry" />
        </mxCell>
        <mxCell id="B1v1-cyqUUZS_gUo7Q4Y-184" value="&lt;font style=&quot;font-size: 22px;&quot;&gt;&lt;b&gt;Neural Network&lt;/b&gt;&lt;/font&gt;" style="rounded=0;whiteSpace=wrap;html=1;fillStyle=hatch;fillColor=#FF3333;" vertex="1" parent="1">
          <mxGeometry x="296.25" y="-359" width="183.5" height="60" as="geometry" />
        </mxCell>
        <mxCell id="B1v1-cyqUUZS_gUo7Q4Y-185" value="&lt;font style=&quot;font-size: 19px;&quot;&gt;Item ID&lt;/font&gt;" style="rounded=0;whiteSpace=wrap;html=1;fontSize=19;fontStyle=1" vertex="1" parent="1">
          <mxGeometry x="221" y="-162" width="97" height="57" as="geometry" />
        </mxCell>
        <mxCell id="B1v1-cyqUUZS_gUo7Q4Y-186" value="&lt;span style=&quot;font-size: 19px;&quot;&gt;Discreate Features&lt;/span&gt;" style="rounded=0;whiteSpace=wrap;html=1;fontSize=19;fontStyle=1" vertex="1" parent="1">
          <mxGeometry x="329.75" y="-162" width="97" height="57" as="geometry" />
        </mxCell>
        <mxCell id="B1v1-cyqUUZS_gUo7Q4Y-187" value="&lt;font style=&quot;font-size: 19px;&quot;&gt;Continuous Features&lt;/font&gt;" style="rounded=0;whiteSpace=wrap;html=1;fontSize=19;fontStyle=1" vertex="1" parent="1">
          <mxGeometry x="439" y="-162" width="116" height="57" as="geometry" />
        </mxCell>
        <mxCell id="B1v1-cyqUUZS_gUo7Q4Y-188" style="edgeStyle=orthogonalEdgeStyle;rounded=0;orthogonalLoop=1;jettySize=auto;html=1;entryX=0.5;entryY=1;entryDx=0;entryDy=0;" edge="1" source="B1v1-cyqUUZS_gUo7Q4Y-189" target="B1v1-cyqUUZS_gUo7Q4Y-182" parent="1">
          <mxGeometry relative="1" as="geometry" />
        </mxCell>
        <mxCell id="B1v1-cyqUUZS_gUo7Q4Y-189" value="" style="shape=curlyBracket;whiteSpace=wrap;html=1;rounded=1;labelPosition=left;verticalLabelPosition=middle;align=right;verticalAlign=middle;rotation=90;" vertex="1" parent="1">
          <mxGeometry x="377.5" y="-344" width="20" height="334" as="geometry" />
        </mxCell>
        <mxCell id="B1v1-cyqUUZS_gUo7Q4Y-190" value="" style="whiteSpace=wrap;html=1;aspect=fixed;fillColor=#FFCCCC;fillStyle=solid;" vertex="1" parent="1">
          <mxGeometry x="294.75" y="-443" width="37" height="37" as="geometry" />
        </mxCell>
        <mxCell id="B1v1-cyqUUZS_gUo7Q4Y-191" value="" style="whiteSpace=wrap;html=1;aspect=fixed;fillColor=#FFCCCC;fillStyle=solid;" vertex="1" parent="1">
          <mxGeometry x="331.75" y="-443" width="37" height="37" as="geometry" />
        </mxCell>
        <mxCell id="B1v1-cyqUUZS_gUo7Q4Y-192" value="" style="whiteSpace=wrap;html=1;aspect=fixed;fillColor=#FFCCCC;fillStyle=solid;" vertex="1" parent="1">
          <mxGeometry x="368.75" y="-443" width="37" height="37" as="geometry" />
        </mxCell>
        <mxCell id="B1v1-cyqUUZS_gUo7Q4Y-193" value="" style="whiteSpace=wrap;html=1;aspect=fixed;fillColor=#FFCCCC;fillStyle=solid;" vertex="1" parent="1">
          <mxGeometry x="405.75" y="-443" width="37" height="37" as="geometry" />
        </mxCell>
        <mxCell id="B1v1-cyqUUZS_gUo7Q4Y-194" value="" style="whiteSpace=wrap;html=1;aspect=fixed;fillColor=#FFCCCC;fillStyle=solid;" vertex="1" parent="1">
          <mxGeometry x="442.75" y="-443" width="37" height="37" as="geometry" />
        </mxCell>
        <mxCell id="B1v1-cyqUUZS_gUo7Q4Y-195" value="&lt;font color=&quot;#cc0000&quot; face=&quot;Verdana&quot; style=&quot;font-size: 13px;&quot;&gt;representation of item j&lt;/font&gt;" style="text;html=1;align=center;verticalAlign=middle;whiteSpace=wrap;rounded=0;fontStyle=1;fillColor=none;" vertex="1" parent="1">
          <mxGeometry x="296.75" y="-407" width="183" height="19" as="geometry" />
        </mxCell>
        <mxCell id="B1v1-cyqUUZS_gUo7Q4Y-196" value="&lt;div style=&quot;font-size: 22px;&quot;&gt;$$i^{(j)}$$&lt;/div&gt;" style="text;html=1;align=center;verticalAlign=middle;whiteSpace=wrap;rounded=0;fontSize=22;" vertex="1" parent="1">
          <mxGeometry x="251" y="-434.25" width="32" height="19.5" as="geometry" />
        </mxCell>
        <mxCell id="B1v1-cyqUUZS_gUo7Q4Y-201" style="edgeStyle=orthogonalEdgeStyle;rounded=0;orthogonalLoop=1;jettySize=auto;html=1;entryX=0.5;entryY=1;entryDx=0;entryDy=0;" edge="1" parent="1" source="B1v1-cyqUUZS_gUo7Q4Y-197" target="B1v1-cyqUUZS_gUo7Q4Y-200">
          <mxGeometry relative="1" as="geometry" />
        </mxCell>
        <mxCell id="B1v1-cyqUUZS_gUo7Q4Y-197" value="&lt;font face=&quot;Verdana&quot;&gt;&lt;span style=&quot;font-size: 16px;&quot;&gt;&lt;b&gt;cosine similarity&lt;/b&gt;&lt;/span&gt;&lt;/font&gt;" style="rounded=0;whiteSpace=wrap;html=1;fillColor=#666666;fillStyle=hatch;" vertex="1" parent="1">
          <mxGeometry x="99" y="-530" width="206" height="32" as="geometry" />
        </mxCell>
        <mxCell id="B1v1-cyqUUZS_gUo7Q4Y-198" style="edgeStyle=orthogonalEdgeStyle;rounded=0;orthogonalLoop=1;jettySize=auto;html=1;exitX=0.5;exitY=0;exitDx=0;exitDy=0;" edge="1" parent="1" source="B1v1-cyqUUZS_gUo7Q4Y-158" target="B1v1-cyqUUZS_gUo7Q4Y-197">
          <mxGeometry relative="1" as="geometry">
            <mxPoint x="31" y="-349" as="sourcePoint" />
            <mxPoint x="31" y="-378" as="targetPoint" />
          </mxGeometry>
        </mxCell>
        <mxCell id="B1v1-cyqUUZS_gUo7Q4Y-199" style="edgeStyle=orthogonalEdgeStyle;rounded=0;orthogonalLoop=1;jettySize=auto;html=1;exitX=0.5;exitY=0;exitDx=0;exitDy=0;entryX=0.5;entryY=1;entryDx=0;entryDy=0;" edge="1" parent="1" source="B1v1-cyqUUZS_gUo7Q4Y-192" target="B1v1-cyqUUZS_gUo7Q4Y-197">
          <mxGeometry relative="1" as="geometry">
            <mxPoint x="30" y="-433" as="sourcePoint" />
            <mxPoint x="212" y="-501" as="targetPoint" />
          </mxGeometry>
        </mxCell>
        <mxCell id="B1v1-cyqUUZS_gUo7Q4Y-200" value="&lt;div style=&quot;font-size: 22px;&quot;&gt;$$cos[u^{(k)}, i^{(j)}] = \frac{\langle a,b \rangle}{\Vert u^{(k)} \Vert \cdot \Vert i^{(j)} \Vert}$$&lt;/div&gt;" style="text;html=1;align=center;verticalAlign=middle;whiteSpace=wrap;rounded=0;fontSize=22;" vertex="1" parent="1">
          <mxGeometry x="42.38" y="-639" width="319.25" height="80" as="geometry" />
        </mxCell>
        <mxCell id="B1v1-cyqUUZS_gUo7Q4Y-204" value="&lt;font style=&quot;font-size: 22px;&quot; face=&quot;Verdana&quot;&gt;User Tower&lt;/font&gt;" style="text;html=1;align=center;verticalAlign=middle;whiteSpace=wrap;rounded=0;fontStyle=1;fillColor=none;fontColor=#3333FF;" vertex="1" parent="1">
          <mxGeometry x="-202" y="-310" width="106" height="51" as="geometry" />
        </mxCell>
        <mxCell id="B1v1-cyqUUZS_gUo7Q4Y-205" value="&lt;font face=&quot;Verdana&quot; style=&quot;font-size: 22px;&quot;&gt;Item Tower&lt;/font&gt;" style="text;html=1;align=center;verticalAlign=middle;whiteSpace=wrap;rounded=0;fontStyle=1;fillColor=none;fontColor=#FF3333;" vertex="1" parent="1">
          <mxGeometry x="183.5" y="-310" width="89" height="51" as="geometry" />
        </mxCell>
        <mxCell id="B1v1-cyqUUZS_gUo7Q4Y-206" value="" style="rounded=1;whiteSpace=wrap;html=1;arcSize=4;dashed=1;strokeColor=#FF3333;" vertex="1" parent="1">
          <mxGeometry x="1220" y="-373" width="210" height="177" as="geometry" />
        </mxCell>
        <mxCell id="B1v1-cyqUUZS_gUo7Q4Y-207" value="" style="rounded=1;whiteSpace=wrap;html=1;arcSize=4;dashed=1;strokeColor=#3333FF;" vertex="1" parent="1">
          <mxGeometry x="853" y="-373" width="210" height="177" as="geometry" />
        </mxCell>
        <mxCell id="B1v1-cyqUUZS_gUo7Q4Y-208" style="edgeStyle=orthogonalEdgeStyle;rounded=0;orthogonalLoop=1;jettySize=auto;html=1;entryX=0.5;entryY=1;entryDx=0;entryDy=0;" edge="1" source="B1v1-cyqUUZS_gUo7Q4Y-209" target="B1v1-cyqUUZS_gUo7Q4Y-211" parent="1">
          <mxGeometry relative="1" as="geometry" />
        </mxCell>
        <mxCell id="B1v1-cyqUUZS_gUo7Q4Y-209" value="&lt;font style=&quot;font-size: 22px;&quot;&gt;&lt;b&gt;Feature Transformation&lt;/b&gt;&lt;/font&gt;" style="rounded=0;whiteSpace=wrap;html=1;fillStyle=hatch;fillColor=#3333FF;" vertex="1" parent="1">
          <mxGeometry x="866" y="-272" width="183.5" height="60" as="geometry" />
        </mxCell>
        <mxCell id="B1v1-cyqUUZS_gUo7Q4Y-210" style="edgeStyle=orthogonalEdgeStyle;rounded=0;orthogonalLoop=1;jettySize=auto;html=1;entryX=0.5;entryY=1;entryDx=0;entryDy=0;" edge="1" source="B1v1-cyqUUZS_gUo7Q4Y-211" target="B1v1-cyqUUZS_gUo7Q4Y-218" parent="1">
          <mxGeometry relative="1" as="geometry" />
        </mxCell>
        <mxCell id="B1v1-cyqUUZS_gUo7Q4Y-300" style="edgeStyle=orthogonalEdgeStyle;rounded=0;orthogonalLoop=1;jettySize=auto;html=1;entryX=0;entryY=0.5;entryDx=0;entryDy=0;exitX=0;exitY=0.75;exitDx=0;exitDy=0;dashed=1;" edge="1" parent="1" source="B1v1-cyqUUZS_gUo7Q4Y-211" target="B1v1-cyqUUZS_gUo7Q4Y-209">
          <mxGeometry relative="1" as="geometry">
            <Array as="points">
              <mxPoint x="845" y="-314" />
              <mxPoint x="845" y="-242" />
            </Array>
          </mxGeometry>
        </mxCell>
        <mxCell id="B1v1-cyqUUZS_gUo7Q4Y-211" value="&lt;font style=&quot;font-size: 22px;&quot;&gt;&lt;b&gt;Neural Network&lt;/b&gt;&lt;/font&gt;" style="rounded=0;whiteSpace=wrap;html=1;fillStyle=hatch;fillColor=#3333FF;" vertex="1" parent="1">
          <mxGeometry x="866" y="-359" width="183.5" height="60" as="geometry" />
        </mxCell>
        <mxCell id="B1v1-cyqUUZS_gUo7Q4Y-212" style="edgeStyle=orthogonalEdgeStyle;rounded=0;orthogonalLoop=1;jettySize=auto;html=1;entryX=0.5;entryY=1;entryDx=0;entryDy=0;" edge="1" target="B1v1-cyqUUZS_gUo7Q4Y-209" parent="1" source="B1v1-cyqUUZS_gUo7Q4Y-239">
          <mxGeometry relative="1" as="geometry">
            <mxPoint x="957" y="-187" as="sourcePoint" />
          </mxGeometry>
        </mxCell>
        <mxCell id="B1v1-cyqUUZS_gUo7Q4Y-213" value="" style="whiteSpace=wrap;html=1;aspect=fixed;fillColor=#CCE5FF;fillStyle=solid;" vertex="1" parent="1">
          <mxGeometry x="864.5" y="-443" width="37" height="37" as="geometry" />
        </mxCell>
        <mxCell id="B1v1-cyqUUZS_gUo7Q4Y-214" value="" style="whiteSpace=wrap;html=1;aspect=fixed;fillColor=#CCE5FF;fillStyle=solid;" vertex="1" parent="1">
          <mxGeometry x="901.5" y="-443" width="37" height="37" as="geometry" />
        </mxCell>
        <mxCell id="B1v1-cyqUUZS_gUo7Q4Y-215" value="" style="whiteSpace=wrap;html=1;aspect=fixed;fillColor=#CCE5FF;fillStyle=solid;" vertex="1" parent="1">
          <mxGeometry x="938.5" y="-443" width="37" height="37" as="geometry" />
        </mxCell>
        <mxCell id="B1v1-cyqUUZS_gUo7Q4Y-216" value="" style="whiteSpace=wrap;html=1;aspect=fixed;fillColor=#CCE5FF;fillStyle=solid;" vertex="1" parent="1">
          <mxGeometry x="975.5" y="-443" width="37" height="37" as="geometry" />
        </mxCell>
        <mxCell id="B1v1-cyqUUZS_gUo7Q4Y-217" value="" style="whiteSpace=wrap;html=1;aspect=fixed;fillColor=#CCE5FF;fillStyle=solid;" vertex="1" parent="1">
          <mxGeometry x="1012.5" y="-443" width="37" height="37" as="geometry" />
        </mxCell>
        <mxCell id="B1v1-cyqUUZS_gUo7Q4Y-218" value="&lt;font style=&quot;font-size: 13px;&quot; face=&quot;Verdana&quot;&gt;representation of user i&lt;/font&gt;" style="text;html=1;align=center;verticalAlign=middle;whiteSpace=wrap;rounded=0;fontStyle=1;fillColor=none;fontColor=#3333FF;" vertex="1" parent="1">
          <mxGeometry x="866.5" y="-407" width="183" height="19" as="geometry" />
        </mxCell>
        <mxCell id="B1v1-cyqUUZS_gUo7Q4Y-219" value="&lt;div style=&quot;font-size: 22px;&quot;&gt;$$u^{(k)}$$&lt;/div&gt;" style="text;html=1;align=center;verticalAlign=middle;whiteSpace=wrap;rounded=0;fontSize=22;" vertex="1" parent="1">
          <mxGeometry x="1062" y="-434.25" width="32" height="19.5" as="geometry" />
        </mxCell>
        <mxCell id="B1v1-cyqUUZS_gUo7Q4Y-220" style="edgeStyle=orthogonalEdgeStyle;rounded=0;orthogonalLoop=1;jettySize=auto;html=1;entryX=0.5;entryY=1;entryDx=0;entryDy=0;" edge="1" source="B1v1-cyqUUZS_gUo7Q4Y-221" target="B1v1-cyqUUZS_gUo7Q4Y-223" parent="1">
          <mxGeometry relative="1" as="geometry" />
        </mxCell>
        <mxCell id="B1v1-cyqUUZS_gUo7Q4Y-221" value="&lt;font style=&quot;font-size: 22px;&quot;&gt;&lt;b&gt;Feature Transformation&lt;/b&gt;&lt;/font&gt;" style="rounded=0;whiteSpace=wrap;html=1;fillStyle=hatch;fillColor=#FF3333;" vertex="1" parent="1">
          <mxGeometry x="1233.25" y="-272" width="183.5" height="60" as="geometry" />
        </mxCell>
        <mxCell id="B1v1-cyqUUZS_gUo7Q4Y-222" style="edgeStyle=orthogonalEdgeStyle;rounded=0;orthogonalLoop=1;jettySize=auto;html=1;entryX=0.5;entryY=1;entryDx=0;entryDy=0;" edge="1" source="B1v1-cyqUUZS_gUo7Q4Y-223" target="B1v1-cyqUUZS_gUo7Q4Y-230" parent="1">
          <mxGeometry relative="1" as="geometry" />
        </mxCell>
        <mxCell id="B1v1-cyqUUZS_gUo7Q4Y-302" style="edgeStyle=orthogonalEdgeStyle;rounded=0;orthogonalLoop=1;jettySize=auto;html=1;entryX=1;entryY=0.5;entryDx=0;entryDy=0;exitX=1;exitY=0.75;exitDx=0;exitDy=0;dashed=1;" edge="1" parent="1" source="B1v1-cyqUUZS_gUo7Q4Y-223" target="B1v1-cyqUUZS_gUo7Q4Y-221">
          <mxGeometry relative="1" as="geometry" />
        </mxCell>
        <mxCell id="B1v1-cyqUUZS_gUo7Q4Y-223" value="&lt;font style=&quot;font-size: 22px;&quot;&gt;&lt;b&gt;Neural Network&lt;/b&gt;&lt;/font&gt;" style="rounded=0;whiteSpace=wrap;html=1;fillStyle=hatch;fillColor=#FF3333;" vertex="1" parent="1">
          <mxGeometry x="1233.25" y="-359" width="183.5" height="60" as="geometry" />
        </mxCell>
        <mxCell id="B1v1-cyqUUZS_gUo7Q4Y-224" style="edgeStyle=orthogonalEdgeStyle;rounded=0;orthogonalLoop=1;jettySize=auto;html=1;entryX=0.5;entryY=1;entryDx=0;entryDy=0;exitX=0.5;exitY=0;exitDx=0;exitDy=0;" edge="1" target="B1v1-cyqUUZS_gUo7Q4Y-221" parent="1" source="B1v1-cyqUUZS_gUo7Q4Y-240">
          <mxGeometry relative="1" as="geometry">
            <mxPoint x="1325" y="-187" as="sourcePoint" />
          </mxGeometry>
        </mxCell>
        <mxCell id="B1v1-cyqUUZS_gUo7Q4Y-225" value="" style="whiteSpace=wrap;html=1;aspect=fixed;fillColor=#FFCCCC;fillStyle=solid;" vertex="1" parent="1">
          <mxGeometry x="1231.75" y="-443" width="37" height="37" as="geometry" />
        </mxCell>
        <mxCell id="B1v1-cyqUUZS_gUo7Q4Y-226" value="" style="whiteSpace=wrap;html=1;aspect=fixed;fillColor=#FFCCCC;fillStyle=solid;" vertex="1" parent="1">
          <mxGeometry x="1268.75" y="-443" width="37" height="37" as="geometry" />
        </mxCell>
        <mxCell id="B1v1-cyqUUZS_gUo7Q4Y-227" value="" style="whiteSpace=wrap;html=1;aspect=fixed;fillColor=#FFCCCC;fillStyle=solid;" vertex="1" parent="1">
          <mxGeometry x="1305.75" y="-443" width="37" height="37" as="geometry" />
        </mxCell>
        <mxCell id="B1v1-cyqUUZS_gUo7Q4Y-228" value="" style="whiteSpace=wrap;html=1;aspect=fixed;fillColor=#FFCCCC;fillStyle=solid;" vertex="1" parent="1">
          <mxGeometry x="1342.75" y="-443" width="37" height="37" as="geometry" />
        </mxCell>
        <mxCell id="B1v1-cyqUUZS_gUo7Q4Y-229" value="" style="whiteSpace=wrap;html=1;aspect=fixed;fillColor=#FFCCCC;fillStyle=solid;" vertex="1" parent="1">
          <mxGeometry x="1379.75" y="-443" width="37" height="37" as="geometry" />
        </mxCell>
        <mxCell id="B1v1-cyqUUZS_gUo7Q4Y-230" value="&lt;font color=&quot;#cc0000&quot; face=&quot;Verdana&quot; style=&quot;font-size: 13px;&quot;&gt;representation of item j&lt;/font&gt;" style="text;html=1;align=center;verticalAlign=middle;whiteSpace=wrap;rounded=0;fontStyle=1;fillColor=none;" vertex="1" parent="1">
          <mxGeometry x="1233.75" y="-407" width="183" height="19" as="geometry" />
        </mxCell>
        <mxCell id="B1v1-cyqUUZS_gUo7Q4Y-231" value="&lt;div style=&quot;font-size: 22px;&quot;&gt;$$i^{(j)}$$&lt;/div&gt;" style="text;html=1;align=center;verticalAlign=middle;whiteSpace=wrap;rounded=0;fontSize=22;" vertex="1" parent="1">
          <mxGeometry x="1188" y="-434.25" width="32" height="19.5" as="geometry" />
        </mxCell>
        <mxCell id="B1v1-cyqUUZS_gUo7Q4Y-232" style="edgeStyle=orthogonalEdgeStyle;rounded=0;orthogonalLoop=1;jettySize=auto;html=1;entryX=0.5;entryY=1;entryDx=0;entryDy=0;" edge="1" source="B1v1-cyqUUZS_gUo7Q4Y-233" target="B1v1-cyqUUZS_gUo7Q4Y-236" parent="1">
          <mxGeometry relative="1" as="geometry" />
        </mxCell>
        <mxCell id="B1v1-cyqUUZS_gUo7Q4Y-233" value="&lt;font face=&quot;Verdana&quot;&gt;&lt;span style=&quot;font-size: 16px;&quot;&gt;&lt;b&gt;cosine similarity&lt;/b&gt;&lt;/span&gt;&lt;/font&gt;" style="rounded=0;whiteSpace=wrap;html=1;fillColor=#666666;fillStyle=hatch;" vertex="1" parent="1">
          <mxGeometry x="1036" y="-530" width="206" height="32" as="geometry" />
        </mxCell>
        <mxCell id="B1v1-cyqUUZS_gUo7Q4Y-234" style="edgeStyle=orthogonalEdgeStyle;rounded=0;orthogonalLoop=1;jettySize=auto;html=1;exitX=0.5;exitY=0;exitDx=0;exitDy=0;" edge="1" source="B1v1-cyqUUZS_gUo7Q4Y-215" target="B1v1-cyqUUZS_gUo7Q4Y-233" parent="1">
          <mxGeometry relative="1" as="geometry">
            <mxPoint x="968" y="-349" as="sourcePoint" />
            <mxPoint x="968" y="-378" as="targetPoint" />
          </mxGeometry>
        </mxCell>
        <mxCell id="B1v1-cyqUUZS_gUo7Q4Y-235" style="edgeStyle=orthogonalEdgeStyle;rounded=0;orthogonalLoop=1;jettySize=auto;html=1;exitX=0.5;exitY=0;exitDx=0;exitDy=0;entryX=0.5;entryY=1;entryDx=0;entryDy=0;" edge="1" source="B1v1-cyqUUZS_gUo7Q4Y-227" target="B1v1-cyqUUZS_gUo7Q4Y-233" parent="1">
          <mxGeometry relative="1" as="geometry">
            <mxPoint x="967" y="-433" as="sourcePoint" />
            <mxPoint x="1149" y="-501" as="targetPoint" />
          </mxGeometry>
        </mxCell>
        <mxCell id="B1v1-cyqUUZS_gUo7Q4Y-298" style="edgeStyle=orthogonalEdgeStyle;rounded=0;orthogonalLoop=1;jettySize=auto;html=1;entryX=0.5;entryY=1;entryDx=0;entryDy=0;" edge="1" parent="1" source="B1v1-cyqUUZS_gUo7Q4Y-236" target="B1v1-cyqUUZS_gUo7Q4Y-297">
          <mxGeometry relative="1" as="geometry" />
        </mxCell>
        <mxCell id="B1v1-cyqUUZS_gUo7Q4Y-236" value="&lt;div style=&quot;font-size: 22px;&quot;&gt;$$cos[u^{(k)}, i^{(j)}] = \frac{\langle a,b \rangle}{\Vert u^{(k)} \Vert \cdot \Vert i^{(j)} \Vert}$$&lt;/div&gt;" style="text;html=1;align=center;verticalAlign=middle;whiteSpace=wrap;rounded=0;fontSize=22;" vertex="1" parent="1">
          <mxGeometry x="979.38" y="-637" width="319.25" height="78" as="geometry" />
        </mxCell>
        <mxCell id="B1v1-cyqUUZS_gUo7Q4Y-237" value="&lt;font style=&quot;font-size: 22px;&quot; face=&quot;Verdana&quot;&gt;User Tower&lt;/font&gt;" style="text;html=1;align=center;verticalAlign=middle;whiteSpace=wrap;rounded=0;fontStyle=1;fillColor=none;fontColor=#3333FF;" vertex="1" parent="1">
          <mxGeometry x="1075" y="-370" width="70" height="51" as="geometry" />
        </mxCell>
        <mxCell id="B1v1-cyqUUZS_gUo7Q4Y-238" value="&lt;font face=&quot;Verdana&quot; style=&quot;font-size: 22px;&quot;&gt;Item Tower&lt;/font&gt;" style="text;html=1;align=center;verticalAlign=middle;whiteSpace=wrap;rounded=0;fontStyle=1;fillColor=none;fontColor=#FF3333;" vertex="1" parent="1">
          <mxGeometry x="1132" y="-244" width="82" height="51" as="geometry" />
        </mxCell>
        <mxCell id="B1v1-cyqUUZS_gUo7Q4Y-239" value="&lt;font style=&quot;font-size: 19px;&quot;&gt;User Sample&lt;/font&gt;" style="rounded=0;whiteSpace=wrap;html=1;fontSize=19;fontStyle=1" vertex="1" parent="1">
          <mxGeometry x="894" y="-181" width="128" height="27" as="geometry" />
        </mxCell>
        <mxCell id="B1v1-cyqUUZS_gUo7Q4Y-240" value="&lt;font style=&quot;font-size: 19px;&quot;&gt;Item Sample&lt;/font&gt;" style="rounded=0;whiteSpace=wrap;html=1;fontSize=19;fontStyle=1" vertex="1" parent="1">
          <mxGeometry x="1261" y="-181" width="128" height="27" as="geometry" />
        </mxCell>
        <mxCell id="B1v1-cyqUUZS_gUo7Q4Y-241" value="" style="rounded=1;whiteSpace=wrap;html=1;arcSize=4;dashed=1;strokeColor=#FF3333;" vertex="1" parent="1">
          <mxGeometry x="2416.25" y="-373" width="210" height="177" as="geometry" />
        </mxCell>
        <mxCell id="B1v1-cyqUUZS_gUo7Q4Y-243" style="edgeStyle=orthogonalEdgeStyle;rounded=0;orthogonalLoop=1;jettySize=auto;html=1;entryX=0.5;entryY=1;entryDx=0;entryDy=0;" edge="1" source="B1v1-cyqUUZS_gUo7Q4Y-244" target="B1v1-cyqUUZS_gUo7Q4Y-246" parent="1">
          <mxGeometry relative="1" as="geometry" />
        </mxCell>
        <mxCell id="B1v1-cyqUUZS_gUo7Q4Y-244" value="&lt;font style=&quot;font-size: 22px;&quot;&gt;&lt;b&gt;Feature Transformation&lt;/b&gt;&lt;/font&gt;" style="rounded=0;whiteSpace=wrap;html=1;fillStyle=hatch;fillColor=#3333FF;" vertex="1" parent="1">
          <mxGeometry x="2062.25" y="-272" width="183.5" height="60" as="geometry" />
        </mxCell>
        <mxCell id="B1v1-cyqUUZS_gUo7Q4Y-245" style="edgeStyle=orthogonalEdgeStyle;rounded=0;orthogonalLoop=1;jettySize=auto;html=1;entryX=0.5;entryY=1;entryDx=0;entryDy=0;" edge="1" source="B1v1-cyqUUZS_gUo7Q4Y-246" target="B1v1-cyqUUZS_gUo7Q4Y-253" parent="1">
          <mxGeometry relative="1" as="geometry" />
        </mxCell>
        <mxCell id="B1v1-cyqUUZS_gUo7Q4Y-315" style="edgeStyle=orthogonalEdgeStyle;rounded=0;orthogonalLoop=1;jettySize=auto;html=1;entryX=0;entryY=0.5;entryDx=0;entryDy=0;exitX=0;exitY=0.75;exitDx=0;exitDy=0;dashed=1;" edge="1" parent="1" source="B1v1-cyqUUZS_gUo7Q4Y-246" target="B1v1-cyqUUZS_gUo7Q4Y-244">
          <mxGeometry relative="1" as="geometry">
            <Array as="points">
              <mxPoint x="2005" y="-314" />
              <mxPoint x="2005" y="-242" />
            </Array>
          </mxGeometry>
        </mxCell>
        <mxCell id="B1v1-cyqUUZS_gUo7Q4Y-246" value="&lt;font style=&quot;font-size: 22px;&quot;&gt;&lt;b&gt;Neural Network&lt;/b&gt;&lt;/font&gt;" style="rounded=0;whiteSpace=wrap;html=1;fillStyle=hatch;fillColor=#3333FF;" vertex="1" parent="1">
          <mxGeometry x="2062.25" y="-359" width="183.5" height="60" as="geometry" />
        </mxCell>
        <mxCell id="B1v1-cyqUUZS_gUo7Q4Y-247" style="edgeStyle=orthogonalEdgeStyle;rounded=0;orthogonalLoop=1;jettySize=auto;html=1;entryX=0.5;entryY=1;entryDx=0;entryDy=0;" edge="1" source="B1v1-cyqUUZS_gUo7Q4Y-274" target="B1v1-cyqUUZS_gUo7Q4Y-244" parent="1">
          <mxGeometry relative="1" as="geometry">
            <mxPoint x="2153.25" y="-187" as="sourcePoint" />
          </mxGeometry>
        </mxCell>
        <mxCell id="B1v1-cyqUUZS_gUo7Q4Y-248" value="" style="whiteSpace=wrap;html=1;aspect=fixed;fillColor=#CCE5FF;fillStyle=solid;" vertex="1" parent="1">
          <mxGeometry x="2060.75" y="-443" width="37" height="37" as="geometry" />
        </mxCell>
        <mxCell id="B1v1-cyqUUZS_gUo7Q4Y-249" value="" style="whiteSpace=wrap;html=1;aspect=fixed;fillColor=#CCE5FF;fillStyle=solid;" vertex="1" parent="1">
          <mxGeometry x="2097.75" y="-443" width="37" height="37" as="geometry" />
        </mxCell>
        <mxCell id="B1v1-cyqUUZS_gUo7Q4Y-296" style="edgeStyle=orthogonalEdgeStyle;rounded=0;orthogonalLoop=1;jettySize=auto;html=1;entryX=0.5;entryY=1;entryDx=0;entryDy=0;" edge="1" parent="1" source="B1v1-cyqUUZS_gUo7Q4Y-250" target="B1v1-cyqUUZS_gUo7Q4Y-293">
          <mxGeometry relative="1" as="geometry">
            <Array as="points">
              <mxPoint x="2153" y="-470" />
              <mxPoint x="1973" y="-470" />
            </Array>
          </mxGeometry>
        </mxCell>
        <mxCell id="B1v1-cyqUUZS_gUo7Q4Y-250" value="" style="whiteSpace=wrap;html=1;aspect=fixed;fillColor=#CCE5FF;fillStyle=solid;" vertex="1" parent="1">
          <mxGeometry x="2134.75" y="-443" width="37" height="37" as="geometry" />
        </mxCell>
        <mxCell id="B1v1-cyqUUZS_gUo7Q4Y-251" value="" style="whiteSpace=wrap;html=1;aspect=fixed;fillColor=#CCE5FF;fillStyle=solid;" vertex="1" parent="1">
          <mxGeometry x="2171.75" y="-443" width="37" height="37" as="geometry" />
        </mxCell>
        <mxCell id="B1v1-cyqUUZS_gUo7Q4Y-252" value="" style="whiteSpace=wrap;html=1;aspect=fixed;fillColor=#CCE5FF;fillStyle=solid;" vertex="1" parent="1">
          <mxGeometry x="2208.75" y="-443" width="37" height="37" as="geometry" />
        </mxCell>
        <mxCell id="B1v1-cyqUUZS_gUo7Q4Y-253" value="&lt;font style=&quot;font-size: 13px;&quot; face=&quot;Verdana&quot;&gt;representation of user i&lt;/font&gt;" style="text;html=1;align=center;verticalAlign=middle;whiteSpace=wrap;rounded=0;fontStyle=1;fillColor=none;fontColor=#3333FF;" vertex="1" parent="1">
          <mxGeometry x="2062.75" y="-407" width="183" height="19" as="geometry" />
        </mxCell>
        <mxCell id="B1v1-cyqUUZS_gUo7Q4Y-254" value="&lt;div style=&quot;font-size: 22px;&quot;&gt;$$u^{(k)}$$&lt;/div&gt;" style="text;html=1;align=center;verticalAlign=middle;whiteSpace=wrap;rounded=0;fontSize=22;" vertex="1" parent="1">
          <mxGeometry x="2017" y="-434.25" width="32" height="19.5" as="geometry" />
        </mxCell>
        <mxCell id="B1v1-cyqUUZS_gUo7Q4Y-255" style="edgeStyle=orthogonalEdgeStyle;rounded=0;orthogonalLoop=1;jettySize=auto;html=1;entryX=0.5;entryY=1;entryDx=0;entryDy=0;" edge="1" source="B1v1-cyqUUZS_gUo7Q4Y-256" target="B1v1-cyqUUZS_gUo7Q4Y-258" parent="1">
          <mxGeometry relative="1" as="geometry" />
        </mxCell>
        <mxCell id="B1v1-cyqUUZS_gUo7Q4Y-256" value="&lt;font style=&quot;font-size: 22px;&quot;&gt;&lt;b&gt;Feature Transformation&lt;/b&gt;&lt;/font&gt;" style="rounded=0;whiteSpace=wrap;html=1;fillStyle=hatch;fillColor=#FF3333;" vertex="1" parent="1">
          <mxGeometry x="2429.5" y="-272" width="183.5" height="60" as="geometry" />
        </mxCell>
        <mxCell id="B1v1-cyqUUZS_gUo7Q4Y-257" style="edgeStyle=orthogonalEdgeStyle;rounded=0;orthogonalLoop=1;jettySize=auto;html=1;entryX=0.5;entryY=1;entryDx=0;entryDy=0;" edge="1" source="B1v1-cyqUUZS_gUo7Q4Y-258" target="B1v1-cyqUUZS_gUo7Q4Y-265" parent="1">
          <mxGeometry relative="1" as="geometry" />
        </mxCell>
        <mxCell id="B1v1-cyqUUZS_gUo7Q4Y-258" value="&lt;font style=&quot;font-size: 22px;&quot;&gt;&lt;b&gt;Neural Network&lt;/b&gt;&lt;/font&gt;" style="rounded=0;whiteSpace=wrap;html=1;fillStyle=hatch;fillColor=#FF3333;" vertex="1" parent="1">
          <mxGeometry x="2429.5" y="-359" width="183.5" height="60" as="geometry" />
        </mxCell>
        <mxCell id="B1v1-cyqUUZS_gUo7Q4Y-259" style="edgeStyle=orthogonalEdgeStyle;rounded=0;orthogonalLoop=1;jettySize=auto;html=1;entryX=0.5;entryY=1;entryDx=0;entryDy=0;exitX=0.5;exitY=0;exitDx=0;exitDy=0;" edge="1" source="B1v1-cyqUUZS_gUo7Q4Y-275" target="B1v1-cyqUUZS_gUo7Q4Y-256" parent="1">
          <mxGeometry relative="1" as="geometry">
            <mxPoint x="2521.25" y="-187" as="sourcePoint" />
          </mxGeometry>
        </mxCell>
        <mxCell id="B1v1-cyqUUZS_gUo7Q4Y-260" value="" style="whiteSpace=wrap;html=1;aspect=fixed;fillColor=#FFCCCC;fillStyle=solid;" vertex="1" parent="1">
          <mxGeometry x="2428" y="-443" width="37" height="37" as="geometry" />
        </mxCell>
        <mxCell id="B1v1-cyqUUZS_gUo7Q4Y-261" value="" style="whiteSpace=wrap;html=1;aspect=fixed;fillColor=#FFCCCC;fillStyle=solid;" vertex="1" parent="1">
          <mxGeometry x="2465" y="-443" width="37" height="37" as="geometry" />
        </mxCell>
        <mxCell id="B1v1-cyqUUZS_gUo7Q4Y-262" value="" style="whiteSpace=wrap;html=1;aspect=fixed;fillColor=#FFCCCC;fillStyle=solid;" vertex="1" parent="1">
          <mxGeometry x="2502" y="-443" width="37" height="37" as="geometry" />
        </mxCell>
        <mxCell id="B1v1-cyqUUZS_gUo7Q4Y-263" value="" style="whiteSpace=wrap;html=1;aspect=fixed;fillColor=#FFCCCC;fillStyle=solid;" vertex="1" parent="1">
          <mxGeometry x="2539" y="-443" width="37" height="37" as="geometry" />
        </mxCell>
        <mxCell id="B1v1-cyqUUZS_gUo7Q4Y-264" value="" style="whiteSpace=wrap;html=1;aspect=fixed;fillColor=#FFCCCC;fillStyle=solid;" vertex="1" parent="1">
          <mxGeometry x="2576" y="-443" width="37" height="37" as="geometry" />
        </mxCell>
        <mxCell id="B1v1-cyqUUZS_gUo7Q4Y-265" value="&lt;font color=&quot;#cc0000&quot; face=&quot;Verdana&quot; style=&quot;font-size: 13px;&quot;&gt;representation of item j&lt;/font&gt;" style="text;html=1;align=center;verticalAlign=middle;whiteSpace=wrap;rounded=0;fontStyle=1;fillColor=none;" vertex="1" parent="1">
          <mxGeometry x="2430" y="-407" width="183" height="19" as="geometry" />
        </mxCell>
        <mxCell id="B1v1-cyqUUZS_gUo7Q4Y-266" value="&lt;div style=&quot;font-size: 22px;&quot;&gt;$$i^{(-)}$$&lt;/div&gt;" style="text;html=1;align=center;verticalAlign=middle;whiteSpace=wrap;rounded=0;fontSize=22;" vertex="1" parent="1">
          <mxGeometry x="2384.25" y="-434.25" width="32" height="19.5" as="geometry" />
        </mxCell>
        <mxCell id="B1v1-cyqUUZS_gUo7Q4Y-267" style="edgeStyle=orthogonalEdgeStyle;rounded=0;orthogonalLoop=1;jettySize=auto;html=1;entryX=0.5;entryY=1;entryDx=0;entryDy=0;" edge="1" source="B1v1-cyqUUZS_gUo7Q4Y-268" target="B1v1-cyqUUZS_gUo7Q4Y-271" parent="1">
          <mxGeometry relative="1" as="geometry" />
        </mxCell>
        <mxCell id="B1v1-cyqUUZS_gUo7Q4Y-268" value="&lt;font face=&quot;Verdana&quot;&gt;&lt;span style=&quot;font-size: 16px;&quot;&gt;&lt;b&gt;cosine similarity&lt;/b&gt;&lt;/span&gt;&lt;/font&gt;" style="rounded=0;whiteSpace=wrap;html=1;fillColor=#666666;fillStyle=hatch;" vertex="1" parent="1">
          <mxGeometry x="2232.25" y="-530" width="206" height="32" as="geometry" />
        </mxCell>
        <mxCell id="B1v1-cyqUUZS_gUo7Q4Y-269" style="edgeStyle=orthogonalEdgeStyle;rounded=0;orthogonalLoop=1;jettySize=auto;html=1;exitX=0.5;exitY=0;exitDx=0;exitDy=0;" edge="1" source="B1v1-cyqUUZS_gUo7Q4Y-251" target="B1v1-cyqUUZS_gUo7Q4Y-268" parent="1">
          <mxGeometry relative="1" as="geometry">
            <mxPoint x="2164.25" y="-349" as="sourcePoint" />
            <mxPoint x="2164.25" y="-378" as="targetPoint" />
          </mxGeometry>
        </mxCell>
        <mxCell id="B1v1-cyqUUZS_gUo7Q4Y-270" style="edgeStyle=orthogonalEdgeStyle;rounded=0;orthogonalLoop=1;jettySize=auto;html=1;exitX=0.5;exitY=0;exitDx=0;exitDy=0;entryX=0.5;entryY=1;entryDx=0;entryDy=0;" edge="1" source="B1v1-cyqUUZS_gUo7Q4Y-262" target="B1v1-cyqUUZS_gUo7Q4Y-268" parent="1">
          <mxGeometry relative="1" as="geometry">
            <mxPoint x="2163.25" y="-433" as="sourcePoint" />
            <mxPoint x="2345.25" y="-501" as="targetPoint" />
          </mxGeometry>
        </mxCell>
        <mxCell id="B1v1-cyqUUZS_gUo7Q4Y-310" style="edgeStyle=orthogonalEdgeStyle;rounded=0;orthogonalLoop=1;jettySize=auto;html=1;" edge="1" parent="1" source="B1v1-cyqUUZS_gUo7Q4Y-271" target="B1v1-cyqUUZS_gUo7Q4Y-307">
          <mxGeometry relative="1" as="geometry" />
        </mxCell>
        <mxCell id="B1v1-cyqUUZS_gUo7Q4Y-271" value="&lt;div style=&quot;&quot;&gt;&lt;font style=&quot;font-size: 18px;&quot;&gt;$$cos[u^{(k)}, i^{(-)}] = \frac{\langle a,b \rangle}{\Vert u^{(k)} \Vert \cdot \Vert i^{(-)} \Vert}$$&lt;/font&gt;&lt;/div&gt;" style="text;html=1;align=center;verticalAlign=middle;whiteSpace=wrap;rounded=0;fontSize=22;" vertex="1" parent="1">
          <mxGeometry x="2175.63" y="-639" width="319.25" height="80" as="geometry" />
        </mxCell>
        <mxCell id="B1v1-cyqUUZS_gUo7Q4Y-272" value="&lt;font style=&quot;font-size: 22px;&quot; face=&quot;Verdana&quot;&gt;User Tower&lt;/font&gt;" style="text;html=1;align=center;verticalAlign=middle;whiteSpace=wrap;rounded=0;fontStyle=1;fillColor=none;fontColor=#3333FF;" vertex="1" parent="1">
          <mxGeometry x="2271.25" y="-241" width="70" height="51" as="geometry" />
        </mxCell>
        <mxCell id="B1v1-cyqUUZS_gUo7Q4Y-273" value="&lt;font face=&quot;Verdana&quot; style=&quot;font-size: 22px;&quot;&gt;Item Tower&lt;/font&gt;" style="text;html=1;align=center;verticalAlign=middle;whiteSpace=wrap;rounded=0;fontStyle=1;fillColor=none;fontColor=#FF3333;" vertex="1" parent="1">
          <mxGeometry x="2328.25" y="-381" width="82" height="51" as="geometry" />
        </mxCell>
        <mxCell id="B1v1-cyqUUZS_gUo7Q4Y-274" value="&lt;font style=&quot;font-size: 19px;&quot;&gt;User Sample&lt;/font&gt;" style="rounded=0;whiteSpace=wrap;html=1;fontSize=19;fontStyle=1" vertex="1" parent="1">
          <mxGeometry x="2090.25" y="-181" width="128" height="27" as="geometry" />
        </mxCell>
        <mxCell id="B1v1-cyqUUZS_gUo7Q4Y-275" value="&lt;font style=&quot;font-size: 19px;&quot;&gt;Item Sample&lt;/font&gt;" style="rounded=0;whiteSpace=wrap;html=1;fontSize=19;fontStyle=1" vertex="1" parent="1">
          <mxGeometry x="2457.25" y="-181" width="128" height="27" as="geometry" />
        </mxCell>
        <mxCell id="B1v1-cyqUUZS_gUo7Q4Y-276" value="" style="rounded=1;whiteSpace=wrap;html=1;arcSize=4;dashed=1;strokeColor=#FF3333;" vertex="1" parent="1">
          <mxGeometry x="1697" y="-373" width="210" height="177" as="geometry" />
        </mxCell>
        <mxCell id="B1v1-cyqUUZS_gUo7Q4Y-277" style="edgeStyle=orthogonalEdgeStyle;rounded=0;orthogonalLoop=1;jettySize=auto;html=1;entryX=0.5;entryY=1;entryDx=0;entryDy=0;" edge="1" source="B1v1-cyqUUZS_gUo7Q4Y-278" target="B1v1-cyqUUZS_gUo7Q4Y-280" parent="1">
          <mxGeometry relative="1" as="geometry" />
        </mxCell>
        <mxCell id="B1v1-cyqUUZS_gUo7Q4Y-278" value="&lt;font style=&quot;font-size: 22px;&quot;&gt;&lt;b&gt;Feature Transformation&lt;/b&gt;&lt;/font&gt;" style="rounded=0;whiteSpace=wrap;html=1;fillStyle=hatch;fillColor=#FF3333;" vertex="1" parent="1">
          <mxGeometry x="1710.25" y="-272" width="183.5" height="60" as="geometry" />
        </mxCell>
        <mxCell id="B1v1-cyqUUZS_gUo7Q4Y-279" style="edgeStyle=orthogonalEdgeStyle;rounded=0;orthogonalLoop=1;jettySize=auto;html=1;entryX=0.5;entryY=1;entryDx=0;entryDy=0;" edge="1" source="B1v1-cyqUUZS_gUo7Q4Y-280" target="B1v1-cyqUUZS_gUo7Q4Y-287" parent="1">
          <mxGeometry relative="1" as="geometry" />
        </mxCell>
        <mxCell id="B1v1-cyqUUZS_gUo7Q4Y-313" style="edgeStyle=orthogonalEdgeStyle;rounded=0;orthogonalLoop=1;jettySize=auto;html=1;entryX=0;entryY=0.5;entryDx=0;entryDy=0;exitX=0;exitY=0.75;exitDx=0;exitDy=0;dashed=1;" edge="1" parent="1" source="B1v1-cyqUUZS_gUo7Q4Y-280" target="B1v1-cyqUUZS_gUo7Q4Y-278">
          <mxGeometry relative="1" as="geometry">
            <Array as="points">
              <mxPoint x="1677" y="-314" />
              <mxPoint x="1677" y="-242" />
            </Array>
          </mxGeometry>
        </mxCell>
        <mxCell id="B1v1-cyqUUZS_gUo7Q4Y-280" value="&lt;font style=&quot;font-size: 22px;&quot;&gt;&lt;b&gt;Neural Network&lt;/b&gt;&lt;/font&gt;" style="rounded=0;whiteSpace=wrap;html=1;fillStyle=hatch;fillColor=#FF3333;" vertex="1" parent="1">
          <mxGeometry x="1710.25" y="-359" width="183.5" height="60" as="geometry" />
        </mxCell>
        <mxCell id="B1v1-cyqUUZS_gUo7Q4Y-281" style="edgeStyle=orthogonalEdgeStyle;rounded=0;orthogonalLoop=1;jettySize=auto;html=1;entryX=0.5;entryY=1;entryDx=0;entryDy=0;exitX=0.5;exitY=0;exitDx=0;exitDy=0;" edge="1" source="B1v1-cyqUUZS_gUo7Q4Y-290" target="B1v1-cyqUUZS_gUo7Q4Y-278" parent="1">
          <mxGeometry relative="1" as="geometry">
            <mxPoint x="1802" y="-187" as="sourcePoint" />
          </mxGeometry>
        </mxCell>
        <mxCell id="B1v1-cyqUUZS_gUo7Q4Y-282" value="" style="whiteSpace=wrap;html=1;aspect=fixed;fillColor=#FFCCCC;fillStyle=solid;" vertex="1" parent="1">
          <mxGeometry x="1708.75" y="-443" width="37" height="37" as="geometry" />
        </mxCell>
        <mxCell id="B1v1-cyqUUZS_gUo7Q4Y-283" value="" style="whiteSpace=wrap;html=1;aspect=fixed;fillColor=#FFCCCC;fillStyle=solid;" vertex="1" parent="1">
          <mxGeometry x="1745.75" y="-443" width="37" height="37" as="geometry" />
        </mxCell>
        <mxCell id="B1v1-cyqUUZS_gUo7Q4Y-295" style="edgeStyle=orthogonalEdgeStyle;rounded=0;orthogonalLoop=1;jettySize=auto;html=1;" edge="1" parent="1" source="B1v1-cyqUUZS_gUo7Q4Y-284" target="B1v1-cyqUUZS_gUo7Q4Y-293">
          <mxGeometry relative="1" as="geometry">
            <Array as="points">
              <mxPoint x="1801" y="-470" />
              <mxPoint x="1973" y="-470" />
            </Array>
          </mxGeometry>
        </mxCell>
        <mxCell id="B1v1-cyqUUZS_gUo7Q4Y-284" value="" style="whiteSpace=wrap;html=1;aspect=fixed;fillColor=#FFCCCC;fillStyle=solid;" vertex="1" parent="1">
          <mxGeometry x="1782.75" y="-443" width="37" height="37" as="geometry" />
        </mxCell>
        <mxCell id="B1v1-cyqUUZS_gUo7Q4Y-285" value="" style="whiteSpace=wrap;html=1;aspect=fixed;fillColor=#FFCCCC;fillStyle=solid;" vertex="1" parent="1">
          <mxGeometry x="1819.75" y="-443" width="37" height="37" as="geometry" />
        </mxCell>
        <mxCell id="B1v1-cyqUUZS_gUo7Q4Y-286" value="" style="whiteSpace=wrap;html=1;aspect=fixed;fillColor=#FFCCCC;fillStyle=solid;" vertex="1" parent="1">
          <mxGeometry x="1856.75" y="-443" width="37" height="37" as="geometry" />
        </mxCell>
        <mxCell id="B1v1-cyqUUZS_gUo7Q4Y-287" value="&lt;font color=&quot;#cc0000&quot; face=&quot;Verdana&quot; style=&quot;font-size: 13px;&quot;&gt;representation of item j&lt;/font&gt;" style="text;html=1;align=center;verticalAlign=middle;whiteSpace=wrap;rounded=0;fontStyle=1;fillColor=none;" vertex="1" parent="1">
          <mxGeometry x="1710.75" y="-407" width="183" height="19" as="geometry" />
        </mxCell>
        <mxCell id="B1v1-cyqUUZS_gUo7Q4Y-288" value="&lt;div style=&quot;font-size: 22px;&quot;&gt;$$i^{(+)}$$&lt;/div&gt;" style="text;html=1;align=center;verticalAlign=middle;whiteSpace=wrap;rounded=0;fontSize=22;" vertex="1" parent="1">
          <mxGeometry x="1905" y="-434.25" width="32" height="19.5" as="geometry" />
        </mxCell>
        <mxCell id="B1v1-cyqUUZS_gUo7Q4Y-289" value="&lt;font face=&quot;Verdana&quot; style=&quot;font-size: 22px;&quot;&gt;Item Tower&lt;/font&gt;" style="text;html=1;align=center;verticalAlign=middle;whiteSpace=wrap;rounded=0;fontStyle=1;fillColor=none;fontColor=#FF3333;" vertex="1" parent="1">
          <mxGeometry x="1913" y="-244" width="82" height="51" as="geometry" />
        </mxCell>
        <mxCell id="B1v1-cyqUUZS_gUo7Q4Y-290" value="&lt;font style=&quot;font-size: 19px;&quot;&gt;Item Sample&lt;/font&gt;" style="rounded=0;whiteSpace=wrap;html=1;fontSize=19;fontStyle=1" vertex="1" parent="1">
          <mxGeometry x="1738" y="-181" width="128" height="27" as="geometry" />
        </mxCell>
        <mxCell id="B1v1-cyqUUZS_gUo7Q4Y-292" style="edgeStyle=orthogonalEdgeStyle;rounded=0;orthogonalLoop=1;jettySize=auto;html=1;entryX=0.5;entryY=1;entryDx=0;entryDy=0;" edge="1" source="B1v1-cyqUUZS_gUo7Q4Y-293" target="B1v1-cyqUUZS_gUo7Q4Y-294" parent="1">
          <mxGeometry relative="1" as="geometry" />
        </mxCell>
        <mxCell id="B1v1-cyqUUZS_gUo7Q4Y-293" value="&lt;font face=&quot;Verdana&quot;&gt;&lt;span style=&quot;font-size: 16px;&quot;&gt;&lt;b&gt;cosine similarity&lt;/b&gt;&lt;/span&gt;&lt;/font&gt;" style="rounded=0;whiteSpace=wrap;html=1;fillColor=#666666;fillStyle=hatch;" vertex="1" parent="1">
          <mxGeometry x="1869.62" y="-530" width="206" height="32" as="geometry" />
        </mxCell>
        <mxCell id="B1v1-cyqUUZS_gUo7Q4Y-309" style="edgeStyle=orthogonalEdgeStyle;rounded=0;orthogonalLoop=1;jettySize=auto;html=1;entryX=0.5;entryY=1;entryDx=0;entryDy=0;" edge="1" parent="1" source="B1v1-cyqUUZS_gUo7Q4Y-294" target="B1v1-cyqUUZS_gUo7Q4Y-307">
          <mxGeometry relative="1" as="geometry" />
        </mxCell>
        <mxCell id="B1v1-cyqUUZS_gUo7Q4Y-294" value="&lt;div style=&quot;font-size: 18px;&quot;&gt;$$cos[u^{(k)}, i^{(+)}] = \frac{\langle a,b \rangle}{\Vert u^{(k)} \Vert \cdot \Vert i^{(+)} \Vert}$$&lt;/div&gt;" style="text;html=1;align=center;verticalAlign=middle;whiteSpace=wrap;rounded=0;fontSize=18;" vertex="1" parent="1">
          <mxGeometry x="1813" y="-639" width="319.25" height="80" as="geometry" />
        </mxCell>
        <mxCell id="B1v1-cyqUUZS_gUo7Q4Y-299" style="edgeStyle=orthogonalEdgeStyle;rounded=0;orthogonalLoop=1;jettySize=auto;html=1;entryX=0;entryY=0.25;entryDx=0;entryDy=0;dashed=1;exitX=0.25;exitY=0;exitDx=0;exitDy=0;" edge="1" parent="1" source="B1v1-cyqUUZS_gUo7Q4Y-297" target="B1v1-cyqUUZS_gUo7Q4Y-211">
          <mxGeometry relative="1" as="geometry">
            <Array as="points">
              <mxPoint x="1077" y="-739" />
              <mxPoint x="845" y="-739" />
              <mxPoint x="845" y="-344" />
            </Array>
          </mxGeometry>
        </mxCell>
        <mxCell id="B1v1-cyqUUZS_gUo7Q4Y-301" style="edgeStyle=orthogonalEdgeStyle;rounded=0;orthogonalLoop=1;jettySize=auto;html=1;entryX=1;entryY=0.25;entryDx=0;entryDy=0;dashed=1;exitX=0.75;exitY=0;exitDx=0;exitDy=0;" edge="1" parent="1" source="B1v1-cyqUUZS_gUo7Q4Y-297" target="B1v1-cyqUUZS_gUo7Q4Y-223">
          <mxGeometry relative="1" as="geometry">
            <Array as="points">
              <mxPoint x="1202" y="-739" />
              <mxPoint x="1437" y="-739" />
              <mxPoint x="1437" y="-344" />
            </Array>
          </mxGeometry>
        </mxCell>
        <mxCell id="B1v1-cyqUUZS_gUo7Q4Y-297" value="&lt;font color=&quot;#000000&quot; style=&quot;font-size: 22px;&quot; face=&quot;Verdana&quot;&gt;CrossEntropy Loss&lt;/font&gt;" style="text;html=1;align=center;verticalAlign=middle;whiteSpace=wrap;rounded=0;fontStyle=1;fillColor=none;fontColor=#3333FF;" vertex="1" parent="1">
          <mxGeometry x="1014.01" y="-723" width="250" height="44" as="geometry" />
        </mxCell>
        <mxCell id="B1v1-cyqUUZS_gUo7Q4Y-303" value="" style="endArrow=classic;html=1;rounded=0;" edge="1" parent="1">
          <mxGeometry width="50" height="50" relative="1" as="geometry">
            <mxPoint x="866.5" y="-708" as="sourcePoint" />
            <mxPoint x="946.5" y="-708" as="targetPoint" />
          </mxGeometry>
        </mxCell>
        <mxCell id="B1v1-cyqUUZS_gUo7Q4Y-304" value="&lt;font color=&quot;#000000&quot; style=&quot;font-size: 22px; font-weight: normal;&quot; face=&quot;Verdana&quot;&gt;forward&lt;/font&gt;" style="text;html=1;align=center;verticalAlign=middle;whiteSpace=wrap;rounded=0;fontStyle=1;fillColor=none;fontColor=#3333FF;" vertex="1" parent="1">
          <mxGeometry x="861.01" y="-699" width="98.99" height="25" as="geometry" />
        </mxCell>
        <mxCell id="B1v1-cyqUUZS_gUo7Q4Y-305" value="&lt;font color=&quot;#000000&quot; style=&quot;font-size: 22px; font-weight: normal;&quot; face=&quot;Verdana&quot;&gt;backward&lt;/font&gt;" style="text;html=1;align=center;verticalAlign=middle;whiteSpace=wrap;rounded=0;fontStyle=1;fillColor=none;fontColor=#3333FF;" vertex="1" parent="1">
          <mxGeometry x="861.01" y="-646" width="98.99" height="25" as="geometry" />
        </mxCell>
        <mxCell id="B1v1-cyqUUZS_gUo7Q4Y-306" value="" style="endArrow=classic;html=1;rounded=0;dashed=1;" edge="1" parent="1">
          <mxGeometry width="50" height="50" relative="1" as="geometry">
            <mxPoint x="866.5" y="-655" as="sourcePoint" />
            <mxPoint x="946.5" y="-655" as="targetPoint" />
          </mxGeometry>
        </mxCell>
        <mxCell id="B1v1-cyqUUZS_gUo7Q4Y-312" style="edgeStyle=orthogonalEdgeStyle;rounded=0;orthogonalLoop=1;jettySize=auto;html=1;entryX=0;entryY=0.25;entryDx=0;entryDy=0;dashed=1;exitX=0;exitY=0.25;exitDx=0;exitDy=0;" edge="1" parent="1" source="B1v1-cyqUUZS_gUo7Q4Y-307" target="B1v1-cyqUUZS_gUo7Q4Y-280">
          <mxGeometry relative="1" as="geometry">
            <Array as="points">
              <mxPoint x="1678" y="-741" />
              <mxPoint x="1678" y="-344" />
            </Array>
          </mxGeometry>
        </mxCell>
        <mxCell id="B1v1-cyqUUZS_gUo7Q4Y-307" value="&lt;font color=&quot;#000000&quot; style=&quot;font-size: 22px;&quot; face=&quot;Verdana&quot;&gt;$$\mathcal{L}(u^{(k)}, i^{(+)}, i^{(-)})$$&lt;/font&gt;" style="text;html=1;align=center;verticalAlign=middle;whiteSpace=wrap;rounded=0;fontStyle=1;fillColor=none;fontColor=#3333FF;" vertex="1" parent="1">
          <mxGeometry x="2055.5" y="-752" width="195.5" height="44" as="geometry" />
        </mxCell>
        <mxCell id="B1v1-cyqUUZS_gUo7Q4Y-311" value="&lt;font face=&quot;Verdana&quot; color=&quot;#ff9999&quot;&gt;&lt;span style=&quot;font-size: 22px;&quot;&gt;same tower&lt;/span&gt;&lt;/font&gt;" style="text;html=1;align=center;verticalAlign=middle;whiteSpace=wrap;rounded=0;fontStyle=0;fillColor=none;fontColor=#3333FF;" vertex="1" parent="1">
          <mxGeometry x="2264.76" y="-319" width="141" height="27" as="geometry" />
        </mxCell>
        <mxCell id="B1v1-cyqUUZS_gUo7Q4Y-316" value="" style="endArrow=classic;html=1;rounded=0;" edge="1" parent="1">
          <mxGeometry width="50" height="50" relative="1" as="geometry">
            <mxPoint x="1706.49" y="-708" as="sourcePoint" />
            <mxPoint x="1786.49" y="-708" as="targetPoint" />
          </mxGeometry>
        </mxCell>
        <mxCell id="B1v1-cyqUUZS_gUo7Q4Y-317" value="&lt;font color=&quot;#000000&quot; style=&quot;font-size: 22px; font-weight: normal;&quot; face=&quot;Verdana&quot;&gt;forward&lt;/font&gt;" style="text;html=1;align=center;verticalAlign=middle;whiteSpace=wrap;rounded=0;fontStyle=1;fillColor=none;fontColor=#3333FF;" vertex="1" parent="1">
          <mxGeometry x="1701" y="-699" width="98.99" height="25" as="geometry" />
        </mxCell>
        <mxCell id="B1v1-cyqUUZS_gUo7Q4Y-318" value="&lt;font color=&quot;#000000&quot; style=&quot;font-size: 22px; font-weight: normal;&quot; face=&quot;Verdana&quot;&gt;backward&lt;/font&gt;" style="text;html=1;align=center;verticalAlign=middle;whiteSpace=wrap;rounded=0;fontStyle=1;fillColor=none;fontColor=#3333FF;" vertex="1" parent="1">
          <mxGeometry x="1701" y="-646" width="98.99" height="25" as="geometry" />
        </mxCell>
        <mxCell id="B1v1-cyqUUZS_gUo7Q4Y-319" value="" style="endArrow=classic;html=1;rounded=0;dashed=1;" edge="1" parent="1">
          <mxGeometry width="50" height="50" relative="1" as="geometry">
            <mxPoint x="1706.49" y="-655" as="sourcePoint" />
            <mxPoint x="1786.49" y="-655" as="targetPoint" />
          </mxGeometry>
        </mxCell>
        <mxCell id="B1v1-cyqUUZS_gUo7Q4Y-320" value="&lt;font style=&quot;font-size: 22px;&quot; face=&quot;Verdana&quot;&gt;positive&lt;/font&gt;" style="text;html=1;align=center;verticalAlign=middle;whiteSpace=wrap;rounded=0;fontStyle=1;fillColor=none;fontColor=#B3B3B3;" vertex="1" parent="1">
          <mxGeometry x="1748.75" y="-154" width="105" height="22" as="geometry" />
        </mxCell>
        <mxCell id="B1v1-cyqUUZS_gUo7Q4Y-321" value="&lt;font style=&quot;font-size: 22px;&quot; face=&quot;Verdana&quot;&gt;negative&lt;/font&gt;" style="text;html=1;align=center;verticalAlign=middle;whiteSpace=wrap;rounded=0;fontStyle=1;fillColor=none;fontColor=#B3B3B3;" vertex="1" parent="1">
          <mxGeometry x="2468.75" y="-154" width="105" height="22" as="geometry" />
        </mxCell>
        <mxCell id="B1v1-cyqUUZS_gUo7Q4Y-325" value="" style="rounded=1;whiteSpace=wrap;html=1;arcSize=4;dashed=1;strokeColor=#FF3333;" vertex="1" parent="1">
          <mxGeometry x="3495.25" y="-373" width="210" height="177" as="geometry" />
        </mxCell>
        <mxCell id="B1v1-cyqUUZS_gUo7Q4Y-326" style="edgeStyle=orthogonalEdgeStyle;rounded=0;orthogonalLoop=1;jettySize=auto;html=1;entryX=0.5;entryY=1;entryDx=0;entryDy=0;" edge="1" source="B1v1-cyqUUZS_gUo7Q4Y-327" target="B1v1-cyqUUZS_gUo7Q4Y-330" parent="1">
          <mxGeometry relative="1" as="geometry" />
        </mxCell>
        <mxCell id="B1v1-cyqUUZS_gUo7Q4Y-327" value="&lt;font style=&quot;font-size: 22px;&quot;&gt;&lt;b&gt;Feature Transformation&lt;/b&gt;&lt;/font&gt;" style="rounded=0;whiteSpace=wrap;html=1;fillStyle=hatch;fillColor=#3333FF;" vertex="1" parent="1">
          <mxGeometry x="3141.25" y="-272" width="183.5" height="60" as="geometry" />
        </mxCell>
        <mxCell id="B1v1-cyqUUZS_gUo7Q4Y-328" style="edgeStyle=orthogonalEdgeStyle;rounded=0;orthogonalLoop=1;jettySize=auto;html=1;entryX=0.5;entryY=1;entryDx=0;entryDy=0;" edge="1" source="B1v1-cyqUUZS_gUo7Q4Y-330" target="B1v1-cyqUUZS_gUo7Q4Y-338" parent="1">
          <mxGeometry relative="1" as="geometry" />
        </mxCell>
        <mxCell id="B1v1-cyqUUZS_gUo7Q4Y-329" style="edgeStyle=orthogonalEdgeStyle;rounded=0;orthogonalLoop=1;jettySize=auto;html=1;entryX=0;entryY=0.5;entryDx=0;entryDy=0;exitX=0;exitY=0.75;exitDx=0;exitDy=0;dashed=1;" edge="1" source="B1v1-cyqUUZS_gUo7Q4Y-330" target="B1v1-cyqUUZS_gUo7Q4Y-327" parent="1">
          <mxGeometry relative="1" as="geometry">
            <Array as="points">
              <mxPoint x="3084" y="-314" />
              <mxPoint x="3084" y="-242" />
            </Array>
          </mxGeometry>
        </mxCell>
        <mxCell id="B1v1-cyqUUZS_gUo7Q4Y-330" value="&lt;font style=&quot;font-size: 22px;&quot;&gt;&lt;b&gt;Neural Network&lt;/b&gt;&lt;/font&gt;" style="rounded=0;whiteSpace=wrap;html=1;fillStyle=hatch;fillColor=#3333FF;" vertex="1" parent="1">
          <mxGeometry x="3141.25" y="-359" width="183.5" height="60" as="geometry" />
        </mxCell>
        <mxCell id="B1v1-cyqUUZS_gUo7Q4Y-331" style="edgeStyle=orthogonalEdgeStyle;rounded=0;orthogonalLoop=1;jettySize=auto;html=1;entryX=0.5;entryY=1;entryDx=0;entryDy=0;" edge="1" source="B1v1-cyqUUZS_gUo7Q4Y-360" target="B1v1-cyqUUZS_gUo7Q4Y-327" parent="1">
          <mxGeometry relative="1" as="geometry">
            <mxPoint x="3232.25" y="-187" as="sourcePoint" />
          </mxGeometry>
        </mxCell>
        <mxCell id="B1v1-cyqUUZS_gUo7Q4Y-332" value="" style="whiteSpace=wrap;html=1;aspect=fixed;fillColor=#CCE5FF;fillStyle=solid;" vertex="1" parent="1">
          <mxGeometry x="3139.75" y="-443" width="37" height="37" as="geometry" />
        </mxCell>
        <mxCell id="B1v1-cyqUUZS_gUo7Q4Y-333" value="" style="whiteSpace=wrap;html=1;aspect=fixed;fillColor=#CCE5FF;fillStyle=solid;" vertex="1" parent="1">
          <mxGeometry x="3176.75" y="-443" width="37" height="37" as="geometry" />
        </mxCell>
        <mxCell id="B1v1-cyqUUZS_gUo7Q4Y-334" style="edgeStyle=orthogonalEdgeStyle;rounded=0;orthogonalLoop=1;jettySize=auto;html=1;entryX=0.5;entryY=1;entryDx=0;entryDy=0;" edge="1" source="B1v1-cyqUUZS_gUo7Q4Y-335" target="B1v1-cyqUUZS_gUo7Q4Y-380" parent="1">
          <mxGeometry relative="1" as="geometry">
            <Array as="points">
              <mxPoint x="3232" y="-470" />
              <mxPoint x="3052" y="-470" />
            </Array>
          </mxGeometry>
        </mxCell>
        <mxCell id="B1v1-cyqUUZS_gUo7Q4Y-335" value="" style="whiteSpace=wrap;html=1;aspect=fixed;fillColor=#CCE5FF;fillStyle=solid;" vertex="1" parent="1">
          <mxGeometry x="3213.75" y="-443" width="37" height="37" as="geometry" />
        </mxCell>
        <mxCell id="B1v1-cyqUUZS_gUo7Q4Y-412" style="edgeStyle=orthogonalEdgeStyle;rounded=0;orthogonalLoop=1;jettySize=auto;html=1;entryX=0.25;entryY=1;entryDx=0;entryDy=0;strokeColor=#000000;" edge="1" parent="1" source="B1v1-cyqUUZS_gUo7Q4Y-336" target="B1v1-cyqUUZS_gUo7Q4Y-410">
          <mxGeometry relative="1" as="geometry">
            <Array as="points">
              <mxPoint x="3269" y="-468" />
              <mxPoint x="3648" y="-468" />
              <mxPoint x="3648" y="-498" />
            </Array>
          </mxGeometry>
        </mxCell>
        <mxCell id="B1v1-cyqUUZS_gUo7Q4Y-428" style="edgeStyle=orthogonalEdgeStyle;rounded=0;orthogonalLoop=1;jettySize=auto;html=1;entryX=0.25;entryY=1;entryDx=0;entryDy=0;strokeColor=#000000;" edge="1" parent="1" source="B1v1-cyqUUZS_gUo7Q4Y-336" target="B1v1-cyqUUZS_gUo7Q4Y-411">
          <mxGeometry relative="1" as="geometry">
            <Array as="points">
              <mxPoint x="3269" y="-468" />
              <mxPoint x="3847" y="-468" />
            </Array>
          </mxGeometry>
        </mxCell>
        <mxCell id="B1v1-cyqUUZS_gUo7Q4Y-336" value="" style="whiteSpace=wrap;html=1;aspect=fixed;fillColor=#CCE5FF;fillStyle=solid;" vertex="1" parent="1">
          <mxGeometry x="3250.75" y="-443" width="37" height="37" as="geometry" />
        </mxCell>
        <mxCell id="B1v1-cyqUUZS_gUo7Q4Y-337" value="" style="whiteSpace=wrap;html=1;aspect=fixed;fillColor=#CCE5FF;fillStyle=solid;" vertex="1" parent="1">
          <mxGeometry x="3287.75" y="-443" width="37" height="37" as="geometry" />
        </mxCell>
        <mxCell id="B1v1-cyqUUZS_gUo7Q4Y-338" value="&lt;font style=&quot;font-size: 13px;&quot; face=&quot;Verdana&quot;&gt;representation of user i&lt;/font&gt;" style="text;html=1;align=center;verticalAlign=middle;whiteSpace=wrap;rounded=0;fontStyle=1;fillColor=none;fontColor=#3333FF;" vertex="1" parent="1">
          <mxGeometry x="3141.75" y="-407" width="183" height="19" as="geometry" />
        </mxCell>
        <mxCell id="B1v1-cyqUUZS_gUo7Q4Y-339" value="&lt;div style=&quot;font-size: 22px;&quot;&gt;$$u^{(k)}$$&lt;/div&gt;" style="text;html=1;align=center;verticalAlign=middle;whiteSpace=wrap;rounded=0;fontSize=22;" vertex="1" parent="1">
          <mxGeometry x="3096" y="-434.25" width="32" height="19.5" as="geometry" />
        </mxCell>
        <mxCell id="B1v1-cyqUUZS_gUo7Q4Y-340" style="edgeStyle=orthogonalEdgeStyle;rounded=0;orthogonalLoop=1;jettySize=auto;html=1;entryX=0.5;entryY=1;entryDx=0;entryDy=0;" edge="1" source="B1v1-cyqUUZS_gUo7Q4Y-341" target="B1v1-cyqUUZS_gUo7Q4Y-343" parent="1">
          <mxGeometry relative="1" as="geometry" />
        </mxCell>
        <mxCell id="B1v1-cyqUUZS_gUo7Q4Y-341" value="&lt;font style=&quot;font-size: 22px;&quot;&gt;&lt;b&gt;Feature Transformation&lt;/b&gt;&lt;/font&gt;" style="rounded=0;whiteSpace=wrap;html=1;fillStyle=hatch;fillColor=#FF3333;" vertex="1" parent="1">
          <mxGeometry x="3508.5" y="-272" width="183.5" height="60" as="geometry" />
        </mxCell>
        <mxCell id="B1v1-cyqUUZS_gUo7Q4Y-342" style="edgeStyle=orthogonalEdgeStyle;rounded=0;orthogonalLoop=1;jettySize=auto;html=1;entryX=0.5;entryY=1;entryDx=0;entryDy=0;" edge="1" source="B1v1-cyqUUZS_gUo7Q4Y-343" target="B1v1-cyqUUZS_gUo7Q4Y-350" parent="1">
          <mxGeometry relative="1" as="geometry" />
        </mxCell>
        <mxCell id="B1v1-cyqUUZS_gUo7Q4Y-343" value="&lt;font style=&quot;font-size: 22px;&quot;&gt;&lt;b&gt;Neural Network&lt;/b&gt;&lt;/font&gt;" style="rounded=0;whiteSpace=wrap;html=1;fillStyle=hatch;fillColor=#FF3333;" vertex="1" parent="1">
          <mxGeometry x="3508.5" y="-359" width="183.5" height="60" as="geometry" />
        </mxCell>
        <mxCell id="B1v1-cyqUUZS_gUo7Q4Y-344" style="edgeStyle=orthogonalEdgeStyle;rounded=0;orthogonalLoop=1;jettySize=auto;html=1;entryX=0.5;entryY=1;entryDx=0;entryDy=0;exitX=0.5;exitY=0;exitDx=0;exitDy=0;" edge="1" source="B1v1-cyqUUZS_gUo7Q4Y-361" target="B1v1-cyqUUZS_gUo7Q4Y-341" parent="1">
          <mxGeometry relative="1" as="geometry">
            <mxPoint x="3600.25" y="-187" as="sourcePoint" />
          </mxGeometry>
        </mxCell>
        <mxCell id="B1v1-cyqUUZS_gUo7Q4Y-345" value="" style="whiteSpace=wrap;html=1;aspect=fixed;fillColor=#FFCCCC;fillStyle=solid;" vertex="1" parent="1">
          <mxGeometry x="3507" y="-443" width="37" height="37" as="geometry" />
        </mxCell>
        <mxCell id="B1v1-cyqUUZS_gUo7Q4Y-346" value="" style="whiteSpace=wrap;html=1;aspect=fixed;fillColor=#FFCCCC;fillStyle=solid;" vertex="1" parent="1">
          <mxGeometry x="3544" y="-443" width="37" height="37" as="geometry" />
        </mxCell>
        <mxCell id="B1v1-cyqUUZS_gUo7Q4Y-347" value="" style="whiteSpace=wrap;html=1;aspect=fixed;fillColor=#FFCCCC;fillStyle=solid;" vertex="1" parent="1">
          <mxGeometry x="3581" y="-443" width="37" height="37" as="geometry" />
        </mxCell>
        <mxCell id="B1v1-cyqUUZS_gUo7Q4Y-348" value="" style="whiteSpace=wrap;html=1;aspect=fixed;fillColor=#FFCCCC;fillStyle=solid;" vertex="1" parent="1">
          <mxGeometry x="3618" y="-443" width="37" height="37" as="geometry" />
        </mxCell>
        <mxCell id="B1v1-cyqUUZS_gUo7Q4Y-349" value="" style="whiteSpace=wrap;html=1;aspect=fixed;fillColor=#FFCCCC;fillStyle=solid;" vertex="1" parent="1">
          <mxGeometry x="3655" y="-443" width="37" height="37" as="geometry" />
        </mxCell>
        <mxCell id="B1v1-cyqUUZS_gUo7Q4Y-350" value="&lt;font color=&quot;#cc0000&quot; face=&quot;Verdana&quot; style=&quot;font-size: 13px;&quot;&gt;representation of item j&lt;/font&gt;" style="text;html=1;align=center;verticalAlign=middle;whiteSpace=wrap;rounded=0;fontStyle=1;fillColor=none;" vertex="1" parent="1">
          <mxGeometry x="3509" y="-407" width="183" height="19" as="geometry" />
        </mxCell>
        <mxCell id="B1v1-cyqUUZS_gUo7Q4Y-351" value="&lt;div style=&quot;font-size: 22px;&quot;&gt;$$i_x^{(-)}$$&lt;/div&gt;" style="text;html=1;align=center;verticalAlign=middle;whiteSpace=wrap;rounded=0;fontSize=22;" vertex="1" parent="1">
          <mxGeometry x="3463.25" y="-434.25" width="32" height="19.5" as="geometry" />
        </mxCell>
        <mxCell id="B1v1-cyqUUZS_gUo7Q4Y-352" style="edgeStyle=orthogonalEdgeStyle;rounded=0;orthogonalLoop=1;jettySize=auto;html=1;entryX=0.5;entryY=1;entryDx=0;entryDy=0;" edge="1" source="B1v1-cyqUUZS_gUo7Q4Y-353" target="B1v1-cyqUUZS_gUo7Q4Y-357" parent="1">
          <mxGeometry relative="1" as="geometry" />
        </mxCell>
        <mxCell id="B1v1-cyqUUZS_gUo7Q4Y-353" value="&lt;font face=&quot;Verdana&quot;&gt;&lt;span style=&quot;font-size: 16px;&quot;&gt;&lt;b&gt;cosine similarity&lt;/b&gt;&lt;/span&gt;&lt;/font&gt;" style="rounded=0;whiteSpace=wrap;html=1;fillColor=#666666;fillStyle=hatch;" vertex="1" parent="1">
          <mxGeometry x="3335.5" y="-530" width="157.5" height="32" as="geometry" />
        </mxCell>
        <mxCell id="B1v1-cyqUUZS_gUo7Q4Y-354" style="edgeStyle=orthogonalEdgeStyle;rounded=0;orthogonalLoop=1;jettySize=auto;html=1;exitX=0.5;exitY=0;exitDx=0;exitDy=0;entryX=0.25;entryY=1;entryDx=0;entryDy=0;strokeColor=#000000;" edge="1" source="B1v1-cyqUUZS_gUo7Q4Y-336" target="B1v1-cyqUUZS_gUo7Q4Y-353" parent="1">
          <mxGeometry relative="1" as="geometry">
            <mxPoint x="3243.25" y="-349" as="sourcePoint" />
            <mxPoint x="3243.25" y="-378" as="targetPoint" />
            <Array as="points">
              <mxPoint x="3269" y="-468" />
              <mxPoint x="3375" y="-468" />
            </Array>
          </mxGeometry>
        </mxCell>
        <mxCell id="B1v1-cyqUUZS_gUo7Q4Y-431" style="edgeStyle=orthogonalEdgeStyle;rounded=0;orthogonalLoop=1;jettySize=auto;html=1;entryX=0.5;entryY=1;entryDx=0;entryDy=0;" edge="1" parent="1" source="B1v1-cyqUUZS_gUo7Q4Y-357" target="B1v1-cyqUUZS_gUo7Q4Y-430">
          <mxGeometry relative="1" as="geometry" />
        </mxCell>
        <mxCell id="B1v1-cyqUUZS_gUo7Q4Y-357" value="&lt;div style=&quot;&quot;&gt;&lt;font style=&quot;font-size: 18px;&quot;&gt;$$cos[u^{(k)}, i_2^{(-)}] = \frac{\langle a,b \rangle}{\Vert u^{(k)} \Vert \cdot \Vert i_2^{(-)} \Vert}$$&lt;/font&gt;&lt;/div&gt;" style="text;html=1;align=center;verticalAlign=middle;whiteSpace=wrap;rounded=0;fontSize=22;" vertex="1" parent="1">
          <mxGeometry x="3254.63" y="-639" width="319.25" height="80" as="geometry" />
        </mxCell>
        <mxCell id="B1v1-cyqUUZS_gUo7Q4Y-358" value="&lt;font style=&quot;font-size: 22px;&quot; face=&quot;Verdana&quot;&gt;User Tower&lt;/font&gt;" style="text;html=1;align=center;verticalAlign=middle;whiteSpace=wrap;rounded=0;fontStyle=1;fillColor=none;fontColor=#3333FF;" vertex="1" parent="1">
          <mxGeometry x="3350.25" y="-241" width="70" height="51" as="geometry" />
        </mxCell>
        <mxCell id="B1v1-cyqUUZS_gUo7Q4Y-359" value="&lt;font face=&quot;Verdana&quot; style=&quot;font-size: 22px;&quot;&gt;Item Tower&lt;/font&gt;" style="text;html=1;align=center;verticalAlign=middle;whiteSpace=wrap;rounded=0;fontStyle=1;fillColor=none;fontColor=#FF3333;" vertex="1" parent="1">
          <mxGeometry x="3407.25" y="-381" width="82" height="51" as="geometry" />
        </mxCell>
        <mxCell id="B1v1-cyqUUZS_gUo7Q4Y-360" value="&lt;font style=&quot;font-size: 19px;&quot;&gt;User Sample&lt;/font&gt;" style="rounded=0;whiteSpace=wrap;html=1;fontSize=19;fontStyle=1" vertex="1" parent="1">
          <mxGeometry x="3169.25" y="-181" width="128" height="27" as="geometry" />
        </mxCell>
        <mxCell id="B1v1-cyqUUZS_gUo7Q4Y-361" value="&lt;font style=&quot;font-size: 19px;&quot;&gt;Item Sample&lt;/font&gt;" style="rounded=0;whiteSpace=wrap;html=1;fontSize=19;fontStyle=1" vertex="1" parent="1">
          <mxGeometry x="3536.25" y="-181" width="128" height="27" as="geometry" />
        </mxCell>
        <mxCell id="B1v1-cyqUUZS_gUo7Q4Y-362" value="" style="rounded=1;whiteSpace=wrap;html=1;arcSize=4;dashed=1;strokeColor=#FF3333;" vertex="1" parent="1">
          <mxGeometry x="2776" y="-373" width="210" height="177" as="geometry" />
        </mxCell>
        <mxCell id="B1v1-cyqUUZS_gUo7Q4Y-363" style="edgeStyle=orthogonalEdgeStyle;rounded=0;orthogonalLoop=1;jettySize=auto;html=1;entryX=0.5;entryY=1;entryDx=0;entryDy=0;" edge="1" source="B1v1-cyqUUZS_gUo7Q4Y-364" target="B1v1-cyqUUZS_gUo7Q4Y-367" parent="1">
          <mxGeometry relative="1" as="geometry" />
        </mxCell>
        <mxCell id="B1v1-cyqUUZS_gUo7Q4Y-364" value="&lt;font style=&quot;font-size: 22px;&quot;&gt;&lt;b&gt;Feature Transformation&lt;/b&gt;&lt;/font&gt;" style="rounded=0;whiteSpace=wrap;html=1;fillStyle=hatch;fillColor=#FF3333;" vertex="1" parent="1">
          <mxGeometry x="2789.25" y="-272" width="183.5" height="60" as="geometry" />
        </mxCell>
        <mxCell id="B1v1-cyqUUZS_gUo7Q4Y-365" style="edgeStyle=orthogonalEdgeStyle;rounded=0;orthogonalLoop=1;jettySize=auto;html=1;entryX=0.5;entryY=1;entryDx=0;entryDy=0;" edge="1" source="B1v1-cyqUUZS_gUo7Q4Y-367" target="B1v1-cyqUUZS_gUo7Q4Y-375" parent="1">
          <mxGeometry relative="1" as="geometry" />
        </mxCell>
        <mxCell id="B1v1-cyqUUZS_gUo7Q4Y-366" style="edgeStyle=orthogonalEdgeStyle;rounded=0;orthogonalLoop=1;jettySize=auto;html=1;entryX=0;entryY=0.5;entryDx=0;entryDy=0;exitX=0;exitY=0.75;exitDx=0;exitDy=0;dashed=1;" edge="1" source="B1v1-cyqUUZS_gUo7Q4Y-367" target="B1v1-cyqUUZS_gUo7Q4Y-364" parent="1">
          <mxGeometry relative="1" as="geometry">
            <Array as="points">
              <mxPoint x="2763" y="-314" />
              <mxPoint x="2763" y="-242" />
            </Array>
          </mxGeometry>
        </mxCell>
        <mxCell id="B1v1-cyqUUZS_gUo7Q4Y-367" value="&lt;font style=&quot;font-size: 22px;&quot;&gt;&lt;b&gt;Neural Network&lt;/b&gt;&lt;/font&gt;" style="rounded=0;whiteSpace=wrap;html=1;fillStyle=hatch;fillColor=#FF3333;" vertex="1" parent="1">
          <mxGeometry x="2789.25" y="-359" width="183.5" height="60" as="geometry" />
        </mxCell>
        <mxCell id="B1v1-cyqUUZS_gUo7Q4Y-368" style="edgeStyle=orthogonalEdgeStyle;rounded=0;orthogonalLoop=1;jettySize=auto;html=1;entryX=0.5;entryY=1;entryDx=0;entryDy=0;exitX=0.5;exitY=0;exitDx=0;exitDy=0;" edge="1" source="B1v1-cyqUUZS_gUo7Q4Y-378" target="B1v1-cyqUUZS_gUo7Q4Y-364" parent="1">
          <mxGeometry relative="1" as="geometry">
            <mxPoint x="2881" y="-187" as="sourcePoint" />
          </mxGeometry>
        </mxCell>
        <mxCell id="B1v1-cyqUUZS_gUo7Q4Y-369" value="" style="whiteSpace=wrap;html=1;aspect=fixed;fillColor=#FFCCCC;fillStyle=solid;" vertex="1" parent="1">
          <mxGeometry x="2787.75" y="-443" width="37" height="37" as="geometry" />
        </mxCell>
        <mxCell id="B1v1-cyqUUZS_gUo7Q4Y-370" value="" style="whiteSpace=wrap;html=1;aspect=fixed;fillColor=#FFCCCC;fillStyle=solid;" vertex="1" parent="1">
          <mxGeometry x="2824.75" y="-443" width="37" height="37" as="geometry" />
        </mxCell>
        <mxCell id="B1v1-cyqUUZS_gUo7Q4Y-371" style="edgeStyle=orthogonalEdgeStyle;rounded=0;orthogonalLoop=1;jettySize=auto;html=1;" edge="1" source="B1v1-cyqUUZS_gUo7Q4Y-372" target="B1v1-cyqUUZS_gUo7Q4Y-380" parent="1">
          <mxGeometry relative="1" as="geometry">
            <Array as="points">
              <mxPoint x="2880" y="-470" />
              <mxPoint x="3052" y="-470" />
            </Array>
          </mxGeometry>
        </mxCell>
        <mxCell id="B1v1-cyqUUZS_gUo7Q4Y-372" value="" style="whiteSpace=wrap;html=1;aspect=fixed;fillColor=#FFCCCC;fillStyle=solid;" vertex="1" parent="1">
          <mxGeometry x="2861.75" y="-443" width="37" height="37" as="geometry" />
        </mxCell>
        <mxCell id="B1v1-cyqUUZS_gUo7Q4Y-373" value="" style="whiteSpace=wrap;html=1;aspect=fixed;fillColor=#FFCCCC;fillStyle=solid;" vertex="1" parent="1">
          <mxGeometry x="2898.75" y="-443" width="37" height="37" as="geometry" />
        </mxCell>
        <mxCell id="B1v1-cyqUUZS_gUo7Q4Y-374" value="" style="whiteSpace=wrap;html=1;aspect=fixed;fillColor=#FFCCCC;fillStyle=solid;" vertex="1" parent="1">
          <mxGeometry x="2935.75" y="-443" width="37" height="37" as="geometry" />
        </mxCell>
        <mxCell id="B1v1-cyqUUZS_gUo7Q4Y-375" value="&lt;font color=&quot;#cc0000&quot; face=&quot;Verdana&quot; style=&quot;font-size: 13px;&quot;&gt;representation of item j&lt;/font&gt;" style="text;html=1;align=center;verticalAlign=middle;whiteSpace=wrap;rounded=0;fontStyle=1;fillColor=none;" vertex="1" parent="1">
          <mxGeometry x="2789.75" y="-407" width="183" height="19" as="geometry" />
        </mxCell>
        <mxCell id="B1v1-cyqUUZS_gUo7Q4Y-376" value="&lt;div style=&quot;font-size: 22px;&quot;&gt;$$i_1^{(+)}$$&lt;/div&gt;" style="text;html=1;align=center;verticalAlign=middle;whiteSpace=wrap;rounded=0;fontSize=22;" vertex="1" parent="1">
          <mxGeometry x="2984" y="-434.25" width="32" height="19.5" as="geometry" />
        </mxCell>
        <mxCell id="B1v1-cyqUUZS_gUo7Q4Y-377" value="&lt;font face=&quot;Verdana&quot; style=&quot;font-size: 22px;&quot;&gt;Item Tower&lt;/font&gt;" style="text;html=1;align=center;verticalAlign=middle;whiteSpace=wrap;rounded=0;fontStyle=1;fillColor=none;fontColor=#FF3333;" vertex="1" parent="1">
          <mxGeometry x="2992" y="-244" width="82" height="51" as="geometry" />
        </mxCell>
        <mxCell id="B1v1-cyqUUZS_gUo7Q4Y-378" value="&lt;font style=&quot;font-size: 19px;&quot;&gt;Item Sample&lt;/font&gt;" style="rounded=0;whiteSpace=wrap;html=1;fontSize=19;fontStyle=1" vertex="1" parent="1">
          <mxGeometry x="2817" y="-181" width="128" height="27" as="geometry" />
        </mxCell>
        <mxCell id="B1v1-cyqUUZS_gUo7Q4Y-379" style="edgeStyle=orthogonalEdgeStyle;rounded=0;orthogonalLoop=1;jettySize=auto;html=1;entryX=0.5;entryY=1;entryDx=0;entryDy=0;" edge="1" source="B1v1-cyqUUZS_gUo7Q4Y-380" target="B1v1-cyqUUZS_gUo7Q4Y-382" parent="1">
          <mxGeometry relative="1" as="geometry" />
        </mxCell>
        <mxCell id="B1v1-cyqUUZS_gUo7Q4Y-380" value="&lt;font face=&quot;Verdana&quot;&gt;&lt;span style=&quot;font-size: 16px;&quot;&gt;&lt;b&gt;cosine similarity&lt;/b&gt;&lt;/span&gt;&lt;/font&gt;" style="rounded=0;whiteSpace=wrap;html=1;fillColor=#666666;fillStyle=hatch;" vertex="1" parent="1">
          <mxGeometry x="2948.62" y="-530" width="206" height="32" as="geometry" />
        </mxCell>
        <mxCell id="B1v1-cyqUUZS_gUo7Q4Y-437" style="edgeStyle=orthogonalEdgeStyle;rounded=0;orthogonalLoop=1;jettySize=auto;html=1;entryX=0.5;entryY=1;entryDx=0;entryDy=0;" edge="1" parent="1" source="B1v1-cyqUUZS_gUo7Q4Y-382" target="B1v1-cyqUUZS_gUo7Q4Y-436">
          <mxGeometry relative="1" as="geometry" />
        </mxCell>
        <mxCell id="B1v1-cyqUUZS_gUo7Q4Y-382" value="&lt;div style=&quot;font-size: 18px;&quot;&gt;$$cos[u^{(k)}, i_1^{(+)}] = \frac{\langle a,b \rangle}{\Vert u^{(k)} \Vert \cdot \Vert i_1^{(+)} \Vert}$$&lt;/div&gt;" style="text;html=1;align=center;verticalAlign=middle;whiteSpace=wrap;rounded=0;fontSize=18;" vertex="1" parent="1">
          <mxGeometry x="2892" y="-639" width="319.25" height="80" as="geometry" />
        </mxCell>
        <mxCell id="B1v1-cyqUUZS_gUo7Q4Y-385" value="&lt;font face=&quot;Verdana&quot; color=&quot;#ff9999&quot;&gt;&lt;span style=&quot;font-size: 22px;&quot;&gt;same tower&lt;/span&gt;&lt;/font&gt;" style="text;html=1;align=center;verticalAlign=middle;whiteSpace=wrap;rounded=0;fontStyle=0;fillColor=none;fontColor=#3333FF;" vertex="1" parent="1">
          <mxGeometry x="3343.76" y="-319" width="141" height="27" as="geometry" />
        </mxCell>
        <mxCell id="B1v1-cyqUUZS_gUo7Q4Y-390" value="&lt;font style=&quot;font-size: 22px;&quot; face=&quot;Verdana&quot;&gt;positive&lt;/font&gt;" style="text;html=1;align=center;verticalAlign=middle;whiteSpace=wrap;rounded=0;fontStyle=1;fillColor=none;fontColor=#B3B3B3;" vertex="1" parent="1">
          <mxGeometry x="2828.75" y="-136" width="105" height="22" as="geometry" />
        </mxCell>
        <mxCell id="B1v1-cyqUUZS_gUo7Q4Y-391" value="&lt;font face=&quot;Verdana&quot; style=&quot;font-size: 22px;&quot;&gt;user representation&lt;/font&gt;" style="text;html=1;align=center;verticalAlign=middle;whiteSpace=wrap;rounded=0;fontStyle=1;fillColor=none;fontColor=#28A8E0;" vertex="1" parent="1">
          <mxGeometry x="2759.2799999999997" y="401" width="202.44" height="49" as="geometry" />
        </mxCell>
        <mxCell id="B1v1-cyqUUZS_gUo7Q4Y-393" value="&lt;font style=&quot;font-size: 19px;&quot;&gt;Item Sample&lt;/font&gt;" style="rounded=0;whiteSpace=wrap;html=1;fontSize=19;fontStyle=1" vertex="1" parent="1">
          <mxGeometry x="3540" y="-178" width="128" height="27" as="geometry" />
        </mxCell>
        <mxCell id="B1v1-cyqUUZS_gUo7Q4Y-395" value="&lt;font style=&quot;font-size: 19px;&quot;&gt;Item Sample&lt;/font&gt;" style="rounded=0;whiteSpace=wrap;html=1;fontSize=19;fontStyle=1" vertex="1" parent="1">
          <mxGeometry x="3544" y="-175" width="128" height="27" as="geometry" />
        </mxCell>
        <mxCell id="B1v1-cyqUUZS_gUo7Q4Y-396" value="&lt;font style=&quot;font-size: 19px;&quot;&gt;Item Sample&lt;/font&gt;" style="rounded=0;whiteSpace=wrap;html=1;fontSize=19;fontStyle=1" vertex="1" parent="1">
          <mxGeometry x="3548" y="-172" width="128" height="27" as="geometry" />
        </mxCell>
        <mxCell id="B1v1-cyqUUZS_gUo7Q4Y-433" style="edgeStyle=orthogonalEdgeStyle;rounded=0;orthogonalLoop=1;jettySize=auto;html=1;entryX=0.5;entryY=1;entryDx=0;entryDy=0;" edge="1" parent="1" source="B1v1-cyqUUZS_gUo7Q4Y-407" target="B1v1-cyqUUZS_gUo7Q4Y-432">
          <mxGeometry relative="1" as="geometry" />
        </mxCell>
        <mxCell id="B1v1-cyqUUZS_gUo7Q4Y-407" value="&lt;div style=&quot;&quot;&gt;&lt;font style=&quot;font-size: 18px;&quot;&gt;$$cos[u^{(k)}, i_3^{(-)}]$$&lt;/font&gt;&lt;/div&gt;" style="text;html=1;align=center;verticalAlign=middle;whiteSpace=wrap;rounded=0;fontSize=22;" vertex="1" parent="1">
          <mxGeometry x="3618" y="-615" width="138" height="34" as="geometry" />
        </mxCell>
        <mxCell id="B1v1-cyqUUZS_gUo7Q4Y-435" style="edgeStyle=orthogonalEdgeStyle;rounded=0;orthogonalLoop=1;jettySize=auto;html=1;entryX=0.5;entryY=1;entryDx=0;entryDy=0;" edge="1" parent="1" source="B1v1-cyqUUZS_gUo7Q4Y-408" target="B1v1-cyqUUZS_gUo7Q4Y-434">
          <mxGeometry relative="1" as="geometry" />
        </mxCell>
        <mxCell id="B1v1-cyqUUZS_gUo7Q4Y-408" value="&lt;div style=&quot;&quot;&gt;&lt;font style=&quot;font-size: 18px;&quot;&gt;$$cos[u^{(k)}, i_n^{(-)}]$$&lt;/font&gt;&lt;/div&gt;" style="text;html=1;align=center;verticalAlign=middle;whiteSpace=wrap;rounded=0;fontSize=22;" vertex="1" parent="1">
          <mxGeometry x="3817.75" y="-614" width="138" height="32" as="geometry" />
        </mxCell>
        <mxCell id="B1v1-cyqUUZS_gUo7Q4Y-413" style="edgeStyle=orthogonalEdgeStyle;rounded=0;orthogonalLoop=1;jettySize=auto;html=1;" edge="1" parent="1" source="B1v1-cyqUUZS_gUo7Q4Y-410" target="B1v1-cyqUUZS_gUo7Q4Y-407">
          <mxGeometry relative="1" as="geometry" />
        </mxCell>
        <mxCell id="B1v1-cyqUUZS_gUo7Q4Y-410" value="&lt;font face=&quot;Verdana&quot;&gt;&lt;span style=&quot;font-size: 16px;&quot;&gt;&lt;b&gt;cosine similarity&lt;/b&gt;&lt;/span&gt;&lt;/font&gt;" style="rounded=0;whiteSpace=wrap;html=1;fillColor=#666666;fillStyle=hatch;" vertex="1" parent="1">
          <mxGeometry x="3608.25" y="-530" width="157.5" height="32" as="geometry" />
        </mxCell>
        <mxCell id="B1v1-cyqUUZS_gUo7Q4Y-414" style="edgeStyle=orthogonalEdgeStyle;rounded=0;orthogonalLoop=1;jettySize=auto;html=1;" edge="1" parent="1" source="B1v1-cyqUUZS_gUo7Q4Y-411" target="B1v1-cyqUUZS_gUo7Q4Y-408">
          <mxGeometry relative="1" as="geometry" />
        </mxCell>
        <mxCell id="B1v1-cyqUUZS_gUo7Q4Y-411" value="&lt;font face=&quot;Verdana&quot;&gt;&lt;span style=&quot;font-size: 16px;&quot;&gt;&lt;b&gt;cosine similarity&lt;/b&gt;&lt;/span&gt;&lt;/font&gt;" style="rounded=0;whiteSpace=wrap;html=1;fillColor=#666666;fillStyle=hatch;" vertex="1" parent="1">
          <mxGeometry x="3808" y="-530" width="157.5" height="32" as="geometry" />
        </mxCell>
        <mxCell id="B1v1-cyqUUZS_gUo7Q4Y-415" value="" style="whiteSpace=wrap;html=1;aspect=fixed;fillColor=#FFCCCC;fillStyle=solid;" vertex="1" parent="1">
          <mxGeometry x="3511.5" y="-447" width="37" height="37" as="geometry" />
        </mxCell>
        <mxCell id="B1v1-cyqUUZS_gUo7Q4Y-416" value="" style="whiteSpace=wrap;html=1;aspect=fixed;fillColor=#FFCCCC;fillStyle=solid;" vertex="1" parent="1">
          <mxGeometry x="3548.5" y="-447" width="37" height="37" as="geometry" />
        </mxCell>
        <mxCell id="B1v1-cyqUUZS_gUo7Q4Y-417" value="" style="whiteSpace=wrap;html=1;aspect=fixed;fillColor=#FFCCCC;fillStyle=solid;" vertex="1" parent="1">
          <mxGeometry x="3585.5" y="-447" width="37" height="37" as="geometry" />
        </mxCell>
        <mxCell id="B1v1-cyqUUZS_gUo7Q4Y-418" value="" style="whiteSpace=wrap;html=1;aspect=fixed;fillColor=#FFCCCC;fillStyle=solid;" vertex="1" parent="1">
          <mxGeometry x="3622.5" y="-447" width="37" height="37" as="geometry" />
        </mxCell>
        <mxCell id="B1v1-cyqUUZS_gUo7Q4Y-419" value="" style="whiteSpace=wrap;html=1;aspect=fixed;fillColor=#FFCCCC;fillStyle=solid;" vertex="1" parent="1">
          <mxGeometry x="3659.5" y="-447" width="37" height="37" as="geometry" />
        </mxCell>
        <mxCell id="B1v1-cyqUUZS_gUo7Q4Y-420" value="" style="whiteSpace=wrap;html=1;aspect=fixed;fillColor=#FFCCCC;fillStyle=solid;" vertex="1" parent="1">
          <mxGeometry x="3515.5" y="-451.75" width="37" height="37" as="geometry" />
        </mxCell>
        <mxCell id="B1v1-cyqUUZS_gUo7Q4Y-421" value="" style="whiteSpace=wrap;html=1;aspect=fixed;fillColor=#FFCCCC;fillStyle=solid;" vertex="1" parent="1">
          <mxGeometry x="3552.5" y="-451.75" width="37" height="37" as="geometry" />
        </mxCell>
        <mxCell id="B1v1-cyqUUZS_gUo7Q4Y-425" style="edgeStyle=orthogonalEdgeStyle;rounded=0;orthogonalLoop=1;jettySize=auto;html=1;entryX=0.75;entryY=1;entryDx=0;entryDy=0;strokeColor=#808080;" edge="1" parent="1" source="B1v1-cyqUUZS_gUo7Q4Y-422" target="B1v1-cyqUUZS_gUo7Q4Y-353">
          <mxGeometry relative="1" as="geometry">
            <Array as="points">
              <mxPoint x="3608" y="-477" />
              <mxPoint x="3454" y="-477" />
            </Array>
          </mxGeometry>
        </mxCell>
        <mxCell id="B1v1-cyqUUZS_gUo7Q4Y-426" style="edgeStyle=orthogonalEdgeStyle;rounded=0;orthogonalLoop=1;jettySize=auto;html=1;entryX=0.75;entryY=1;entryDx=0;entryDy=0;strokeColor=#808080;" edge="1" parent="1" source="B1v1-cyqUUZS_gUo7Q4Y-422" target="B1v1-cyqUUZS_gUo7Q4Y-410">
          <mxGeometry relative="1" as="geometry">
            <Array as="points">
              <mxPoint x="3608" y="-477" />
              <mxPoint x="3726" y="-477" />
            </Array>
          </mxGeometry>
        </mxCell>
        <mxCell id="B1v1-cyqUUZS_gUo7Q4Y-427" style="edgeStyle=orthogonalEdgeStyle;rounded=0;orthogonalLoop=1;jettySize=auto;html=1;entryX=0.75;entryY=1;entryDx=0;entryDy=0;strokeColor=#808080;" edge="1" parent="1" source="B1v1-cyqUUZS_gUo7Q4Y-422" target="B1v1-cyqUUZS_gUo7Q4Y-411">
          <mxGeometry relative="1" as="geometry">
            <Array as="points">
              <mxPoint x="3608" y="-477" />
              <mxPoint x="3926" y="-477" />
            </Array>
          </mxGeometry>
        </mxCell>
        <mxCell id="B1v1-cyqUUZS_gUo7Q4Y-422" value="" style="whiteSpace=wrap;html=1;aspect=fixed;fillColor=#FFCCCC;fillStyle=solid;" vertex="1" parent="1">
          <mxGeometry x="3589.5" y="-451.75" width="37" height="37" as="geometry" />
        </mxCell>
        <mxCell id="B1v1-cyqUUZS_gUo7Q4Y-423" value="" style="whiteSpace=wrap;html=1;aspect=fixed;fillColor=#FFCCCC;fillStyle=solid;" vertex="1" parent="1">
          <mxGeometry x="3626.5" y="-451.75" width="37" height="37" as="geometry" />
        </mxCell>
        <mxCell id="B1v1-cyqUUZS_gUo7Q4Y-424" value="" style="whiteSpace=wrap;html=1;aspect=fixed;fillColor=#FFCCCC;fillStyle=solid;" vertex="1" parent="1">
          <mxGeometry x="3663.5" y="-451.75" width="37" height="37" as="geometry" />
        </mxCell>
        <mxCell id="B1v1-cyqUUZS_gUo7Q4Y-429" value="&lt;div style=&quot;&quot;&gt;&lt;font style=&quot;font-size: 18px;&quot;&gt;...&lt;/font&gt;&lt;/div&gt;" style="text;html=1;align=center;verticalAlign=middle;whiteSpace=wrap;rounded=0;fontSize=22;" vertex="1" parent="1">
          <mxGeometry x="3771" y="-614" width="32" height="34" as="geometry" />
        </mxCell>
        <mxCell id="B1v1-cyqUUZS_gUo7Q4Y-442" style="edgeStyle=orthogonalEdgeStyle;rounded=0;orthogonalLoop=1;jettySize=auto;html=1;entryX=0.5;entryY=1;entryDx=0;entryDy=0;" edge="1" parent="1" source="B1v1-cyqUUZS_gUo7Q4Y-430" target="B1v1-cyqUUZS_gUo7Q4Y-441">
          <mxGeometry relative="1" as="geometry" />
        </mxCell>
        <mxCell id="B1v1-cyqUUZS_gUo7Q4Y-430" value="&lt;font face=&quot;Verdana&quot;&gt;&lt;span style=&quot;font-size: 16px;&quot;&gt;&lt;b&gt;softmax&lt;/b&gt;&lt;/span&gt;&lt;/font&gt;" style="rounded=0;whiteSpace=wrap;html=1;fillColor=#666666;fillStyle=hatch;" vertex="1" parent="1">
          <mxGeometry x="3371.25" y="-695" width="86" height="32" as="geometry" />
        </mxCell>
        <mxCell id="B1v1-cyqUUZS_gUo7Q4Y-444" style="edgeStyle=orthogonalEdgeStyle;rounded=0;orthogonalLoop=1;jettySize=auto;html=1;entryX=0.5;entryY=1;entryDx=0;entryDy=0;" edge="1" parent="1" source="B1v1-cyqUUZS_gUo7Q4Y-432" target="B1v1-cyqUUZS_gUo7Q4Y-443">
          <mxGeometry relative="1" as="geometry" />
        </mxCell>
        <mxCell id="B1v1-cyqUUZS_gUo7Q4Y-432" value="&lt;font face=&quot;Verdana&quot;&gt;&lt;span style=&quot;font-size: 16px;&quot;&gt;&lt;b&gt;softmax&lt;/b&gt;&lt;/span&gt;&lt;/font&gt;" style="rounded=0;whiteSpace=wrap;html=1;fillColor=#666666;fillStyle=hatch;" vertex="1" parent="1">
          <mxGeometry x="3644" y="-695" width="86" height="32" as="geometry" />
        </mxCell>
        <mxCell id="B1v1-cyqUUZS_gUo7Q4Y-446" style="edgeStyle=orthogonalEdgeStyle;rounded=0;orthogonalLoop=1;jettySize=auto;html=1;" edge="1" parent="1" source="B1v1-cyqUUZS_gUo7Q4Y-434" target="B1v1-cyqUUZS_gUo7Q4Y-445">
          <mxGeometry relative="1" as="geometry" />
        </mxCell>
        <mxCell id="B1v1-cyqUUZS_gUo7Q4Y-434" value="&lt;font face=&quot;Verdana&quot;&gt;&lt;span style=&quot;font-size: 16px;&quot;&gt;&lt;b&gt;softmax&lt;/b&gt;&lt;/span&gt;&lt;/font&gt;" style="rounded=0;whiteSpace=wrap;html=1;fillColor=#666666;fillStyle=hatch;" vertex="1" parent="1">
          <mxGeometry x="3843.75" y="-695" width="86" height="32" as="geometry" />
        </mxCell>
        <mxCell id="B1v1-cyqUUZS_gUo7Q4Y-440" style="edgeStyle=orthogonalEdgeStyle;rounded=0;orthogonalLoop=1;jettySize=auto;html=1;" edge="1" parent="1" source="B1v1-cyqUUZS_gUo7Q4Y-436" target="B1v1-cyqUUZS_gUo7Q4Y-438">
          <mxGeometry relative="1" as="geometry" />
        </mxCell>
        <mxCell id="B1v1-cyqUUZS_gUo7Q4Y-436" value="&lt;font face=&quot;Verdana&quot;&gt;&lt;span style=&quot;font-size: 16px;&quot;&gt;&lt;b&gt;softmax&lt;/b&gt;&lt;/span&gt;&lt;/font&gt;" style="rounded=0;whiteSpace=wrap;html=1;fillColor=#666666;fillStyle=hatch;" vertex="1" parent="1">
          <mxGeometry x="3008.62" y="-695" width="86" height="32" as="geometry" />
        </mxCell>
        <mxCell id="B1v1-cyqUUZS_gUo7Q4Y-448" style="edgeStyle=orthogonalEdgeStyle;rounded=0;orthogonalLoop=1;jettySize=auto;html=1;entryX=0.5;entryY=1;entryDx=0;entryDy=0;" edge="1" parent="1" source="B1v1-cyqUUZS_gUo7Q4Y-438" target="B1v1-cyqUUZS_gUo7Q4Y-447">
          <mxGeometry relative="1" as="geometry">
            <Array as="points">
              <mxPoint x="3052" y="-779" />
              <mxPoint x="3481" y="-779" />
            </Array>
          </mxGeometry>
        </mxCell>
        <mxCell id="B1v1-cyqUUZS_gUo7Q4Y-438" value="&lt;div style=&quot;font-size: 18px;&quot;&gt;$$p_{i_1}$$&lt;/div&gt;" style="text;html=1;align=center;verticalAlign=middle;whiteSpace=wrap;rounded=0;fontSize=18;" vertex="1" parent="1">
          <mxGeometry x="3021.12" y="-762" width="61" height="45" as="geometry" />
        </mxCell>
        <mxCell id="B1v1-cyqUUZS_gUo7Q4Y-449" style="edgeStyle=orthogonalEdgeStyle;rounded=0;orthogonalLoop=1;jettySize=auto;html=1;entryX=0.5;entryY=1;entryDx=0;entryDy=0;" edge="1" parent="1" source="B1v1-cyqUUZS_gUo7Q4Y-441" target="B1v1-cyqUUZS_gUo7Q4Y-447">
          <mxGeometry relative="1" as="geometry">
            <Array as="points">
              <mxPoint x="3414" y="-779" />
              <mxPoint x="3481" y="-779" />
            </Array>
          </mxGeometry>
        </mxCell>
        <mxCell id="B1v1-cyqUUZS_gUo7Q4Y-441" value="&lt;div style=&quot;font-size: 18px;&quot;&gt;$$p_{i_2}$$&lt;/div&gt;" style="text;html=1;align=center;verticalAlign=middle;whiteSpace=wrap;rounded=0;fontSize=18;" vertex="1" parent="1">
          <mxGeometry x="3383.76" y="-762" width="61" height="45" as="geometry" />
        </mxCell>
        <mxCell id="B1v1-cyqUUZS_gUo7Q4Y-450" style="edgeStyle=orthogonalEdgeStyle;rounded=0;orthogonalLoop=1;jettySize=auto;html=1;" edge="1" parent="1" source="B1v1-cyqUUZS_gUo7Q4Y-443" target="B1v1-cyqUUZS_gUo7Q4Y-447">
          <mxGeometry relative="1" as="geometry">
            <Array as="points">
              <mxPoint x="3687" y="-779" />
              <mxPoint x="3482" y="-779" />
            </Array>
          </mxGeometry>
        </mxCell>
        <mxCell id="B1v1-cyqUUZS_gUo7Q4Y-443" value="&lt;div style=&quot;font-size: 18px;&quot;&gt;$$p_{i_3}$$&lt;/div&gt;" style="text;html=1;align=center;verticalAlign=middle;whiteSpace=wrap;rounded=0;fontSize=18;" vertex="1" parent="1">
          <mxGeometry x="3656.5" y="-762" width="61" height="45" as="geometry" />
        </mxCell>
        <mxCell id="B1v1-cyqUUZS_gUo7Q4Y-451" style="edgeStyle=orthogonalEdgeStyle;rounded=0;orthogonalLoop=1;jettySize=auto;html=1;entryX=0.5;entryY=1;entryDx=0;entryDy=0;" edge="1" parent="1" source="B1v1-cyqUUZS_gUo7Q4Y-445" target="B1v1-cyqUUZS_gUo7Q4Y-447">
          <mxGeometry relative="1" as="geometry">
            <Array as="points">
              <mxPoint x="3887" y="-779" />
              <mxPoint x="3482" y="-779" />
            </Array>
          </mxGeometry>
        </mxCell>
        <mxCell id="B1v1-cyqUUZS_gUo7Q4Y-445" value="&lt;div style=&quot;font-size: 18px;&quot;&gt;$$p_{i_n}$$&lt;/div&gt;" style="text;html=1;align=center;verticalAlign=middle;whiteSpace=wrap;rounded=0;fontSize=18;" vertex="1" parent="1">
          <mxGeometry x="3856.25" y="-762" width="61" height="45" as="geometry" />
        </mxCell>
        <mxCell id="B1v1-cyqUUZS_gUo7Q4Y-452" style="edgeStyle=orthogonalEdgeStyle;rounded=0;orthogonalLoop=1;jettySize=auto;html=1;entryX=0;entryY=0.25;entryDx=0;entryDy=0;exitX=0;exitY=0.25;exitDx=0;exitDy=0;dashed=1;" edge="1" parent="1" source="B1v1-cyqUUZS_gUo7Q4Y-447" target="B1v1-cyqUUZS_gUo7Q4Y-367">
          <mxGeometry relative="1" as="geometry">
            <Array as="points">
              <mxPoint x="2763" y="-845" />
              <mxPoint x="2763" y="-344" />
            </Array>
          </mxGeometry>
        </mxCell>
        <mxCell id="B1v1-cyqUUZS_gUo7Q4Y-447" value="&lt;font color=&quot;#000000&quot; style=&quot;font-size: 22px;&quot; face=&quot;Verdana&quot;&gt;$$\mathcal{L}(u^{(k)}, p_{i})$$&lt;/font&gt;" style="text;html=1;align=center;verticalAlign=middle;whiteSpace=wrap;rounded=0;fontStyle=1;fillColor=none;fontColor=#3333FF;" vertex="1" parent="1">
          <mxGeometry x="3414.02" y="-856" width="134.98" height="44" as="geometry" />
        </mxCell>
        <mxCell id="B1v1-cyqUUZS_gUo7Q4Y-454" value="" style="endArrow=classic;html=1;rounded=0;" edge="1" parent="1">
          <mxGeometry width="50" height="50" relative="1" as="geometry">
            <mxPoint x="2786.49" y="-826" as="sourcePoint" />
            <mxPoint x="2866.49" y="-826" as="targetPoint" />
          </mxGeometry>
        </mxCell>
        <mxCell id="B1v1-cyqUUZS_gUo7Q4Y-455" value="&lt;font color=&quot;#000000&quot; style=&quot;font-size: 22px; font-weight: normal;&quot; face=&quot;Verdana&quot;&gt;forward&lt;/font&gt;" style="text;html=1;align=center;verticalAlign=middle;whiteSpace=wrap;rounded=0;fontStyle=1;fillColor=none;fontColor=#3333FF;" vertex="1" parent="1">
          <mxGeometry x="2781" y="-817" width="98.99" height="25" as="geometry" />
        </mxCell>
        <mxCell id="B1v1-cyqUUZS_gUo7Q4Y-456" value="&lt;font color=&quot;#000000&quot; style=&quot;font-size: 22px; font-weight: normal;&quot; face=&quot;Verdana&quot;&gt;backward&lt;/font&gt;" style="text;html=1;align=center;verticalAlign=middle;whiteSpace=wrap;rounded=0;fontStyle=1;fillColor=none;fontColor=#3333FF;" vertex="1" parent="1">
          <mxGeometry x="2781" y="-764" width="98.99" height="25" as="geometry" />
        </mxCell>
        <mxCell id="B1v1-cyqUUZS_gUo7Q4Y-457" value="" style="endArrow=classic;html=1;rounded=0;dashed=1;" edge="1" parent="1">
          <mxGeometry width="50" height="50" relative="1" as="geometry">
            <mxPoint x="2786.49" y="-773" as="sourcePoint" />
            <mxPoint x="2866.49" y="-773" as="targetPoint" />
          </mxGeometry>
        </mxCell>
        <mxCell id="B1v1-cyqUUZS_gUo7Q4Y-458" value="&lt;font style=&quot;font-size: 20px;&quot;&gt;&lt;b&gt;item&lt;/b&gt;&lt;/font&gt;&lt;div&gt;&lt;span style=&quot;font-size: 20px;&quot;&gt;&lt;b&gt;representations&lt;/b&gt;&lt;/span&gt;&lt;/div&gt;&lt;div&gt;&lt;span style=&quot;font-size: 20px;&quot;&gt;&lt;b&gt;&lt;br&gt;&lt;/b&gt;&lt;/span&gt;&lt;div&gt;&lt;font style=&quot;font-size: 20px;&quot;&gt;&lt;b&gt;(billions of items)&lt;/b&gt;&lt;/font&gt;&lt;/div&gt;&lt;/div&gt;" style="shape=cylinder3;whiteSpace=wrap;html=1;boundedLbl=1;backgroundOutline=1;size=7.4285714285716224;fillColor=#f5f5f5;fontColor=#333333;strokeColor=#666666;" vertex="1" parent="1">
          <mxGeometry x="2771" y="122.25" width="179" height="171" as="geometry" />
        </mxCell>
        <mxCell id="B1v1-cyqUUZS_gUo7Q4Y-459" value="&lt;b&gt;&lt;font style=&quot;font-size: 20px;&quot;&gt;Recall&lt;/font&gt;&lt;/b&gt;" style="rounded=1;whiteSpace=wrap;html=1;fillColor=#808080;fontColor=#FFFFFF;" vertex="1" parent="1">
          <mxGeometry x="3016" y="126" width="120" height="37.5" as="geometry" />
        </mxCell>
        <mxCell id="B1v1-cyqUUZS_gUo7Q4Y-467" value="&lt;span style=&quot;font-size: 20px;&quot;&gt;&lt;b&gt;Coarse Ranking&lt;/b&gt;&lt;/span&gt;" style="rounded=1;whiteSpace=wrap;html=1;fillColor=#808080;fontColor=#FFFFFF;" vertex="1" parent="1">
          <mxGeometry x="3358" y="188" width="171" height="37.5" as="geometry" />
        </mxCell>
        <mxCell id="B1v1-cyqUUZS_gUo7Q4Y-468" value="&lt;span style=&quot;font-size: 20px;&quot;&gt;&lt;b&gt;Fine Ranking&lt;/b&gt;&lt;/span&gt;" style="rounded=1;whiteSpace=wrap;html=1;fillColor=#808080;fontColor=#FFFFFF;" vertex="1" parent="1">
          <mxGeometry x="3568" y="188" width="171" height="37.5" as="geometry" />
        </mxCell>
        <mxCell id="B1v1-cyqUUZS_gUo7Q4Y-474" value="&lt;span style=&quot;font-size: 20px;&quot;&gt;&lt;b&gt;Re-ranking&lt;/b&gt;&lt;/span&gt;" style="rounded=1;whiteSpace=wrap;html=1;fillColor=#808080;fontColor=#FFFFFF;" vertex="1" parent="1">
          <mxGeometry x="3942" y="188.37" width="171" height="37.5" as="geometry" />
        </mxCell>
        <mxCell id="B1v1-cyqUUZS_gUo7Q4Y-480" value="&lt;b&gt;&lt;font style=&quot;font-size: 20px;&quot;&gt;hundreds&lt;/font&gt;&lt;/b&gt;&lt;div&gt;&lt;b&gt;&lt;font style=&quot;font-size: 20px;&quot;&gt;of items&lt;/font&gt;&lt;/b&gt;&lt;/div&gt;" style="rounded=0;whiteSpace=wrap;html=1;fillColor=none;" vertex="1" parent="1">
          <mxGeometry x="3782" y="113.62" width="120" height="187" as="geometry" />
        </mxCell>
        <mxCell id="B1v1-cyqUUZS_gUo7Q4Y-481" value="&lt;b&gt;&lt;font style=&quot;font-size: 20px;&quot;&gt;hundreds&lt;/font&gt;&lt;/b&gt;&lt;div&gt;&lt;b&gt;&lt;font style=&quot;font-size: 20px;&quot;&gt;of items&lt;/font&gt;&lt;/b&gt;&lt;/div&gt;" style="rounded=0;whiteSpace=wrap;html=1;fillColor=none;" vertex="1" parent="1">
          <mxGeometry x="4146" y="113.62" width="120" height="187" as="geometry" />
        </mxCell>
        <mxCell id="B1v1-cyqUUZS_gUo7Q4Y-488" style="edgeStyle=orthogonalEdgeStyle;rounded=0;orthogonalLoop=1;jettySize=auto;html=1;entryX=0;entryY=0.75;entryDx=0;entryDy=0;strokeWidth=2;strokeColor=#28A8E0;" edge="1" parent="1" source="B1v1-cyqUUZS_gUo7Q4Y-485" target="B1v1-cyqUUZS_gUo7Q4Y-459">
          <mxGeometry relative="1" as="geometry">
            <Array as="points">
              <mxPoint x="2969" y="360" />
              <mxPoint x="2969" y="154" />
            </Array>
          </mxGeometry>
        </mxCell>
        <mxCell id="B1v1-cyqUUZS_gUo7Q4Y-489" style="edgeStyle=orthogonalEdgeStyle;rounded=0;orthogonalLoop=1;jettySize=auto;html=1;strokeWidth=2;entryX=0;entryY=0.75;entryDx=0;entryDy=0;strokeColor=#28A8E0;" edge="1" parent="1" source="B1v1-cyqUUZS_gUo7Q4Y-485" target="B1v1-cyqUUZS_gUo7Q4Y-464">
          <mxGeometry relative="1" as="geometry">
            <Array as="points">
              <mxPoint x="2969" y="360" />
              <mxPoint x="2969" y="217" />
            </Array>
          </mxGeometry>
        </mxCell>
        <mxCell id="B1v1-cyqUUZS_gUo7Q4Y-490" style="edgeStyle=orthogonalEdgeStyle;rounded=0;orthogonalLoop=1;jettySize=auto;html=1;entryX=0;entryY=0.75;entryDx=0;entryDy=0;strokeWidth=2;strokeColor=#28A8E0;" edge="1" parent="1" source="B1v1-cyqUUZS_gUo7Q4Y-485" target="B1v1-cyqUUZS_gUo7Q4Y-462">
          <mxGeometry relative="1" as="geometry">
            <Array as="points">
              <mxPoint x="2969" y="360" />
              <mxPoint x="2969" y="280" />
            </Array>
          </mxGeometry>
        </mxCell>
        <mxCell id="B1v1-cyqUUZS_gUo7Q4Y-506" style="edgeStyle=orthogonalEdgeStyle;rounded=0;orthogonalLoop=1;jettySize=auto;html=1;entryX=0;entryY=0.75;entryDx=0;entryDy=0;strokeColor=#28A8E0;strokeWidth=2;" edge="1" parent="1" source="B1v1-cyqUUZS_gUo7Q4Y-485" target="B1v1-cyqUUZS_gUo7Q4Y-467">
          <mxGeometry relative="1" as="geometry">
            <Array as="points">
              <mxPoint x="3328" y="360" />
              <mxPoint x="3328" y="216" />
            </Array>
          </mxGeometry>
        </mxCell>
        <mxCell id="B1v1-cyqUUZS_gUo7Q4Y-507" style="edgeStyle=orthogonalEdgeStyle;rounded=0;orthogonalLoop=1;jettySize=auto;html=1;entryX=0;entryY=0.75;entryDx=0;entryDy=0;strokeColor=#28A8E0;strokeWidth=2;" edge="1" parent="1" source="B1v1-cyqUUZS_gUo7Q4Y-485" target="B1v1-cyqUUZS_gUo7Q4Y-468">
          <mxGeometry relative="1" as="geometry">
            <Array as="points">
              <mxPoint x="3543" y="360" />
              <mxPoint x="3543" y="216" />
            </Array>
          </mxGeometry>
        </mxCell>
        <mxCell id="B1v1-cyqUUZS_gUo7Q4Y-508" style="edgeStyle=orthogonalEdgeStyle;rounded=0;orthogonalLoop=1;jettySize=auto;html=1;entryX=0;entryY=0.75;entryDx=0;entryDy=0;strokeColor=#28A8E0;strokeWidth=2;" edge="1" parent="1" source="B1v1-cyqUUZS_gUo7Q4Y-485" target="B1v1-cyqUUZS_gUo7Q4Y-474">
          <mxGeometry relative="1" as="geometry">
            <Array as="points">
              <mxPoint x="3916" y="360" />
              <mxPoint x="3916" y="217" />
            </Array>
          </mxGeometry>
        </mxCell>
        <mxCell id="B1v1-cyqUUZS_gUo7Q4Y-485" value="" style="fillColor=#28A8E0;verticalLabelPosition=bottom;sketch=0;html=1;strokeColor=#ffffff;verticalAlign=top;align=center;points=[[0.145,0.145,0],[0.5,0,0],[0.855,0.145,0],[1,0.5,0],[0.855,0.855,0],[0.5,1,0],[0.145,0.855,0],[0,0.5,0]];pointerEvents=1;shape=mxgraph.cisco_safe.compositeIcon;bgIcon=ellipse;resIcon=mxgraph.cisco_safe.capability.user;" vertex="1" parent="1">
          <mxGeometry x="2825.16" y="323.25" width="70.68" height="68" as="geometry" />
        </mxCell>
        <mxCell id="B1v1-cyqUUZS_gUo7Q4Y-464" value="&lt;b&gt;&lt;font style=&quot;font-size: 20px;&quot;&gt;Recall&lt;/font&gt;&lt;/b&gt;" style="rounded=1;whiteSpace=wrap;html=1;fillColor=#808080;fontColor=#FFFFFF;" vertex="1" parent="1">
          <mxGeometry x="3017" y="189" width="120" height="37.5" as="geometry" />
        </mxCell>
        <mxCell id="B1v1-cyqUUZS_gUo7Q4Y-462" value="&lt;b&gt;&lt;font style=&quot;font-size: 20px;&quot;&gt;Recall&lt;/font&gt;&lt;/b&gt;" style="rounded=1;whiteSpace=wrap;html=1;fillColor=#808080;fontColor=#FFFFFF;" vertex="1" parent="1">
          <mxGeometry x="3016" y="252" width="120" height="37.5" as="geometry" />
        </mxCell>
        <mxCell id="B1v1-cyqUUZS_gUo7Q4Y-499" value="" style="endArrow=classic;html=1;rounded=0;strokeWidth=3;entryX=0;entryY=0.25;entryDx=0;entryDy=0;" edge="1" parent="1">
          <mxGeometry width="50" height="50" relative="1" as="geometry">
            <mxPoint x="2958" y="197" as="sourcePoint" />
            <mxPoint x="3016" y="197" as="targetPoint" />
          </mxGeometry>
        </mxCell>
        <mxCell id="B1v1-cyqUUZS_gUo7Q4Y-500" value="" style="endArrow=classic;html=1;rounded=0;strokeWidth=3;entryX=0;entryY=0.25;entryDx=0;entryDy=0;" edge="1" parent="1">
          <mxGeometry width="50" height="50" relative="1" as="geometry">
            <mxPoint x="2958" y="262" as="sourcePoint" />
            <mxPoint x="3016" y="262" as="targetPoint" />
          </mxGeometry>
        </mxCell>
        <mxCell id="B1v1-cyqUUZS_gUo7Q4Y-502" value="" style="endArrow=classic;html=1;rounded=0;strokeWidth=3;" edge="1" parent="1">
          <mxGeometry width="50" height="50" relative="1" as="geometry">
            <mxPoint x="3139.75" y="144.51" as="sourcePoint" />
            <mxPoint x="3178.75" y="144.51" as="targetPoint" />
          </mxGeometry>
        </mxCell>
        <mxCell id="B1v1-cyqUUZS_gUo7Q4Y-503" value="" style="endArrow=classic;html=1;rounded=0;strokeWidth=3;" edge="1" parent="1">
          <mxGeometry width="50" height="50" relative="1" as="geometry">
            <mxPoint x="3139.75" y="210.52" as="sourcePoint" />
            <mxPoint x="3178.75" y="210.52" as="targetPoint" />
          </mxGeometry>
        </mxCell>
        <mxCell id="B1v1-cyqUUZS_gUo7Q4Y-504" value="" style="endArrow=classic;html=1;rounded=0;strokeWidth=3;" edge="1" parent="1">
          <mxGeometry width="50" height="50" relative="1" as="geometry">
            <mxPoint x="3139.75" y="270.51" as="sourcePoint" />
            <mxPoint x="3178.75" y="270.51" as="targetPoint" />
          </mxGeometry>
        </mxCell>
        <mxCell id="B1v1-cyqUUZS_gUo7Q4Y-505" value="" style="endArrow=classic;html=1;rounded=0;strokeWidth=3;entryX=0;entryY=0.25;entryDx=0;entryDy=0;" edge="1" parent="1" target="B1v1-cyqUUZS_gUo7Q4Y-467">
          <mxGeometry width="50" height="50" relative="1" as="geometry">
            <mxPoint x="3313" y="197" as="sourcePoint" />
            <mxPoint x="3350.25" y="198" as="targetPoint" />
          </mxGeometry>
        </mxCell>
        <mxCell id="B1v1-cyqUUZS_gUo7Q4Y-509" value="" style="endArrow=classic;html=1;rounded=0;strokeWidth=3;entryX=0;entryY=0.25;entryDx=0;entryDy=0;exitX=1;exitY=0.25;exitDx=0;exitDy=0;" edge="1" parent="1" source="B1v1-cyqUUZS_gUo7Q4Y-467" target="B1v1-cyqUUZS_gUo7Q4Y-468">
          <mxGeometry width="50" height="50" relative="1" as="geometry">
            <mxPoint x="3538" y="207" as="sourcePoint" />
            <mxPoint x="3368" y="207" as="targetPoint" />
          </mxGeometry>
        </mxCell>
        <mxCell id="B1v1-cyqUUZS_gUo7Q4Y-511" value="" style="endArrow=classic;html=1;rounded=0;strokeWidth=3;entryX=0;entryY=0.5;entryDx=0;entryDy=0;exitX=1;exitY=0.5;exitDx=0;exitDy=0;" edge="1" parent="1" source="B1v1-cyqUUZS_gUo7Q4Y-468" target="B1v1-cyqUUZS_gUo7Q4Y-480">
          <mxGeometry width="50" height="50" relative="1" as="geometry">
            <mxPoint x="3323" y="207" as="sourcePoint" />
            <mxPoint x="3368" y="207" as="targetPoint" />
          </mxGeometry>
        </mxCell>
        <mxCell id="B1v1-cyqUUZS_gUo7Q4Y-512" value="" style="endArrow=classic;html=1;rounded=0;strokeWidth=3;entryX=0;entryY=0.25;entryDx=0;entryDy=0;" edge="1" parent="1" target="B1v1-cyqUUZS_gUo7Q4Y-474">
          <mxGeometry width="50" height="50" relative="1" as="geometry">
            <mxPoint x="3908" y="198" as="sourcePoint" />
            <mxPoint x="3578" y="207" as="targetPoint" />
          </mxGeometry>
        </mxCell>
        <mxCell id="B1v1-cyqUUZS_gUo7Q4Y-513" value="" style="endArrow=classic;html=1;rounded=0;strokeWidth=3;exitX=1;exitY=0.5;exitDx=0;exitDy=0;entryX=0;entryY=0.5;entryDx=0;entryDy=0;" edge="1" parent="1" source="B1v1-cyqUUZS_gUo7Q4Y-474" target="B1v1-cyqUUZS_gUo7Q4Y-481">
          <mxGeometry width="50" height="50" relative="1" as="geometry">
            <mxPoint x="3749" y="217" as="sourcePoint" />
            <mxPoint x="3792" y="217" as="targetPoint" />
          </mxGeometry>
        </mxCell>
        <mxCell id="B1v1-cyqUUZS_gUo7Q4Y-514" value="&lt;font style=&quot;font-size: 30px;&quot;&gt;&lt;b style=&quot;font-size: 30px;&quot;&gt;1&lt;/b&gt;&lt;/font&gt;" style="ellipse;whiteSpace=wrap;html=1;aspect=fixed;fillColor=#333333;fontColor=#FFFFFF;fontSize=30;" vertex="1" parent="1">
          <mxGeometry x="3060.5" y="76" width="38.25" height="38.25" as="geometry" />
        </mxCell>
        <mxCell id="B1v1-cyqUUZS_gUo7Q4Y-515" value="&lt;font style=&quot;font-size: 30px;&quot;&gt;&lt;b style=&quot;font-size: 30px;&quot;&gt;2&lt;/b&gt;&lt;/font&gt;" style="ellipse;whiteSpace=wrap;html=1;aspect=fixed;fillColor=#333333;fontColor=#FFFFFF;fontSize=30;" vertex="1" parent="1">
          <mxGeometry x="3529" y="124" width="38.25" height="38.25" as="geometry" />
        </mxCell>
        <mxCell id="B1v1-cyqUUZS_gUo7Q4Y-516" value="&lt;font style=&quot;font-size: 30px;&quot;&gt;&lt;b style=&quot;font-size: 30px;&quot;&gt;3&lt;/b&gt;&lt;/font&gt;" style="ellipse;whiteSpace=wrap;html=1;aspect=fixed;fillColor=#333333;fontColor=#FFFFFF;fontSize=30;" vertex="1" parent="1">
          <mxGeometry x="4008.37" y="124" width="38.25" height="38.25" as="geometry" />
        </mxCell>
        <mxCell id="B1v1-cyqUUZS_gUo7Q4Y-554" value="" style="endArrow=classic;html=1;rounded=0;strokeWidth=3;entryX=0;entryY=0.25;entryDx=0;entryDy=0;" edge="1" target="B1v1-cyqUUZS_gUo7Q4Y-560" parent="1">
          <mxGeometry width="50" height="50" relative="1" as="geometry">
            <mxPoint x="2958" y="683.5" as="sourcePoint" />
            <mxPoint x="3169.25" y="687.5" as="targetPoint" />
          </mxGeometry>
        </mxCell>
        <mxCell id="B1v1-cyqUUZS_gUo7Q4Y-555" value="" style="shape=document;whiteSpace=wrap;html=1;boundedLbl=1;rotation=-180;size=0.17511520737327224;fillColor=#99CCFF;opacity=40;" vertex="1" parent="1">
          <mxGeometry x="3782" y="815.75" width="120" height="33" as="geometry" />
        </mxCell>
        <mxCell id="B1v1-cyqUUZS_gUo7Q4Y-556" value="" style="shape=document;whiteSpace=wrap;html=1;boundedLbl=1;rotation=-180;size=0.17511520737327224;fillColor=#99CCFF;opacity=40;" vertex="1" parent="1">
          <mxGeometry x="3185" y="774.25" width="120" height="75.5" as="geometry" />
        </mxCell>
        <mxCell id="B1v1-cyqUUZS_gUo7Q4Y-557" value="&lt;b&gt;&lt;font style=&quot;font-size: 20px;&quot;&gt;thousands of items&lt;/font&gt;&lt;/b&gt;" style="rounded=0;whiteSpace=wrap;html=1;fillColor=none;" vertex="1" parent="1">
          <mxGeometry x="3185" y="660.5" width="120" height="189.25" as="geometry" />
        </mxCell>
        <mxCell id="B1v1-cyqUUZS_gUo7Q4Y-558" value="&lt;font face=&quot;Verdana&quot; style=&quot;font-size: 22px;&quot;&gt;user representation&lt;/font&gt;" style="text;html=1;align=center;verticalAlign=middle;whiteSpace=wrap;rounded=0;fontStyle=1;fillColor=none;fontColor=#28A8E0;" vertex="1" parent="1">
          <mxGeometry x="2759.2799999999997" y="949.5" width="202.44" height="49" as="geometry" />
        </mxCell>
        <mxCell id="B1v1-cyqUUZS_gUo7Q4Y-559" value="&lt;font style=&quot;font-size: 20px;&quot;&gt;&lt;b&gt;item&lt;/b&gt;&lt;/font&gt;&lt;div&gt;&lt;span style=&quot;font-size: 20px;&quot;&gt;&lt;b&gt;representations&lt;/b&gt;&lt;/span&gt;&lt;/div&gt;&lt;div&gt;&lt;span style=&quot;font-size: 20px;&quot;&gt;&lt;b&gt;&lt;br&gt;&lt;/b&gt;&lt;/span&gt;&lt;div&gt;&lt;font style=&quot;font-size: 20px;&quot;&gt;&lt;b&gt;(billions of items)&lt;/b&gt;&lt;/font&gt;&lt;/div&gt;&lt;/div&gt;" style="shape=cylinder3;whiteSpace=wrap;html=1;boundedLbl=1;backgroundOutline=1;size=7.4285714285716224;fillColor=#f5f5f5;fontColor=#333333;strokeColor=#666666;" vertex="1" parent="1">
          <mxGeometry x="2771" y="670.75" width="179" height="171" as="geometry" />
        </mxCell>
        <mxCell id="B1v1-cyqUUZS_gUo7Q4Y-560" value="&lt;b&gt;&lt;font style=&quot;font-size: 20px;&quot;&gt;Recall&lt;/font&gt;&lt;/b&gt;" style="rounded=1;whiteSpace=wrap;html=1;fillColor=#808080;fontColor=#FFFFFF;" vertex="1" parent="1">
          <mxGeometry x="3016" y="674.5" width="120" height="37.5" as="geometry" />
        </mxCell>
        <mxCell id="B1v1-cyqUUZS_gUo7Q4Y-561" value="&lt;span style=&quot;font-size: 20px;&quot;&gt;&lt;b&gt;Coarse Ranking&lt;/b&gt;&lt;/span&gt;" style="rounded=1;whiteSpace=wrap;html=1;fillColor=#808080;fontColor=#FFFFFF;" vertex="1" parent="1">
          <mxGeometry x="3358" y="736.5" width="171" height="37.5" as="geometry" />
        </mxCell>
        <mxCell id="B1v1-cyqUUZS_gUo7Q4Y-562" value="&lt;span style=&quot;font-size: 20px;&quot;&gt;&lt;b&gt;Fine Ranking&lt;/b&gt;&lt;/span&gt;" style="rounded=1;whiteSpace=wrap;html=1;fillColor=#808080;fontColor=#FFFFFF;" vertex="1" parent="1">
          <mxGeometry x="3568" y="736.5" width="171" height="37.5" as="geometry" />
        </mxCell>
        <mxCell id="B1v1-cyqUUZS_gUo7Q4Y-563" value="&lt;span style=&quot;font-size: 20px;&quot;&gt;&lt;b&gt;Re-ranking&lt;/b&gt;&lt;/span&gt;" style="rounded=1;whiteSpace=wrap;html=1;fillColor=#808080;fontColor=#FFFFFF;" vertex="1" parent="1">
          <mxGeometry x="3942" y="736.8699999999999" width="171" height="37.5" as="geometry" />
        </mxCell>
        <mxCell id="B1v1-cyqUUZS_gUo7Q4Y-564" value="&lt;b&gt;&lt;font style=&quot;font-size: 20px;&quot;&gt;hundreds&lt;/font&gt;&lt;/b&gt;&lt;div&gt;&lt;b&gt;&lt;font style=&quot;font-size: 20px;&quot;&gt;of items&lt;/font&gt;&lt;/b&gt;&lt;/div&gt;" style="rounded=0;whiteSpace=wrap;html=1;fillColor=none;" vertex="1" parent="1">
          <mxGeometry x="3782" y="660.5" width="120" height="187" as="geometry" />
        </mxCell>
        <mxCell id="B1v1-cyqUUZS_gUo7Q4Y-565" value="&lt;b&gt;&lt;font style=&quot;font-size: 20px;&quot;&gt;hundreds&lt;/font&gt;&lt;/b&gt;&lt;div&gt;&lt;b&gt;&lt;font style=&quot;font-size: 20px;&quot;&gt;of items&lt;/font&gt;&lt;/b&gt;&lt;/div&gt;" style="rounded=0;whiteSpace=wrap;html=1;fillColor=none;" vertex="1" parent="1">
          <mxGeometry x="4142" y="660.5" width="120" height="187" as="geometry" />
        </mxCell>
        <mxCell id="B1v1-cyqUUZS_gUo7Q4Y-567" style="edgeStyle=orthogonalEdgeStyle;rounded=0;orthogonalLoop=1;jettySize=auto;html=1;entryX=0;entryY=0.75;entryDx=0;entryDy=0;strokeWidth=2;strokeColor=#28A8E0;" edge="1" source="B1v1-cyqUUZS_gUo7Q4Y-573" target="B1v1-cyqUUZS_gUo7Q4Y-560" parent="1">
          <mxGeometry relative="1" as="geometry">
            <Array as="points">
              <mxPoint x="2969" y="908.5" />
              <mxPoint x="2969" y="702.5" />
            </Array>
          </mxGeometry>
        </mxCell>
        <mxCell id="B1v1-cyqUUZS_gUo7Q4Y-568" style="edgeStyle=orthogonalEdgeStyle;rounded=0;orthogonalLoop=1;jettySize=auto;html=1;strokeWidth=2;entryX=0;entryY=0.75;entryDx=0;entryDy=0;strokeColor=#28A8E0;" edge="1" source="B1v1-cyqUUZS_gUo7Q4Y-573" target="B1v1-cyqUUZS_gUo7Q4Y-574" parent="1">
          <mxGeometry relative="1" as="geometry">
            <Array as="points">
              <mxPoint x="2969" y="908.5" />
              <mxPoint x="2969" y="765.5" />
            </Array>
          </mxGeometry>
        </mxCell>
        <mxCell id="B1v1-cyqUUZS_gUo7Q4Y-569" style="edgeStyle=orthogonalEdgeStyle;rounded=0;orthogonalLoop=1;jettySize=auto;html=1;entryX=0;entryY=0.75;entryDx=0;entryDy=0;strokeWidth=2;strokeColor=#28A8E0;" edge="1" source="B1v1-cyqUUZS_gUo7Q4Y-573" target="B1v1-cyqUUZS_gUo7Q4Y-575" parent="1">
          <mxGeometry relative="1" as="geometry">
            <Array as="points">
              <mxPoint x="2969" y="908.5" />
              <mxPoint x="2969" y="828.5" />
            </Array>
          </mxGeometry>
        </mxCell>
        <mxCell id="B1v1-cyqUUZS_gUo7Q4Y-570" style="edgeStyle=orthogonalEdgeStyle;rounded=0;orthogonalLoop=1;jettySize=auto;html=1;entryX=0;entryY=0.75;entryDx=0;entryDy=0;strokeColor=#28A8E0;strokeWidth=2;" edge="1" source="B1v1-cyqUUZS_gUo7Q4Y-573" target="B1v1-cyqUUZS_gUo7Q4Y-561" parent="1">
          <mxGeometry relative="1" as="geometry">
            <Array as="points">
              <mxPoint x="3328" y="908.5" />
              <mxPoint x="3328" y="764.5" />
            </Array>
          </mxGeometry>
        </mxCell>
        <mxCell id="B1v1-cyqUUZS_gUo7Q4Y-571" style="edgeStyle=orthogonalEdgeStyle;rounded=0;orthogonalLoop=1;jettySize=auto;html=1;entryX=0;entryY=0.75;entryDx=0;entryDy=0;strokeColor=#28A8E0;strokeWidth=2;" edge="1" source="B1v1-cyqUUZS_gUo7Q4Y-573" target="B1v1-cyqUUZS_gUo7Q4Y-562" parent="1">
          <mxGeometry relative="1" as="geometry">
            <Array as="points">
              <mxPoint x="3543" y="908.5" />
              <mxPoint x="3543" y="764.5" />
            </Array>
          </mxGeometry>
        </mxCell>
        <mxCell id="B1v1-cyqUUZS_gUo7Q4Y-572" style="edgeStyle=orthogonalEdgeStyle;rounded=0;orthogonalLoop=1;jettySize=auto;html=1;entryX=0;entryY=0.75;entryDx=0;entryDy=0;strokeColor=#28A8E0;strokeWidth=2;" edge="1" source="B1v1-cyqUUZS_gUo7Q4Y-573" target="B1v1-cyqUUZS_gUo7Q4Y-563" parent="1">
          <mxGeometry relative="1" as="geometry">
            <Array as="points">
              <mxPoint x="3916" y="908.5" />
              <mxPoint x="3916" y="765.5" />
            </Array>
          </mxGeometry>
        </mxCell>
        <mxCell id="B1v1-cyqUUZS_gUo7Q4Y-573" value="" style="fillColor=#28A8E0;verticalLabelPosition=bottom;sketch=0;html=1;strokeColor=#ffffff;verticalAlign=top;align=center;points=[[0.145,0.145,0],[0.5,0,0],[0.855,0.145,0],[1,0.5,0],[0.855,0.855,0],[0.5,1,0],[0.145,0.855,0],[0,0.5,0]];pointerEvents=1;shape=mxgraph.cisco_safe.compositeIcon;bgIcon=ellipse;resIcon=mxgraph.cisco_safe.capability.user;" vertex="1" parent="1">
          <mxGeometry x="2825.16" y="871.75" width="70.68" height="68" as="geometry" />
        </mxCell>
        <mxCell id="B1v1-cyqUUZS_gUo7Q4Y-574" value="&lt;b&gt;&lt;font style=&quot;font-size: 20px;&quot;&gt;Recall&lt;/font&gt;&lt;/b&gt;" style="rounded=1;whiteSpace=wrap;html=1;fillColor=#808080;fontColor=#FFFFFF;" vertex="1" parent="1">
          <mxGeometry x="3017" y="737.5" width="120" height="37.5" as="geometry" />
        </mxCell>
        <mxCell id="B1v1-cyqUUZS_gUo7Q4Y-575" value="&lt;b&gt;&lt;font style=&quot;font-size: 20px;&quot;&gt;Recall&lt;/font&gt;&lt;/b&gt;" style="rounded=1;whiteSpace=wrap;html=1;fillColor=#808080;fontColor=#FFFFFF;" vertex="1" parent="1">
          <mxGeometry x="3016" y="800.5" width="120" height="37.5" as="geometry" />
        </mxCell>
        <mxCell id="B1v1-cyqUUZS_gUo7Q4Y-576" value="" style="endArrow=classic;html=1;rounded=0;strokeWidth=3;entryX=0;entryY=0.25;entryDx=0;entryDy=0;" edge="1" parent="1">
          <mxGeometry width="50" height="50" relative="1" as="geometry">
            <mxPoint x="2958" y="745.5" as="sourcePoint" />
            <mxPoint x="3016" y="745.5" as="targetPoint" />
          </mxGeometry>
        </mxCell>
        <mxCell id="B1v1-cyqUUZS_gUo7Q4Y-577" value="" style="endArrow=classic;html=1;rounded=0;strokeWidth=3;entryX=0;entryY=0.25;entryDx=0;entryDy=0;" edge="1" parent="1">
          <mxGeometry width="50" height="50" relative="1" as="geometry">
            <mxPoint x="2958" y="810.5" as="sourcePoint" />
            <mxPoint x="3016" y="810.5" as="targetPoint" />
          </mxGeometry>
        </mxCell>
        <mxCell id="B1v1-cyqUUZS_gUo7Q4Y-578" value="" style="endArrow=classic;html=1;rounded=0;strokeWidth=3;" edge="1" parent="1">
          <mxGeometry width="50" height="50" relative="1" as="geometry">
            <mxPoint x="3139.75" y="693.01" as="sourcePoint" />
            <mxPoint x="3178.75" y="693.01" as="targetPoint" />
          </mxGeometry>
        </mxCell>
        <mxCell id="B1v1-cyqUUZS_gUo7Q4Y-579" value="" style="endArrow=classic;html=1;rounded=0;strokeWidth=3;" edge="1" parent="1">
          <mxGeometry width="50" height="50" relative="1" as="geometry">
            <mxPoint x="3139.75" y="759.02" as="sourcePoint" />
            <mxPoint x="3178.75" y="759.02" as="targetPoint" />
          </mxGeometry>
        </mxCell>
        <mxCell id="B1v1-cyqUUZS_gUo7Q4Y-580" value="" style="endArrow=classic;html=1;rounded=0;strokeWidth=3;" edge="1" parent="1">
          <mxGeometry width="50" height="50" relative="1" as="geometry">
            <mxPoint x="3139.75" y="819.01" as="sourcePoint" />
            <mxPoint x="3178.75" y="819.01" as="targetPoint" />
          </mxGeometry>
        </mxCell>
        <mxCell id="B1v1-cyqUUZS_gUo7Q4Y-581" value="" style="endArrow=classic;html=1;rounded=0;strokeWidth=3;entryX=0;entryY=0.25;entryDx=0;entryDy=0;" edge="1" target="B1v1-cyqUUZS_gUo7Q4Y-561" parent="1">
          <mxGeometry width="50" height="50" relative="1" as="geometry">
            <mxPoint x="3313" y="745.5" as="sourcePoint" />
            <mxPoint x="3350.25" y="746.5" as="targetPoint" />
          </mxGeometry>
        </mxCell>
        <mxCell id="B1v1-cyqUUZS_gUo7Q4Y-582" value="" style="endArrow=classic;html=1;rounded=0;strokeWidth=3;entryX=0;entryY=0.25;entryDx=0;entryDy=0;exitX=1;exitY=0.25;exitDx=0;exitDy=0;" edge="1" source="B1v1-cyqUUZS_gUo7Q4Y-561" target="B1v1-cyqUUZS_gUo7Q4Y-562" parent="1">
          <mxGeometry width="50" height="50" relative="1" as="geometry">
            <mxPoint x="3538" y="755.5" as="sourcePoint" />
            <mxPoint x="3368" y="755.5" as="targetPoint" />
          </mxGeometry>
        </mxCell>
        <mxCell id="B1v1-cyqUUZS_gUo7Q4Y-583" value="" style="endArrow=classic;html=1;rounded=0;strokeWidth=3;entryX=0;entryY=0.5;entryDx=0;entryDy=0;exitX=1;exitY=0.5;exitDx=0;exitDy=0;" edge="1" source="B1v1-cyqUUZS_gUo7Q4Y-562" target="B1v1-cyqUUZS_gUo7Q4Y-564" parent="1">
          <mxGeometry width="50" height="50" relative="1" as="geometry">
            <mxPoint x="3323" y="755.5" as="sourcePoint" />
            <mxPoint x="3368" y="755.5" as="targetPoint" />
          </mxGeometry>
        </mxCell>
        <mxCell id="B1v1-cyqUUZS_gUo7Q4Y-584" value="" style="endArrow=classic;html=1;rounded=0;strokeWidth=3;entryX=0;entryY=0.25;entryDx=0;entryDy=0;" edge="1" target="B1v1-cyqUUZS_gUo7Q4Y-563" parent="1">
          <mxGeometry width="50" height="50" relative="1" as="geometry">
            <mxPoint x="3908" y="746.5" as="sourcePoint" />
            <mxPoint x="3578" y="755.5" as="targetPoint" />
          </mxGeometry>
        </mxCell>
        <mxCell id="B1v1-cyqUUZS_gUo7Q4Y-585" value="" style="endArrow=classic;html=1;rounded=0;strokeWidth=3;exitX=1;exitY=0.5;exitDx=0;exitDy=0;" edge="1" source="B1v1-cyqUUZS_gUo7Q4Y-563" target="B1v1-cyqUUZS_gUo7Q4Y-565" parent="1">
          <mxGeometry width="50" height="50" relative="1" as="geometry">
            <mxPoint x="3749" y="765.5" as="sourcePoint" />
            <mxPoint x="3792" y="765.5" as="targetPoint" />
          </mxGeometry>
        </mxCell>
        <mxCell id="B1v1-cyqUUZS_gUo7Q4Y-586" value="&lt;font style=&quot;font-size: 30px;&quot;&gt;&lt;b style=&quot;font-size: 30px;&quot;&gt;1&lt;/b&gt;&lt;/font&gt;" style="ellipse;whiteSpace=wrap;html=1;aspect=fixed;fillColor=#333333;fontColor=#FFFFFF;fontSize=30;" vertex="1" parent="1">
          <mxGeometry x="3060.5" y="624.5" width="38.25" height="38.25" as="geometry" />
        </mxCell>
        <mxCell id="B1v1-cyqUUZS_gUo7Q4Y-587" value="&lt;font style=&quot;font-size: 30px;&quot;&gt;&lt;b style=&quot;font-size: 30px;&quot;&gt;2&lt;/b&gt;&lt;/font&gt;" style="ellipse;whiteSpace=wrap;html=1;aspect=fixed;fillColor=#333333;fontColor=#FFFFFF;fontSize=30;" vertex="1" parent="1">
          <mxGeometry x="3529" y="672.5" width="38.25" height="38.25" as="geometry" />
        </mxCell>
        <mxCell id="B1v1-cyqUUZS_gUo7Q4Y-588" value="&lt;font style=&quot;font-size: 30px;&quot;&gt;&lt;b style=&quot;font-size: 30px;&quot;&gt;3&lt;/b&gt;&lt;/font&gt;" style="ellipse;whiteSpace=wrap;html=1;aspect=fixed;fillColor=#333333;fontColor=#FFFFFF;fontSize=30;" vertex="1" parent="1">
          <mxGeometry x="4008.37" y="672.5" width="38.25" height="38.25" as="geometry" />
        </mxCell>
        <mxCell id="B1v1-cyqUUZS_gUo7Q4Y-600" value="" style="endArrow=classic;html=1;rounded=0;strokeWidth=3;strokeColor=#CC0000;" edge="1" parent="1">
          <mxGeometry width="50" height="50" relative="1" as="geometry">
            <mxPoint x="3744" y="751.5" as="sourcePoint" />
            <mxPoint x="3794" y="610.5" as="targetPoint" />
          </mxGeometry>
        </mxCell>
        <mxCell id="B1v1-cyqUUZS_gUo7Q4Y-602" value="&lt;font face=&quot;Verdana&quot; style=&quot;font-size: 22px;&quot;&gt;Negative Samples&lt;/font&gt;" style="text;html=1;align=center;verticalAlign=middle;whiteSpace=wrap;rounded=0;fontStyle=1;fillColor=none;fontColor=#CC0000;" vertex="1" parent="1">
          <mxGeometry x="3710.5" y="520.5" width="240.5" height="37" as="geometry" />
        </mxCell>
        <mxCell id="B1v1-cyqUUZS_gUo7Q4Y-609" value="" style="shape=document;whiteSpace=wrap;html=1;boundedLbl=1;rotation=-180;size=0.17511520737327224;fillColor=#99CCFF;opacity=40;" vertex="1" parent="1">
          <mxGeometry x="4146" y="267.62" width="120" height="33" as="geometry" />
        </mxCell>
        <mxCell id="B1v1-cyqUUZS_gUo7Q4Y-616" value="" style="shape=document;whiteSpace=wrap;html=1;boundedLbl=1;rotation=-180;size=0.17511520737327224;fillColor=#99CCFF;opacity=40;" vertex="1" parent="1">
          <mxGeometry x="4142" y="814.5" width="120" height="33" as="geometry" />
        </mxCell>
        <mxCell id="B1v1-cyqUUZS_gUo7Q4Y-618" value="&lt;b style=&quot;font-size: 20px;&quot;&gt;filtered&amp;nbsp;&lt;/b&gt;&lt;b style=&quot;background-color: initial; font-size: 20px;&quot;&gt;after rank&lt;/b&gt;" style="text;html=1;align=center;verticalAlign=middle;whiteSpace=wrap;rounded=0;fontColor=#CC0000;" vertex="1" parent="1">
          <mxGeometry x="3803" y="594.5" width="180" height="30" as="geometry" />
        </mxCell>
        <mxCell id="B1v1-cyqUUZS_gUo7Q4Y-619" value="&lt;span style=&quot;font-size: 20px;&quot;&gt;&lt;b&gt;not be recalled&lt;/b&gt;&lt;/span&gt;" style="text;html=1;align=center;verticalAlign=middle;whiteSpace=wrap;rounded=0;fontColor=#CC0000;" vertex="1" parent="1">
          <mxGeometry x="3198" y="584.5" width="164" height="30" as="geometry" />
        </mxCell>
        <mxCell id="B1v1-cyqUUZS_gUo7Q4Y-622" value="" style="endArrow=classic;html=1;rounded=0;strokeWidth=3;strokeColor=#CC0000;" edge="1" parent="1">
          <mxGeometry width="50" height="50" relative="1" as="geometry">
            <mxPoint x="4275" y="751.5" as="sourcePoint" />
            <mxPoint x="4325" y="610.5" as="targetPoint" />
          </mxGeometry>
        </mxCell>
        <mxCell id="B1v1-cyqUUZS_gUo7Q4Y-623" value="&lt;span style=&quot;font-size: 20px;&quot;&gt;&lt;b&gt;expose but not be clicked&lt;/b&gt;&lt;/span&gt;" style="text;html=1;align=center;verticalAlign=middle;whiteSpace=wrap;rounded=0;fontColor=#CC0000;" vertex="1" parent="1">
          <mxGeometry x="4326" y="594.5" width="142" height="54" as="geometry" />
        </mxCell>
        <mxCell id="B1v1-cyqUUZS_gUo7Q4Y-624" value="" style="endArrow=classic;html=1;rounded=0;strokeWidth=3;exitX=1;exitY=0.5;exitDx=0;exitDy=0;" edge="1" parent="1">
          <mxGeometry width="50" height="50" relative="1" as="geometry">
            <mxPoint x="4269" y="755.5" as="sourcePoint" />
            <mxPoint x="4338" y="755.5" as="targetPoint" />
          </mxGeometry>
        </mxCell>
        <mxCell id="B1v1-cyqUUZS_gUo7Q4Y-628" value="&lt;font color=&quot;#000000&quot; style=&quot;font-size: 22px;&quot; face=&quot;Verdana&quot;&gt;exposed&lt;/font&gt;" style="text;html=1;align=center;verticalAlign=middle;whiteSpace=wrap;rounded=0;fontStyle=1;fillColor=none;fontColor=#3333FF;" vertex="1" parent="1">
          <mxGeometry x="4355" y="741.5" width="98.99" height="25" as="geometry" />
        </mxCell>
        <mxCell id="B1v1-cyqUUZS_gUo7Q4Y-629" value="" style="shape=curlyBracket;whiteSpace=wrap;html=1;rounded=1;labelPosition=left;verticalLabelPosition=middle;align=right;verticalAlign=middle;rotation=90;strokeWidth=2;strokeColor=#CC0000;" vertex="1" parent="1">
          <mxGeometry x="3820.75" y="-49" width="20" height="1243" as="geometry" />
        </mxCell>
      </root>
    </mxGraphModel>
  </diagram>
</mxfile>
